{"glyphs":{"0":{"ha":864,"x_min":90,"x_max":774,"o":"m 432 -14 q 183 107 276 -14 q 90 458 90 228 q 183 810 90 689 q 432 931 276 931 q 681 810 589 931 q 774 458 774 689 q 681 107 774 228 q 432 -14 589 -14 m 432 86 q 601 182 543 86 q 658 458 658 278 q 601 735 658 640 q 432 831 543 831 q 264 735 322 831 q 206 458 206 640 q 264 182 206 278 q 432 86 322 86 z "},"1":{"ha":542,"x_min":25,"x_max":400,"o":"m 289 0 l 289 672 q 290 723 289 696 q 292 779 290 750 q 182 699 244 733 q 54 650 119 665 l 25 751 q 88 770 50 754 q 169 810 126 786 q 247 863 211 835 q 303 917 283 890 l 400 917 l 400 0 l 289 0 z "},"2":{"ha":810,"x_min":74,"x_max":719,"o":"m 103 0 l 103 90 q 333 268 240 192 q 481 407 425 344 q 560 526 536 469 q 583 643 583 582 q 531 776 583 725 q 389 826 479 826 q 238 765 294 826 q 171 600 181 703 l 74 658 q 173 854 92 778 q 393 931 254 931 q 556 894 488 931 q 663 792 625 857 q 700 643 700 728 q 658 474 700 557 q 521 301 617 392 q 261 101 425 211 l 261 100 q 303 102 276 101 q 358 103 331 103 q 399 104 385 104 l 719 104 l 719 0 l 103 0 z "},"3":{"ha":810,"x_min":60,"x_max":718,"o":"m 403 -14 q 187 44 281 -14 q 60 203 93 101 l 171 260 q 251 137 196 183 q 414 90 306 90 q 553 138 504 90 q 603 261 603 186 q 560 373 603 336 q 419 410 518 410 q 349 406 389 410 l 349 517 q 373 515 361 515 q 394 515 385 515 q 539 555 496 515 q 582 679 582 594 q 538 789 582 751 q 411 826 493 826 q 278 788 324 826 q 206 685 232 750 l 100 735 q 216 876 133 821 q 414 932 299 932 q 572 899 510 932 q 666 813 635 867 q 697 693 697 758 q 646 535 697 594 q 525 465 594 476 l 525 463 q 629 433 586 461 q 695 359 672 404 q 718 263 718 314 q 678 119 718 182 q 568 22 639 57 q 403 -14 497 -14 z "},"4":{"ha":849,"x_min":61,"x_max":782,"o":"m 508 0 l 508 240 l 61 240 l 61 322 l 479 917 l 619 917 l 619 336 l 782 336 l 782 240 l 619 240 l 619 0 l 508 0 m 179 336 l 508 336 l 508 679 q 510 753 508 715 q 514 826 513 790 l 511 826 q 468 749 494 792 q 419 674 442 706 l 179 336 z "},"5":{"ha":808,"x_min":88,"x_max":721,"o":"m 399 -14 q 202 42 276 -14 q 88 196 128 97 l 196 253 q 265 135 218 181 q 401 90 311 90 q 551 142 496 90 q 606 286 606 194 q 555 433 606 383 q 411 483 504 483 q 292 463 344 483 q 207 394 239 442 l 110 413 l 164 917 l 679 917 l 679 813 l 258 813 l 222 524 l 219 511 l 222 511 q 308 567 256 546 q 432 588 360 588 q 584 551 519 588 q 685 447 649 514 q 721 292 721 381 q 680 128 721 197 q 567 23 639 60 q 399 -14 494 -14 z "},"6":{"ha":844,"x_min":90,"x_max":760,"o":"m 449 931 q 628 885 558 931 q 740 738 697 840 l 638 689 q 570 790 617 753 q 442 826 524 826 q 307 774 363 826 q 223 635 251 722 q 194 438 194 547 l 194 413 l 200 413 q 256 509 215 472 q 349 563 297 546 q 451 581 401 581 q 614 544 544 581 q 722 442 683 508 q 760 283 760 375 q 674 67 760 147 q 444 -14 589 -14 q 250 47 329 -14 q 131 215 171 108 q 90 458 90 321 q 138 717 90 613 q 266 876 185 822 q 449 931 347 931 m 443 474 q 299 421 354 474 q 243 285 243 368 q 269 188 243 232 q 341 119 296 144 q 443 93 386 93 q 590 144 538 93 q 643 285 643 194 q 590 423 643 372 q 443 474 538 474 z "},"7":{"ha":779,"x_min":56,"x_max":731,"o":"m 56 917 l 731 917 l 731 813 q 480 431 557 631 q 403 0 403 232 l 289 0 q 369 430 289 222 q 610 813 449 638 l 56 813 l 56 917 z "},"8":{"ha":856,"x_min":94,"x_max":761,"o":"m 428 929 q 640 865 560 929 q 719 689 719 800 q 685 565 719 618 q 590 483 651 511 l 590 482 q 715 393 668 453 q 761 247 761 333 q 719 108 761 167 q 603 18 678 50 q 428 -14 529 -14 q 253 18 328 -14 q 136 108 178 50 q 94 247 94 167 q 140 392 94 332 q 267 482 186 453 l 267 483 q 172 563 207 510 q 136 689 136 617 q 216 865 136 800 q 428 929 296 929 m 428 825 q 299 786 347 825 q 251 678 251 747 q 300 571 251 610 q 428 532 349 532 q 556 571 507 532 q 604 678 604 610 q 557 786 604 747 q 428 825 510 825 m 428 90 q 588 135 529 90 q 646 258 646 181 q 586 383 646 338 q 428 428 526 428 q 270 383 331 428 q 210 258 210 338 q 269 135 210 181 q 428 90 328 90 z "},"9":{"ha":857,"x_min":96,"x_max":767,"o":"m 413 931 q 607 870 528 931 q 726 703 686 810 q 767 458 767 597 q 677 107 767 228 q 414 -14 588 -14 q 218 39 300 -14 q 96 193 136 92 l 206 251 q 278 135 228 179 q 418 90 329 90 q 568 140 514 90 q 644 282 622 190 q 665 496 665 374 l 665 508 l 660 508 q 601 408 643 446 q 508 353 560 369 q 404 336 456 336 q 244 372 314 336 q 136 471 175 407 q 97 622 97 535 q 181 847 97 763 q 413 931 265 931 m 414 824 q 265 770 317 824 q 214 621 214 717 q 268 491 214 539 q 414 443 322 443 q 559 496 504 443 q 614 632 614 549 q 559 771 614 718 q 414 824 504 824 z "},"A":{"ha":917,"x_min":36,"x_max":881,"o":"m 881 0 l 763 0 l 665 254 l 250 254 l 153 0 l 36 0 l 393 917 l 525 917 l 881 0 m 290 358 l 625 358 l 457 810 l 290 358 z "},"Á":{"ha":917,"x_min":36,"x_max":881,"o":"m 881 0 l 763 0 l 665 254 l 250 254 l 153 0 l 36 0 l 393 917 l 525 917 l 881 0 m 290 358 l 625 358 l 457 810 l 290 358 m 490 1253 l 607 1253 l 488 1032 l 399 1032 l 490 1253 z "},"Ă":{"ha":917,"x_min":36,"x_max":881,"o":"m 881 0 l 763 0 l 665 254 l 250 254 l 153 0 l 36 0 l 393 917 l 525 917 l 881 0 m 290 358 l 625 358 l 457 810 l 290 358 z "},"Ắ":{"ha":917,"x_min":36,"x_max":881,"o":"m 390 1254 l 463 1435 l 578 1435 l 476 1254 l 390 1254 m 664 1229 q 607 1081 664 1138 q 458 1024 550 1024 q 310 1081 367 1024 q 253 1229 253 1138 l 343 1229 q 374 1144 344 1181 q 458 1107 403 1107 q 544 1144 515 1107 q 574 1229 572 1181 l 664 1229 m 881 0 l 763 0 l 665 254 l 250 254 l 153 0 l 36 0 l 393 917 l 525 917 l 881 0 m 290 358 l 625 358 l 457 810 l 290 358 z "},"Ặ":{"ha":917,"x_min":36,"x_max":881,"o":"m 881 0 l 763 0 l 665 254 l 250 254 l 153 0 l 36 0 l 393 917 l 525 917 l 881 0 m 290 358 l 625 358 l 457 810 l 290 358 m 458 -300 q 398 -277 421 -300 q 375 -217 375 -254 q 398 -156 375 -179 q 458 -133 421 -133 q 519 -156 496 -133 q 542 -217 542 -179 q 519 -277 542 -254 q 458 -300 496 -300 z "},"Ằ":{"ha":917,"x_min":36,"x_max":881,"o":"m 526 1254 l 440 1254 l 339 1435 l 454 1435 l 526 1254 m 664 1229 q 607 1081 664 1138 q 458 1024 550 1024 q 310 1081 367 1024 q 253 1229 253 1138 l 343 1229 q 374 1144 344 1181 q 458 1107 403 1107 q 544 1144 515 1107 q 574 1229 572 1181 l 664 1229 m 881 0 l 763 0 l 665 254 l 250 254 l 153 0 l 36 0 l 393 917 l 525 917 l 881 0 m 290 358 l 625 358 l 457 810 l 290 358 z "},"Ẳ":{"ha":917,"x_min":36,"x_max":881,"o":"m 460 1233 l 421 1278 q 475 1316 457 1297 q 493 1365 493 1335 q 479 1401 493 1386 q 439 1415 465 1415 q 375 1374 399 1415 l 310 1418 q 367 1478 331 1457 q 456 1500 404 1500 q 549 1465 514 1500 q 583 1381 583 1431 q 552 1292 583 1332 q 460 1233 521 1253 m 664 1229 q 607 1081 664 1138 q 458 1024 550 1024 q 310 1081 367 1024 q 253 1229 253 1138 l 343 1229 q 374 1144 344 1181 q 458 1107 403 1107 q 544 1144 515 1107 q 574 1229 572 1181 l 664 1229 m 881 0 l 763 0 l 665 254 l 250 254 l 153 0 l 36 0 l 393 917 l 525 917 l 881 0 m 290 358 l 625 358 l 457 810 l 290 358 z "},"Ẵ":{"ha":917,"x_min":36,"x_max":881,"o":"m 701 1453 q 655 1322 694 1364 q 550 1279 615 1279 q 485 1292 511 1279 q 442 1322 460 1306 q 406 1352 424 1339 q 367 1365 389 1365 q 324 1344 339 1365 q 303 1282 310 1324 l 215 1282 q 368 1456 229 1456 q 431 1442 406 1456 q 476 1413 457 1429 q 511 1383 494 1396 q 549 1369 528 1369 q 592 1390 576 1369 q 614 1453 607 1411 l 701 1453 m 665 1229 q 608 1081 665 1138 q 460 1024 551 1024 q 311 1081 368 1024 q 254 1229 254 1138 l 344 1229 q 375 1144 346 1181 q 460 1107 404 1107 q 545 1144 517 1107 q 575 1229 574 1181 l 665 1229 m 881 0 l 763 0 l 665 254 l 250 254 l 153 0 l 36 0 l 393 917 l 525 917 l 881 0 m 290 358 l 625 358 l 457 810 l 290 358 z "},"Â":{"ha":917,"x_min":36,"x_max":881,"o":"m 881 0 l 763 0 l 665 254 l 250 254 l 153 0 l 36 0 l 393 917 l 525 917 l 881 0 m 290 358 l 625 358 l 457 810 l 290 358 m 672 1032 l 569 1032 l 458 1181 l 347 1032 l 244 1032 l 397 1253 l 519 1253 l 672 1032 z "},"Ấ":{"ha":917,"x_min":36,"x_max":881,"o":"m 711 1383 l 815 1383 l 708 1185 l 628 1185 l 711 1383 m 679 1022 l 578 1022 l 458 1182 l 339 1022 l 238 1022 l 396 1254 l 521 1254 l 679 1022 m 881 0 l 763 0 l 665 254 l 250 254 l 153 0 l 36 0 l 393 917 l 525 917 l 881 0 m 290 358 l 625 358 l 457 810 l 290 358 z "},"Ậ":{"ha":917,"x_min":36,"x_max":881,"o":"m 881 0 l 763 0 l 665 254 l 250 254 l 153 0 l 36 0 l 393 917 l 525 917 l 881 0 m 290 358 l 625 358 l 457 810 l 290 358 m 458 -300 q 398 -277 421 -300 q 375 -217 375 -254 q 398 -156 375 -179 q 458 -133 421 -133 q 519 -156 496 -133 q 542 -217 542 -179 q 519 -277 542 -254 q 458 -300 496 -300 m 672 1032 l 569 1032 l 458 1181 l 347 1032 l 244 1032 l 397 1253 l 519 1253 l 672 1032 z "},"Ầ":{"ha":917,"x_min":36,"x_max":881,"o":"m 653 1383 l 736 1185 l 656 1185 l 549 1383 l 653 1383 m 679 1022 l 578 1022 l 458 1182 l 339 1022 l 238 1022 l 396 1254 l 521 1254 l 679 1022 m 881 0 l 763 0 l 665 254 l 250 254 l 153 0 l 36 0 l 393 917 l 525 917 l 881 0 m 290 358 l 625 358 l 457 810 l 290 358 z "},"Ẩ":{"ha":917,"x_min":36,"x_max":881,"o":"m 683 1157 l 644 1201 q 699 1240 681 1221 q 717 1289 717 1258 q 703 1324 717 1310 q 663 1339 689 1339 q 599 1297 622 1339 l 533 1342 q 591 1402 554 1381 q 679 1424 628 1424 q 772 1389 738 1424 q 807 1304 807 1354 q 776 1216 807 1256 q 683 1157 744 1176 m 679 1022 l 578 1022 l 458 1182 l 339 1022 l 238 1022 l 396 1254 l 521 1254 l 679 1022 m 881 0 l 763 0 l 665 254 l 250 254 l 153 0 l 36 0 l 393 917 l 525 917 l 881 0 m 290 358 l 625 358 l 457 810 l 290 358 z "},"Ẫ":{"ha":917,"x_min":36,"x_max":881,"o":"m 700 1465 q 653 1334 693 1376 q 549 1292 614 1292 q 484 1305 510 1292 q 440 1335 458 1318 q 405 1365 422 1351 q 365 1378 388 1378 q 323 1357 338 1378 q 301 1294 308 1336 l 214 1294 q 367 1468 228 1468 q 430 1455 404 1468 q 474 1425 456 1442 q 510 1395 493 1408 q 547 1382 526 1382 q 590 1403 575 1382 q 613 1465 606 1424 l 700 1465 m 679 1022 l 578 1022 l 458 1182 l 339 1022 l 238 1022 l 396 1254 l 521 1254 l 679 1022 m 881 0 l 763 0 l 665 254 l 250 254 l 153 0 l 36 0 l 393 917 l 525 917 l 881 0 m 290 358 l 625 358 l 457 810 l 290 358 z "},"Ȁ":{"ha":917,"x_min":36,"x_max":881,"o":"m 881 0 l 763 0 l 665 254 l 250 254 l 153 0 l 36 0 l 393 917 l 525 917 l 881 0 m 290 358 l 625 358 l 457 810 l 290 358 m 288 1253 l 379 1032 l 290 1032 l 171 1253 l 288 1253 m 533 1253 l 625 1032 l 536 1032 l 417 1253 l 533 1253 z "},"Ä":{"ha":917,"x_min":36,"x_max":881,"o":"m 881 0 l 763 0 l 665 254 l 250 254 l 153 0 l 36 0 l 393 917 l 525 917 l 881 0 m 290 358 l 625 358 l 457 810 l 290 358 m 324 1189 q 381 1167 360 1189 q 403 1110 403 1146 q 381 1053 403 1075 q 324 1031 360 1031 q 267 1053 289 1031 q 244 1110 244 1075 q 267 1167 244 1146 q 324 1189 289 1189 m 593 1189 q 651 1167 629 1189 q 672 1110 672 1146 q 651 1053 672 1075 q 593 1031 629 1031 q 536 1053 558 1031 q 514 1110 514 1075 q 536 1167 514 1146 q 593 1189 558 1189 z "},"Ạ":{"ha":917,"x_min":36,"x_max":881,"o":"m 881 0 l 763 0 l 665 254 l 250 254 l 153 0 l 36 0 l 393 917 l 525 917 l 881 0 m 290 358 l 625 358 l 457 810 l 290 358 m 458 -300 q 398 -277 421 -300 q 375 -217 375 -254 q 398 -156 375 -179 q 458 -133 421 -133 q 519 -156 496 -133 q 542 -217 542 -179 q 519 -277 542 -254 q 458 -300 496 -300 z "},"À":{"ha":917,"x_min":36,"x_max":881,"o":"m 881 0 l 763 0 l 665 254 l 250 254 l 153 0 l 36 0 l 393 917 l 525 917 l 881 0 m 290 358 l 625 358 l 457 810 l 290 358 m 419 1253 l 511 1032 l 422 1032 l 303 1253 l 419 1253 z "},"Ả":{"ha":917,"x_min":36,"x_max":881,"o":"m 881 0 l 763 0 l 665 254 l 250 254 l 153 0 l 36 0 l 393 917 l 525 917 l 881 0 m 290 358 l 625 358 l 457 810 l 290 358 m 460 993 l 421 1038 q 475 1076 457 1057 q 493 1125 493 1094 q 479 1160 493 1146 q 439 1175 465 1175 q 375 1133 399 1175 l 310 1178 q 367 1238 331 1217 q 456 1260 404 1260 q 549 1225 514 1260 q 583 1140 583 1190 q 552 1052 583 1092 q 460 993 521 1013 z "},"Ȃ":{"ha":917,"x_min":36,"x_max":881,"o":"m 881 0 l 763 0 l 665 254 l 250 254 l 153 0 l 36 0 l 393 917 l 525 917 l 881 0 m 290 358 l 625 358 l 457 810 l 290 358 m 664 1024 l 574 1024 q 544 1109 572 1072 q 458 1146 515 1146 q 374 1109 403 1146 q 343 1024 344 1072 l 253 1024 q 310 1172 253 1115 q 458 1229 367 1229 q 607 1172 550 1229 q 664 1024 664 1115 z "},"Ā":{"ha":917,"x_min":36,"x_max":881,"o":"m 881 0 l 763 0 l 665 254 l 250 254 l 153 0 l 36 0 l 393 917 l 525 917 l 881 0 m 290 358 l 625 358 l 457 810 l 290 358 m 686 1143 l 686 1050 l 231 1050 l 231 1143 l 686 1143 z "},"Ą":{"ha":917,"x_min":36,"x_max":896,"o":"m 783 -299 q 663 -260 708 -299 q 618 -154 618 -222 q 651 -54 618 -97 q 754 19 685 -11 l 665 254 l 250 254 l 153 0 l 36 0 l 393 917 l 525 917 l 881 0 q 774 -47 811 -22 q 722 -96 736 -71 q 708 -147 708 -121 q 733 -201 708 -182 q 797 -219 757 -219 q 836 -217 815 -219 q 874 -203 857 -214 l 896 -274 q 845 -293 876 -287 q 783 -299 814 -299 m 290 358 l 625 358 l 457 810 l 290 358 z "},"Å":{"ha":917,"x_min":36,"x_max":881,"o":"m 881 0 l 763 0 l 665 254 l 250 254 l 153 0 l 36 0 l 393 917 l 525 917 l 881 0 m 290 358 l 625 358 l 457 810 l 290 358 m 456 1176 q 581 1131 533 1176 q 629 1013 629 1086 q 581 893 629 939 q 456 847 533 847 q 329 893 378 847 q 281 1013 281 939 q 329 1131 281 1086 q 456 1176 378 1176 m 456 1108 q 385 1081 413 1108 q 357 1013 357 1054 q 385 944 357 971 q 456 917 413 917 q 526 944 499 917 q 554 1013 554 971 q 526 1081 554 1054 q 456 1108 499 1108 z "},"Ǻ":{"ha":917,"x_min":36,"x_max":881,"o":"m 881 0 l 763 0 l 665 254 l 250 254 l 153 0 l 36 0 l 393 917 l 525 917 l 881 0 m 290 358 l 625 358 l 457 810 l 290 358 m 456 1176 q 581 1131 533 1176 q 629 1013 629 1086 q 581 893 629 939 q 456 847 533 847 q 329 893 378 847 q 281 1013 281 939 q 329 1131 281 1086 q 456 1176 378 1176 m 456 1108 q 385 1081 413 1108 q 357 1013 357 1054 q 385 944 357 971 q 456 917 413 917 q 526 944 499 917 q 554 1013 554 971 q 526 1081 554 1054 q 456 1108 499 1108 m 492 1471 l 608 1471 l 489 1250 l 400 1250 l 492 1471 z "},"Ã":{"ha":917,"x_min":36,"x_max":881,"o":"m 881 0 l 763 0 l 665 254 l 250 254 l 153 0 l 36 0 l 393 917 l 525 917 l 881 0 m 290 358 l 625 358 l 457 810 l 290 358 m 708 1218 q 553 1032 693 1032 q 487 1047 514 1032 q 440 1079 460 1061 q 402 1112 421 1097 q 361 1126 383 1126 q 315 1101 331 1126 q 293 1031 300 1075 l 206 1031 q 251 1169 213 1122 q 363 1217 289 1217 q 427 1202 400 1217 q 474 1169 454 1188 q 513 1137 494 1151 q 551 1122 531 1122 q 599 1148 583 1122 q 621 1218 614 1174 l 708 1218 z "},"Æ":{"ha":1325,"x_min":8,"x_max":1253,"o":"m 738 104 l 1253 104 l 1253 0 l 626 0 l 626 296 l 299 296 l 128 0 l 8 0 l 544 917 l 1232 917 l 1232 813 l 738 813 l 738 517 l 1114 517 l 1114 413 l 738 413 l 738 104 m 360 400 l 626 400 l 626 813 l 599 813 l 360 400 z "},"Ǽ":{"ha":1325,"x_min":8,"x_max":1253,"o":"m 738 104 l 1253 104 l 1253 0 l 626 0 l 626 296 l 299 296 l 128 0 l 8 0 l 544 917 l 1232 917 l 1232 813 l 738 813 l 738 517 l 1114 517 l 1114 413 l 738 413 l 738 104 m 360 400 l 626 400 l 626 813 l 599 813 l 360 400 m 714 1253 l 831 1253 l 711 1032 l 622 1032 l 714 1253 z "},"B":{"ha":907,"x_min":150,"x_max":813,"o":"m 150 0 l 150 917 l 476 917 q 714 849 639 917 q 789 664 789 781 q 749 538 789 594 q 635 467 708 482 l 635 465 q 765 391 717 450 q 813 257 813 332 q 725 70 813 140 q 475 0 638 0 l 150 0 m 261 514 l 478 514 q 672 664 672 514 q 478 813 672 813 l 261 813 l 261 514 m 261 104 l 501 104 q 648 144 600 104 q 696 257 696 185 q 648 370 696 331 q 501 410 600 410 l 261 410 l 261 104 z "},"C":{"ha":953,"x_min":94,"x_max":889,"o":"m 889 235 q 747 51 846 117 q 519 -14 649 -14 q 294 44 389 -14 q 147 207 199 101 q 94 458 94 313 q 147 710 94 604 q 294 873 199 815 q 517 931 389 931 q 740 876 650 931 q 872 717 829 821 l 763 665 q 674 785 732 744 q 525 826 617 826 q 361 783 432 826 q 251 657 290 739 q 211 458 211 575 q 294 188 211 286 q 519 90 376 90 q 679 137 611 90 q 778 276 747 183 l 889 235 z "},"Ć":{"ha":953,"x_min":94,"x_max":889,"o":"m 889 235 q 747 51 846 117 q 519 -14 649 -14 q 294 44 389 -14 q 147 207 199 101 q 94 458 94 313 q 147 710 94 604 q 294 873 199 815 q 517 931 389 931 q 740 876 650 931 q 872 717 829 821 l 763 665 q 674 785 732 744 q 525 826 617 826 q 361 783 432 826 q 251 657 290 739 q 211 458 211 575 q 294 188 211 286 q 519 90 376 90 q 679 137 611 90 q 778 276 747 183 l 889 235 m 549 1253 l 665 1253 l 546 1032 l 457 1032 l 549 1253 z "},"Č":{"ha":953,"x_min":94,"x_max":889,"o":"m 889 235 q 747 51 846 117 q 519 -14 649 -14 q 294 44 389 -14 q 147 207 199 101 q 94 458 94 313 q 147 710 94 604 q 294 873 199 815 q 517 931 389 931 q 740 876 650 931 q 872 717 829 821 l 763 665 q 674 785 732 744 q 525 826 617 826 q 361 783 432 826 q 251 657 290 739 q 211 458 211 575 q 294 188 211 286 q 519 90 376 90 q 679 137 611 90 q 778 276 747 183 l 889 235 m 731 1253 l 578 1032 l 456 1032 l 303 1253 l 406 1253 l 517 1104 l 628 1253 l 731 1253 z "},"Ç":{"ha":953,"x_min":94,"x_max":889,"o":"m 889 235 q 747 51 846 117 q 519 -14 649 -14 q 294 44 389 -14 q 147 207 199 101 q 94 458 94 313 q 147 710 94 604 q 294 873 199 815 q 517 931 389 931 q 740 876 650 931 q 872 717 829 821 l 763 665 q 674 785 732 744 q 525 826 617 826 q 361 783 432 826 q 251 657 290 739 q 211 458 211 575 q 294 188 211 286 q 519 90 376 90 q 679 137 611 90 q 778 276 747 183 l 889 235 m 440 6 l 499 40 q 615 -31 581 14 q 650 -137 650 -76 q 603 -251 650 -204 q 482 -299 556 -299 q 406 -287 439 -299 q 350 -258 374 -276 l 376 -178 q 417 -200 396 -190 q 469 -210 439 -210 q 533 -185 508 -210 q 558 -112 558 -160 q 532 -50 558 -76 q 440 6 506 -24 z "},"Ḉ":{"ha":953,"x_min":94,"x_max":889,"o":"m 889 235 q 747 51 846 117 q 519 -14 649 -14 q 294 44 389 -14 q 147 207 199 101 q 94 458 94 313 q 147 710 94 604 q 294 873 199 815 q 517 931 389 931 q 740 876 650 931 q 872 717 829 821 l 763 665 q 674 785 732 744 q 525 826 617 826 q 361 783 432 826 q 251 657 290 739 q 211 458 211 575 q 294 188 211 286 q 519 90 376 90 q 679 137 611 90 q 778 276 747 183 l 889 235 m 440 6 l 499 40 q 615 -31 581 14 q 650 -137 650 -76 q 603 -251 650 -204 q 482 -299 556 -299 q 406 -287 439 -299 q 350 -258 374 -276 l 376 -178 q 417 -200 396 -190 q 469 -210 439 -210 q 533 -185 508 -210 q 558 -112 558 -160 q 532 -50 558 -76 q 440 6 506 -24 m 549 1253 l 665 1253 l 546 1032 l 457 1032 l 549 1253 z "},"Ĉ":{"ha":953,"x_min":94,"x_max":889,"o":"m 889 235 q 747 51 846 117 q 519 -14 649 -14 q 294 44 389 -14 q 147 207 199 101 q 94 458 94 313 q 147 710 94 604 q 294 873 199 815 q 517 931 389 931 q 740 876 650 931 q 872 717 829 821 l 763 665 q 674 785 732 744 q 525 826 617 826 q 361 783 432 826 q 251 657 290 739 q 211 458 211 575 q 294 188 211 286 q 519 90 376 90 q 679 137 611 90 q 778 276 747 183 l 889 235 m 731 1032 l 628 1032 l 517 1181 l 406 1032 l 303 1032 l 456 1253 l 578 1253 l 731 1032 z "},"Ċ":{"ha":953,"x_min":94,"x_max":889,"o":"m 889 235 q 747 51 846 117 q 519 -14 649 -14 q 294 44 389 -14 q 147 207 199 101 q 94 458 94 313 q 147 710 94 604 q 294 873 199 815 q 517 931 389 931 q 740 876 650 931 q 872 717 829 821 l 763 665 q 674 785 732 744 q 525 826 617 826 q 361 783 432 826 q 251 657 290 739 q 211 458 211 575 q 294 188 211 286 q 519 90 376 90 q 679 137 611 90 q 778 276 747 183 l 889 235 m 517 1217 q 577 1194 554 1217 q 600 1133 600 1171 q 577 1073 600 1096 q 517 1050 554 1050 q 456 1073 479 1050 q 433 1133 433 1096 q 456 1194 433 1171 q 517 1217 479 1217 z "},"D":{"ha":1001,"x_min":150,"x_max":907,"o":"m 446 917 q 784 798 661 917 q 907 458 907 679 q 784 119 907 238 q 446 0 661 0 l 150 0 l 150 917 l 446 917 m 457 104 q 702 198 614 104 q 790 458 790 292 q 702 719 790 625 q 457 813 614 813 l 261 813 l 261 104 l 457 104 z "},"Ǳ":{"ha":1858,"x_min":150,"x_max":1782,"o":"m 446 917 q 784 798 661 917 q 907 458 907 679 q 784 119 907 238 q 446 0 661 0 l 150 0 l 150 917 l 446 917 m 457 104 q 702 198 614 104 q 790 458 790 292 q 702 719 790 625 q 457 813 614 813 l 261 813 l 261 104 l 457 104 m 1782 104 l 1782 0 l 1061 0 l 1061 99 l 1632 813 l 1075 813 l 1075 917 l 1764 917 l 1764 818 l 1193 104 l 1782 104 z "},"Ǆ":{"ha":1858,"x_min":150,"x_max":1782,"o":"m 446 917 q 784 798 661 917 q 907 458 907 679 q 784 119 907 238 q 446 0 661 0 l 150 0 l 150 917 l 446 917 m 457 104 q 702 198 614 104 q 790 458 790 292 q 702 719 790 625 q 457 813 614 813 l 261 813 l 261 104 l 457 104 m 1782 104 l 1782 0 l 1061 0 l 1061 99 l 1632 813 l 1075 813 l 1075 917 l 1764 917 l 1764 818 l 1193 104 l 1782 104 m 1622 1253 l 1469 1032 l 1347 1032 l 1194 1253 l 1297 1253 l 1408 1104 l 1519 1253 l 1622 1253 z "},"Ð":{"ha":1024,"x_min":36,"x_max":929,"o":"m 36 411 l 36 515 l 172 515 l 172 917 l 468 917 q 806 798 683 917 q 929 458 929 679 q 806 119 929 238 q 468 0 683 0 l 172 0 l 172 411 l 36 411 m 479 104 q 724 198 636 104 q 813 458 813 292 q 724 719 813 625 q 479 813 636 813 l 283 813 l 283 515 l 557 515 l 557 411 l 283 411 l 283 104 l 479 104 z "},"Ď":{"ha":1001,"x_min":150,"x_max":907,"o":"m 446 917 q 784 798 661 917 q 907 458 907 679 q 784 119 907 238 q 446 0 661 0 l 150 0 l 150 917 l 446 917 m 457 104 q 702 198 614 104 q 790 458 790 292 q 702 719 790 625 q 457 813 614 813 l 261 813 l 261 104 l 457 104 m 721 1253 l 568 1032 l 446 1032 l 293 1253 l 396 1253 l 507 1104 l 618 1253 l 721 1253 z "},"Đ":{"ha":1024,"x_min":36,"x_max":929,"o":"m 36 411 l 36 515 l 172 515 l 172 917 l 468 917 q 806 798 683 917 q 929 458 929 679 q 806 119 929 238 q 468 0 683 0 l 172 0 l 172 411 l 36 411 m 479 104 q 724 198 636 104 q 813 458 813 292 q 724 719 813 625 q 479 813 636 813 l 283 813 l 283 515 l 557 515 l 557 411 l 283 411 l 283 104 l 479 104 z "},"Ḍ":{"ha":1001,"x_min":150,"x_max":907,"o":"m 446 917 q 784 798 661 917 q 907 458 907 679 q 784 119 907 238 q 446 0 661 0 l 150 0 l 150 917 l 446 917 m 457 104 q 702 198 614 104 q 790 458 790 292 q 702 719 790 625 q 457 813 614 813 l 261 813 l 261 104 l 457 104 m 481 -300 q 420 -277 443 -300 q 397 -217 397 -254 q 420 -156 397 -179 q 481 -133 443 -133 q 541 -156 518 -133 q 564 -217 564 -179 q 541 -277 564 -254 q 481 -300 518 -300 z "},"Ḏ":{"ha":1001,"x_min":150,"x_max":907,"o":"m 446 917 q 784 798 661 917 q 907 458 907 679 q 784 119 907 238 q 446 0 661 0 l 150 0 l 150 917 l 446 917 m 457 104 q 702 198 614 104 q 790 458 790 292 q 702 719 790 625 q 457 813 614 813 l 261 813 l 261 104 l 457 104 z "},"ǲ":{"ha":1735,"x_min":150,"x_max":1658,"o":"m 446 917 q 784 798 661 917 q 907 458 907 679 q 784 119 907 238 q 446 0 661 0 l 150 0 l 150 917 l 446 917 m 457 104 q 702 198 614 104 q 790 458 790 292 q 702 719 790 625 q 457 813 614 813 l 261 813 l 261 104 l 457 104 m 1072 0 l 1072 85 l 1436 511 l 1524 601 l 1400 599 l 1076 599 l 1076 694 l 1647 694 l 1647 610 l 1283 183 l 1197 93 l 1332 96 l 1658 96 l 1658 0 l 1072 0 z "},"ǅ":{"ha":1735,"x_min":150,"x_max":1658,"o":"m 446 917 q 784 798 661 917 q 907 458 907 679 q 784 119 907 238 q 446 0 661 0 l 150 0 l 150 917 l 446 917 m 457 104 q 702 198 614 104 q 790 458 790 292 q 702 719 790 625 q 457 813 614 813 l 261 813 l 261 104 l 457 104 z "},"E":{"ha":886,"x_min":150,"x_max":814,"o":"m 150 0 l 150 917 l 793 917 l 793 813 l 261 813 l 261 517 l 675 517 l 675 413 l 261 413 l 261 104 l 814 104 l 814 0 l 150 0 z "},"É":{"ha":886,"x_min":150,"x_max":814,"o":"m 150 0 l 150 917 l 793 917 l 793 813 l 261 813 l 261 517 l 675 517 l 675 413 l 261 413 l 261 104 l 814 104 l 814 0 l 150 0 m 504 1253 l 621 1253 l 501 1032 l 413 1032 l 504 1253 z "},"Ĕ":{"ha":886,"x_min":150,"x_max":814,"o":"m 150 0 l 150 917 l 793 917 l 793 813 l 261 813 l 261 517 l 675 517 l 675 413 l 261 413 l 261 104 l 814 104 l 814 0 l 150 0 z "},"Ě":{"ha":886,"x_min":150,"x_max":814,"o":"m 150 0 l 150 917 l 793 917 l 793 813 l 261 813 l 261 517 l 675 517 l 675 413 l 261 413 l 261 104 l 814 104 l 814 0 l 150 0 m 686 1253 l 533 1032 l 411 1032 l 258 1253 l 361 1253 l 472 1104 l 583 1253 l 686 1253 z "},"Ḝ":{"ha":886,"x_min":150,"x_max":814,"o":"m 150 0 l 150 917 l 793 917 l 793 813 l 261 813 l 261 517 l 675 517 l 675 413 l 261 413 l 261 104 l 814 104 l 814 0 l 150 0 m 410 6 l 468 40 q 585 -31 550 14 q 619 -137 619 -76 q 572 -251 619 -204 q 451 -299 525 -299 q 376 -287 408 -299 q 319 -258 343 -276 l 346 -178 q 387 -200 365 -190 q 439 -210 408 -210 q 503 -185 478 -210 q 528 -112 528 -160 q 501 -50 528 -76 q 410 6 475 -24 z "},"Ê":{"ha":886,"x_min":150,"x_max":814,"o":"m 150 0 l 150 917 l 793 917 l 793 813 l 261 813 l 261 517 l 675 517 l 675 413 l 261 413 l 261 104 l 814 104 l 814 0 l 150 0 m 686 1032 l 583 1032 l 472 1181 l 361 1032 l 258 1032 l 411 1253 l 533 1253 l 686 1032 z "},"Ế":{"ha":886,"x_min":150,"x_max":829,"o":"m 725 1383 l 829 1383 l 722 1185 l 642 1185 l 725 1383 m 693 1022 l 592 1022 l 472 1182 l 353 1022 l 251 1022 l 410 1254 l 535 1254 l 693 1022 m 150 0 l 150 917 l 793 917 l 793 813 l 261 813 l 261 517 l 675 517 l 675 413 l 261 413 l 261 104 l 814 104 l 814 0 l 150 0 z "},"Ệ":{"ha":886,"x_min":150,"x_max":814,"o":"m 150 0 l 150 917 l 793 917 l 793 813 l 261 813 l 261 517 l 675 517 l 675 413 l 261 413 l 261 104 l 814 104 l 814 0 l 150 0 m 486 -300 q 426 -277 449 -300 q 403 -217 403 -254 q 426 -156 403 -179 q 486 -133 449 -133 q 547 -156 524 -133 q 569 -217 569 -179 q 547 -277 569 -254 q 486 -300 524 -300 m 686 1032 l 583 1032 l 472 1181 l 361 1032 l 258 1032 l 411 1253 l 533 1253 l 686 1032 z "},"Ề":{"ha":886,"x_min":150,"x_max":814,"o":"m 667 1383 l 750 1185 l 669 1185 l 563 1383 l 667 1383 m 693 1022 l 592 1022 l 472 1182 l 353 1022 l 251 1022 l 410 1254 l 535 1254 l 693 1022 m 150 0 l 150 917 l 793 917 l 793 813 l 261 813 l 261 517 l 675 517 l 675 413 l 261 413 l 261 104 l 814 104 l 814 0 l 150 0 z "},"Ể":{"ha":886,"x_min":150,"x_max":821,"o":"m 697 1157 l 658 1201 q 713 1240 694 1221 q 731 1289 731 1258 q 717 1324 731 1310 q 676 1339 703 1339 q 613 1297 636 1339 l 547 1342 q 605 1402 568 1381 q 693 1424 642 1424 q 786 1389 751 1424 q 821 1304 821 1354 q 790 1216 821 1256 q 697 1157 758 1176 m 693 1022 l 592 1022 l 472 1182 l 353 1022 l 251 1022 l 410 1254 l 535 1254 l 693 1022 m 150 0 l 150 917 l 793 917 l 793 813 l 261 813 l 261 517 l 675 517 l 675 413 l 261 413 l 261 104 l 814 104 l 814 0 l 150 0 z "},"Ễ":{"ha":886,"x_min":150,"x_max":814,"o":"m 714 1465 q 667 1334 707 1376 q 563 1292 628 1292 q 498 1305 524 1292 q 454 1335 472 1318 q 419 1365 436 1351 q 379 1378 401 1378 q 337 1357 351 1378 q 315 1294 322 1336 l 228 1294 q 381 1468 242 1468 q 444 1455 418 1468 q 488 1425 469 1442 q 524 1395 507 1408 q 561 1382 540 1382 q 604 1403 589 1382 q 626 1465 619 1424 l 714 1465 m 693 1022 l 592 1022 l 472 1182 l 353 1022 l 251 1022 l 410 1254 l 535 1254 l 693 1022 m 150 0 l 150 917 l 793 917 l 793 813 l 261 813 l 261 517 l 675 517 l 675 413 l 261 413 l 261 104 l 814 104 l 814 0 l 150 0 z "},"Ȅ":{"ha":886,"x_min":150,"x_max":814,"o":"m 150 0 l 150 917 l 793 917 l 793 813 l 261 813 l 261 517 l 675 517 l 675 413 l 261 413 l 261 104 l 814 104 l 814 0 l 150 0 m 301 1253 l 393 1032 l 304 1032 l 185 1253 l 301 1253 m 547 1253 l 639 1032 l 550 1032 l 431 1253 l 547 1253 z "},"Ë":{"ha":886,"x_min":150,"x_max":814,"o":"m 150 0 l 150 917 l 793 917 l 793 813 l 261 813 l 261 517 l 675 517 l 675 413 l 261 413 l 261 104 l 814 104 l 814 0 l 150 0 m 338 1189 q 395 1167 374 1189 q 417 1110 417 1146 q 395 1053 417 1075 q 338 1031 374 1031 q 281 1053 303 1031 q 258 1110 258 1075 q 281 1167 258 1146 q 338 1189 303 1189 m 607 1189 q 665 1167 643 1189 q 686 1110 686 1146 q 665 1053 686 1075 q 607 1031 643 1031 q 550 1053 572 1031 q 528 1110 528 1075 q 550 1167 528 1146 q 607 1189 572 1189 z "},"Ė":{"ha":886,"x_min":150,"x_max":814,"o":"m 150 0 l 150 917 l 793 917 l 793 813 l 261 813 l 261 517 l 675 517 l 675 413 l 261 413 l 261 104 l 814 104 l 814 0 l 150 0 m 472 1217 q 533 1194 510 1217 q 556 1133 556 1171 q 533 1073 556 1096 q 472 1050 510 1050 q 412 1073 435 1050 q 389 1133 389 1096 q 412 1194 389 1171 q 472 1217 435 1217 z "},"Ẹ":{"ha":886,"x_min":150,"x_max":814,"o":"m 150 0 l 150 917 l 793 917 l 793 813 l 261 813 l 261 517 l 675 517 l 675 413 l 261 413 l 261 104 l 814 104 l 814 0 l 150 0 m 486 -300 q 426 -277 449 -300 q 403 -217 403 -254 q 426 -156 403 -179 q 486 -133 449 -133 q 547 -156 524 -133 q 569 -217 569 -179 q 547 -277 569 -254 q 486 -300 524 -300 z "},"È":{"ha":886,"x_min":150,"x_max":814,"o":"m 150 0 l 150 917 l 793 917 l 793 813 l 261 813 l 261 517 l 675 517 l 675 413 l 261 413 l 261 104 l 814 104 l 814 0 l 150 0 m 440 1253 l 532 1032 l 443 1032 l 324 1253 l 440 1253 z "},"Ẻ":{"ha":886,"x_min":150,"x_max":814,"o":"m 150 0 l 150 917 l 793 917 l 793 813 l 261 813 l 261 517 l 675 517 l 675 413 l 261 413 l 261 104 l 814 104 l 814 0 l 150 0 m 474 993 l 435 1038 q 489 1076 471 1057 q 507 1125 507 1094 q 493 1160 507 1146 q 453 1175 479 1175 q 389 1133 413 1175 l 324 1178 q 381 1238 344 1217 q 469 1260 418 1260 q 563 1225 528 1260 q 597 1140 597 1190 q 566 1052 597 1092 q 474 993 535 1013 z "},"Ȇ":{"ha":886,"x_min":150,"x_max":814,"o":"m 150 0 l 150 917 l 793 917 l 793 813 l 261 813 l 261 517 l 675 517 l 675 413 l 261 413 l 261 104 l 814 104 l 814 0 l 150 0 m 678 1024 l 588 1024 q 558 1109 586 1072 q 472 1146 529 1146 q 388 1109 417 1146 q 357 1024 358 1072 l 267 1024 q 324 1172 267 1115 q 472 1229 381 1229 q 621 1172 564 1229 q 678 1024 678 1115 z "},"Ē":{"ha":886,"x_min":150,"x_max":814,"o":"m 150 0 l 150 917 l 793 917 l 793 813 l 261 813 l 261 517 l 675 517 l 675 413 l 261 413 l 261 104 l 814 104 l 814 0 l 150 0 m 700 1143 l 700 1050 l 244 1050 l 244 1143 l 700 1143 z "},"Ḗ":{"ha":886,"x_min":150,"x_max":814,"o":"m 150 0 l 150 917 l 793 917 l 793 813 l 261 813 l 261 517 l 675 517 l 675 413 l 261 413 l 261 104 l 814 104 l 814 0 l 150 0 m 700 1143 l 700 1050 l 244 1050 l 244 1143 l 700 1143 m 504 1476 l 621 1476 l 501 1256 l 413 1256 l 504 1476 z "},"Ḕ":{"ha":886,"x_min":150,"x_max":814,"o":"m 150 0 l 150 917 l 793 917 l 793 813 l 261 813 l 261 517 l 675 517 l 675 413 l 261 413 l 261 104 l 814 104 l 814 0 l 150 0 m 700 1143 l 700 1050 l 244 1050 l 244 1143 l 700 1143 m 440 1476 l 532 1256 l 443 1256 l 324 1476 l 440 1476 z "},"Ę":{"ha":886,"x_min":150,"x_max":815,"o":"m 150 0 l 150 917 l 793 917 l 793 813 l 261 813 l 261 517 l 675 517 l 675 413 l 261 413 l 261 104 l 814 104 l 814 0 q 669 -87 710 -46 q 628 -168 628 -129 q 653 -222 628 -203 q 717 -242 678 -242 q 756 -238 735 -242 q 793 -225 776 -235 l 815 -296 q 765 -315 796 -308 q 703 -321 733 -321 q 583 -282 628 -321 q 538 -183 538 -243 q 573 -78 538 -121 q 676 0 608 -36 l 150 0 z "},"Ẽ":{"ha":886,"x_min":150,"x_max":814,"o":"m 150 0 l 150 917 l 793 917 l 793 813 l 261 813 l 261 517 l 675 517 l 675 413 l 261 413 l 261 104 l 814 104 l 814 0 l 150 0 m 722 1218 q 567 1032 707 1032 q 501 1047 528 1032 q 454 1079 474 1061 q 416 1112 435 1097 q 375 1126 397 1126 q 329 1101 344 1126 q 307 1031 314 1075 l 219 1031 q 265 1169 226 1122 q 376 1217 303 1217 q 441 1202 414 1217 q 488 1169 468 1188 q 526 1137 508 1151 q 565 1122 544 1122 q 613 1148 597 1122 q 635 1218 628 1174 l 722 1218 z "},"F":{"ha":847,"x_min":150,"x_max":792,"o":"m 792 813 l 261 813 l 261 517 l 675 517 l 675 413 l 261 413 l 261 0 l 150 0 l 150 917 l 792 917 l 792 813 z "},"G":{"ha":1006,"x_min":94,"x_max":896,"o":"m 519 -14 q 294 44 389 -14 q 147 207 199 101 q 94 458 94 313 q 149 710 94 604 q 303 873 204 815 q 529 931 401 931 q 751 879 665 931 q 889 721 836 828 l 788 665 q 691 785 757 744 q 529 826 625 826 q 365 783 436 826 q 252 656 293 739 q 211 458 211 574 q 291 188 211 286 q 524 90 371 90 q 661 116 600 90 q 758 194 722 142 q 794 326 794 247 l 794 358 l 503 358 l 503 463 l 896 463 l 896 0 l 808 0 l 804 124 q 691 22 763 57 q 519 -14 619 -14 z "},"Ğ":{"ha":1006,"x_min":94,"x_max":896,"o":"m 519 -14 q 294 44 389 -14 q 147 207 199 101 q 94 458 94 313 q 149 710 94 604 q 303 873 204 815 q 529 931 401 931 q 751 879 665 931 q 889 721 836 828 l 788 665 q 691 785 757 744 q 529 826 625 826 q 365 783 436 826 q 252 656 293 739 q 211 458 211 574 q 291 188 211 286 q 524 90 371 90 q 661 116 600 90 q 758 194 722 142 q 794 326 794 247 l 794 358 l 503 358 l 503 463 l 896 463 l 896 0 l 808 0 l 804 124 q 691 22 763 57 q 519 -14 619 -14 z "},"Ǧ":{"ha":1006,"x_min":94,"x_max":896,"o":"m 519 -14 q 294 44 389 -14 q 147 207 199 101 q 94 458 94 313 q 149 710 94 604 q 303 873 204 815 q 529 931 401 931 q 751 879 665 931 q 889 721 836 828 l 788 665 q 691 785 757 744 q 529 826 625 826 q 365 783 436 826 q 252 656 293 739 q 211 458 211 574 q 291 188 211 286 q 524 90 371 90 q 661 116 600 90 q 758 194 722 142 q 794 326 794 247 l 794 358 l 503 358 l 503 463 l 896 463 l 896 0 l 808 0 l 804 124 q 691 22 763 57 q 519 -14 619 -14 m 732 1253 l 579 1032 l 457 1032 l 304 1253 l 407 1253 l 518 1104 l 629 1253 l 732 1253 z "},"Ĝ":{"ha":1006,"x_min":94,"x_max":896,"o":"m 519 -14 q 294 44 389 -14 q 147 207 199 101 q 94 458 94 313 q 149 710 94 604 q 303 873 204 815 q 529 931 401 931 q 751 879 665 931 q 889 721 836 828 l 788 665 q 691 785 757 744 q 529 826 625 826 q 365 783 436 826 q 252 656 293 739 q 211 458 211 574 q 291 188 211 286 q 524 90 371 90 q 661 116 600 90 q 758 194 722 142 q 794 326 794 247 l 794 358 l 503 358 l 503 463 l 896 463 l 896 0 l 808 0 l 804 124 q 691 22 763 57 q 519 -14 619 -14 m 732 1032 l 629 1032 l 518 1181 l 407 1032 l 304 1032 l 457 1253 l 579 1253 l 732 1032 z "},"Ģ":{"ha":1006,"x_min":94,"x_max":896,"o":"m 519 -14 q 294 44 389 -14 q 147 207 199 101 q 94 458 94 313 q 149 710 94 604 q 303 873 204 815 q 529 931 401 931 q 751 879 665 931 q 889 721 836 828 l 788 665 q 691 785 757 744 q 529 826 625 826 q 365 783 436 826 q 252 656 293 739 q 211 458 211 574 q 291 188 211 286 q 524 90 371 90 q 661 116 600 90 q 758 194 722 142 q 794 326 794 247 l 794 358 l 503 358 l 503 463 l 896 463 l 896 0 l 808 0 l 804 124 q 691 22 763 57 q 519 -14 619 -14 m 614 -106 l 524 -329 l 436 -329 l 497 -106 l 614 -106 z "},"Ġ":{"ha":1006,"x_min":94,"x_max":896,"o":"m 519 -14 q 294 44 389 -14 q 147 207 199 101 q 94 458 94 313 q 149 710 94 604 q 303 873 204 815 q 529 931 401 931 q 751 879 665 931 q 889 721 836 828 l 788 665 q 691 785 757 744 q 529 826 625 826 q 365 783 436 826 q 252 656 293 739 q 211 458 211 574 q 291 188 211 286 q 524 90 371 90 q 661 116 600 90 q 758 194 722 142 q 794 326 794 247 l 794 358 l 503 358 l 503 463 l 896 463 l 896 0 l 808 0 l 804 124 q 691 22 763 57 q 519 -14 619 -14 m 518 1217 q 578 1194 556 1217 q 601 1133 601 1171 q 578 1073 601 1096 q 518 1050 556 1050 q 458 1073 481 1050 q 435 1133 435 1096 q 458 1194 435 1171 q 518 1217 481 1217 z "},"Ḡ":{"ha":1006,"x_min":94,"x_max":896,"o":"m 519 -14 q 294 44 389 -14 q 147 207 199 101 q 94 458 94 313 q 149 710 94 604 q 303 873 204 815 q 529 931 401 931 q 751 879 665 931 q 889 721 836 828 l 788 665 q 691 785 757 744 q 529 826 625 826 q 365 783 436 826 q 252 656 293 739 q 211 458 211 574 q 291 188 211 286 q 524 90 371 90 q 661 116 600 90 q 758 194 722 142 q 794 326 794 247 l 794 358 l 503 358 l 503 463 l 896 463 l 896 0 l 808 0 l 804 124 q 691 22 763 57 q 519 -14 619 -14 m 746 1143 l 746 1050 l 290 1050 l 290 1143 l 746 1143 z "},"H":{"ha":1019,"x_min":150,"x_max":869,"o":"m 261 917 l 261 517 l 758 517 l 758 917 l 869 917 l 869 0 l 758 0 l 758 413 l 261 413 l 261 0 l 150 0 l 150 917 l 261 917 z "},"Ħ":{"ha":1019,"x_min":42,"x_max":978,"o":"m 261 917 l 261 517 l 758 517 l 758 917 l 869 917 l 869 0 l 758 0 l 758 413 l 261 413 l 261 0 l 150 0 l 150 917 l 261 917 m 978 763 l 978 665 l 42 665 l 42 763 l 978 763 z "},"Ḫ":{"ha":1019,"x_min":150,"x_max":869,"o":"m 261 917 l 261 517 l 758 517 l 758 917 l 869 917 l 869 0 l 758 0 l 758 413 l 261 413 l 261 0 l 150 0 l 150 917 l 261 917 z "},"Ĥ":{"ha":1019,"x_min":150,"x_max":869,"o":"m 261 917 l 261 517 l 758 517 l 758 917 l 869 917 l 869 0 l 758 0 l 758 413 l 261 413 l 261 0 l 150 0 l 150 917 l 261 917 m 724 1032 l 621 1032 l 510 1181 l 399 1032 l 296 1032 l 449 1253 l 571 1253 l 724 1032 z "},"Ḥ":{"ha":1019,"x_min":150,"x_max":869,"o":"m 261 917 l 261 517 l 758 517 l 758 917 l 869 917 l 869 0 l 758 0 l 758 413 l 261 413 l 261 0 l 150 0 l 150 917 l 261 917 m 510 -300 q 449 -277 472 -300 q 426 -217 426 -254 q 449 -156 426 -179 q 510 -133 472 -133 q 570 -156 547 -133 q 593 -217 593 -179 q 570 -277 593 -254 q 510 -300 547 -300 z "},"I":{"ha":411,"x_min":150,"x_max":261,"o":"m 261 917 l 261 0 l 150 0 l 150 917 l 261 917 z "},"Ĳ":{"ha":1197,"x_min":150,"x_max":1057,"o":"m 261 917 l 261 0 l 150 0 l 150 917 l 261 917 m 1057 917 l 1057 314 q 974 73 1057 160 q 746 -14 892 -14 q 521 72 592 -14 q 476 303 450 158 l 579 324 q 601 148 564 206 q 742 90 638 90 q 903 155 860 90 q 946 342 946 219 l 946 917 l 1057 917 z "},"Í":{"ha":411,"x_min":150,"x_max":368,"o":"m 261 917 l 261 0 l 150 0 l 150 917 l 261 917 m 251 1253 l 368 1253 l 249 1032 l 160 1032 l 251 1253 z "},"Ĭ":{"ha":411,"x_min":0,"x_max":411,"o":"m 261 917 l 261 0 l 150 0 l 150 917 l 261 917 z "},"Î":{"ha":411,"x_min":-8,"x_max":419,"o":"m 261 917 l 261 0 l 150 0 l 150 917 l 261 917 m 419 1032 l 317 1032 l 206 1181 l 94 1032 l -8 1032 l 144 1253 l 267 1253 l 419 1032 z "},"Ȉ":{"ha":411,"x_min":-82,"x_max":372,"o":"m 261 917 l 261 0 l 150 0 l 150 917 l 261 917 m 35 1253 l 126 1032 l 38 1032 l -82 1253 l 35 1253 m 281 1253 l 372 1032 l 283 1032 l 164 1253 l 281 1253 z "},"Ï":{"ha":411,"x_min":7,"x_max":404,"o":"m 86 1189 q 144 1167 122 1189 q 165 1110 165 1146 q 144 1053 165 1075 q 86 1031 122 1031 q 29 1053 51 1031 q 7 1110 7 1075 q 29 1167 7 1146 q 86 1189 51 1189 m 325 1189 q 383 1167 361 1189 q 404 1110 404 1146 q 383 1053 404 1075 q 325 1031 361 1031 q 268 1053 290 1031 q 246 1110 246 1075 q 268 1167 246 1146 q 325 1189 290 1189 m 261 917 l 261 0 l 150 0 l 150 917 l 261 917 z "},"Ḯ":{"ha":411,"x_min":-8,"x_max":419,"o":"m 261 917 l 261 0 l 150 0 l 150 917 l 261 917 m 71 1189 q 128 1167 107 1189 q 150 1110 150 1146 q 128 1053 150 1075 q 71 1031 107 1031 q 14 1053 36 1031 q -8 1110 -8 1075 q 14 1167 -8 1146 q 71 1189 36 1189 m 340 1189 q 398 1167 376 1189 q 419 1110 419 1146 q 398 1053 419 1075 q 340 1031 376 1031 q 283 1053 306 1031 q 261 1110 261 1075 q 283 1167 261 1146 q 340 1189 306 1189 m 238 1488 l 354 1488 l 235 1267 l 146 1267 l 238 1488 z "},"İ":{"ha":411,"x_min":122,"x_max":289,"o":"m 261 917 l 261 0 l 150 0 l 150 917 l 261 917 m 206 1217 q 266 1194 243 1217 q 289 1133 289 1171 q 266 1073 289 1096 q 206 1050 243 1050 q 145 1073 168 1050 q 122 1133 122 1096 q 145 1194 122 1171 q 206 1217 168 1217 z "},"Ị":{"ha":411,"x_min":122,"x_max":289,"o":"m 261 917 l 261 0 l 150 0 l 150 917 l 261 917 m 206 -300 q 145 -277 168 -300 q 122 -217 122 -254 q 145 -156 122 -179 q 206 -133 168 -133 q 266 -156 243 -133 q 289 -217 289 -179 q 266 -277 289 -254 q 206 -300 243 -300 z "},"Ì":{"ha":411,"x_min":43,"x_max":261,"o":"m 261 917 l 261 0 l 150 0 l 150 917 l 261 917 m 160 1253 l 251 1032 l 163 1032 l 43 1253 l 160 1253 z "},"Ỉ":{"ha":411,"x_min":57,"x_max":331,"o":"m 261 917 l 261 0 l 150 0 l 150 917 l 261 917 m 207 993 l 168 1038 q 222 1076 204 1057 q 240 1125 240 1094 q 226 1160 240 1146 q 186 1175 213 1175 q 122 1133 146 1175 l 57 1178 q 115 1238 78 1217 q 203 1260 151 1260 q 296 1225 261 1260 q 331 1140 331 1190 q 299 1052 331 1092 q 207 993 268 1013 z "},"Ȋ":{"ha":411,"x_min":0,"x_max":411,"o":"m 261 917 l 261 0 l 150 0 l 150 917 l 261 917 m 411 1024 l 321 1024 q 291 1109 319 1072 q 206 1146 263 1146 q 121 1109 150 1146 q 90 1024 92 1072 l 0 1024 q 57 1172 0 1115 q 206 1229 114 1229 q 354 1172 297 1229 q 411 1024 411 1115 z "},"Ī":{"ha":411,"x_min":56,"x_max":356,"o":"m 356 1143 l 356 1050 l 56 1050 l 56 1143 l 356 1143 m 261 917 l 261 0 l 150 0 l 150 917 l 261 917 z "},"Į":{"ha":411,"x_min":22,"x_max":282,"o":"m 178 -321 q 67 -284 113 -321 q 22 -183 22 -247 q 56 -77 22 -119 q 150 1 90 -35 l 150 917 l 261 917 l 261 0 q 145 -88 178 -47 q 113 -168 113 -129 q 133 -222 113 -201 q 192 -242 153 -242 q 228 -237 208 -242 q 260 -226 247 -233 l 282 -297 q 237 -314 264 -307 q 178 -321 210 -321 z "},"Ĩ":{"ha":411,"x_min":-47,"x_max":456,"o":"m 261 917 l 261 0 l 150 0 l 150 917 l 261 917 m 456 1218 q 300 1032 440 1032 q 234 1047 261 1032 q 188 1079 207 1061 q 149 1112 168 1097 q 108 1126 131 1126 q 63 1101 78 1126 q 40 1031 47 1075 l -47 1031 q -2 1169 -40 1122 q 110 1217 36 1217 q 174 1202 147 1217 q 222 1169 201 1188 q 260 1137 242 1151 q 299 1122 278 1122 q 346 1148 331 1122 q 368 1218 361 1174 l 456 1218 z "},"J":{"ha":786,"x_min":39,"x_max":646,"o":"m 646 917 l 646 314 q 563 73 646 160 q 335 -14 481 -14 q 110 72 181 -14 q 65 303 39 158 l 168 324 q 190 148 153 206 q 331 90 226 90 q 492 155 449 90 q 535 342 535 219 l 535 917 l 646 917 z "},"Ĵ":{"ha":786,"x_min":39,"x_max":804,"o":"m 646 917 l 646 314 q 563 73 646 160 q 335 -14 481 -14 q 110 72 181 -14 q 65 303 39 158 l 168 324 q 190 148 153 206 q 331 90 226 90 q 492 155 449 90 q 535 342 535 219 l 535 917 l 646 917 m 804 1032 l 701 1032 l 590 1181 l 479 1032 l 376 1032 l 529 1253 l 651 1253 l 804 1032 z "},"K":{"ha":911,"x_min":150,"x_max":872,"o":"m 261 917 l 261 444 l 722 917 l 868 917 l 503 543 l 872 0 l 739 0 l 425 461 l 261 294 l 261 0 l 150 0 l 150 917 l 261 917 z "},"Ķ":{"ha":911,"x_min":150,"x_max":872,"o":"m 261 917 l 261 444 l 722 917 l 868 917 l 503 543 l 872 0 l 739 0 l 425 461 l 261 294 l 261 0 l 150 0 l 150 917 l 261 917 m 569 -106 l 479 -329 l 392 -329 l 453 -106 l 569 -106 z "},"L":{"ha":831,"x_min":150,"x_max":786,"o":"m 261 104 l 786 104 l 786 0 l 150 0 l 150 917 l 261 917 l 261 104 z "},"Ǉ":{"ha":1617,"x_min":150,"x_max":1476,"o":"m 261 104 l 786 104 l 786 0 l 150 0 l 150 917 l 261 917 l 261 104 m 1476 917 l 1476 314 q 1394 73 1476 160 q 1165 -14 1311 -14 q 940 72 1011 -14 q 896 303 869 158 l 999 324 q 1020 148 983 206 q 1161 90 1057 90 q 1322 155 1279 90 q 1365 342 1365 219 l 1365 917 l 1476 917 z "},"Ĺ":{"ha":831,"x_min":146,"x_max":786,"o":"m 261 104 l 786 104 l 786 0 l 150 0 l 150 917 l 261 917 l 261 104 m 238 1253 l 354 1253 l 235 1032 l 146 1032 l 238 1253 z "},"Ľ":{"ha":831,"x_min":150,"x_max":786,"o":"m 564 917 l 507 643 l 431 643 l 458 917 l 564 917 m 261 104 l 786 104 l 786 0 l 150 0 l 150 917 l 261 917 l 261 104 z "},"Ļ":{"ha":831,"x_min":150,"x_max":786,"o":"m 261 104 l 786 104 l 786 0 l 150 0 l 150 917 l 261 917 l 261 104 m 554 -106 l 464 -329 l 376 -329 l 438 -106 l 554 -106 z "},"Ŀ":{"ha":858,"x_min":150,"x_max":786,"o":"m 261 104 l 786 104 l 786 0 l 150 0 l 150 917 l 261 917 l 261 104 m 644 582 q 710 557 685 582 q 735 492 735 532 q 710 426 735 451 q 644 401 685 401 q 579 426 604 401 q 554 492 554 451 q 579 557 554 532 q 644 582 604 582 z "},"Ḷ":{"ha":831,"x_min":150,"x_max":786,"o":"m 261 104 l 786 104 l 786 0 l 150 0 l 150 917 l 261 917 l 261 104 m 503 -300 q 442 -277 465 -300 q 419 -217 419 -254 q 442 -156 419 -179 q 503 -133 465 -133 q 563 -156 540 -133 q 586 -217 586 -179 q 563 -277 586 -254 q 503 -300 540 -300 z "},"ǈ":{"ha":1200,"x_min":150,"x_max":1099,"o":"m 261 104 l 786 104 l 786 0 l 150 0 l 150 917 l 261 917 l 261 104 m 1015 828 q 955 851 978 828 q 932 911 932 874 q 955 972 932 949 q 1015 994 978 994 q 1076 972 1053 994 q 1099 911 1099 949 q 1076 851 1099 874 q 1015 828 1053 828 m 1071 694 l 1071 -71 q 1038 -207 1071 -157 q 956 -278 1004 -257 q 860 -299 907 -299 q 781 -285 817 -299 q 721 -253 744 -272 l 744 -147 q 793 -178 764 -165 q 858 -190 822 -190 q 931 -161 903 -190 q 960 -60 960 -132 l 960 694 l 1071 694 z "},"Ḻ":{"ha":831,"x_min":150,"x_max":786,"o":"m 261 104 l 786 104 l 786 0 l 150 0 l 150 917 l 261 917 l 261 104 z "},"Ł":{"ha":872,"x_min":46,"x_max":828,"o":"m 303 104 l 828 104 l 828 0 l 192 0 l 192 354 l 46 272 l 46 388 l 192 469 l 192 917 l 303 917 l 303 531 l 549 668 l 549 553 l 303 415 l 303 104 z "},"M":{"ha":1186,"x_min":150,"x_max":1036,"o":"m 1036 917 l 1036 0 l 931 0 l 931 576 l 943 818 l 942 818 l 640 0 l 546 0 l 244 818 l 243 818 l 256 576 l 256 0 l 150 0 l 150 917 l 321 917 l 522 360 l 592 131 l 594 131 l 665 358 l 865 917 l 1036 917 z "},"Ṃ":{"ha":1186,"x_min":150,"x_max":1036,"o":"m 1036 917 l 1036 0 l 931 0 l 931 576 l 943 818 l 942 818 l 640 0 l 546 0 l 244 818 l 243 818 l 256 576 l 256 0 l 150 0 l 150 917 l 321 917 l 522 360 l 592 131 l 594 131 l 665 358 l 865 917 l 1036 917 m 593 -300 q 533 -277 556 -300 q 510 -217 510 -254 q 533 -156 510 -179 q 593 -133 556 -133 q 653 -156 631 -133 q 676 -217 676 -179 q 653 -277 676 -254 q 593 -300 631 -300 z "},"N":{"ha":1019,"x_min":150,"x_max":869,"o":"m 869 917 l 869 0 l 732 0 l 349 614 l 251 786 l 250 786 l 256 647 l 256 0 l 150 0 l 150 917 l 288 917 l 669 306 l 768 129 l 769 129 l 764 269 l 764 917 l 869 917 z "},"Ǌ":{"ha":1806,"x_min":150,"x_max":1665,"o":"m 869 917 l 869 0 l 732 0 l 349 614 l 251 786 l 250 786 l 256 647 l 256 0 l 150 0 l 150 917 l 288 917 l 669 306 l 768 129 l 769 129 l 764 269 l 764 917 l 869 917 m 1665 917 l 1665 314 q 1583 73 1665 160 q 1354 -14 1500 -14 q 1129 72 1200 -14 q 1085 303 1058 158 l 1188 324 q 1209 148 1172 206 q 1350 90 1246 90 q 1511 155 1468 90 q 1554 342 1554 219 l 1554 917 l 1665 917 z "},"Ń":{"ha":1019,"x_min":150,"x_max":869,"o":"m 869 917 l 869 0 l 732 0 l 349 614 l 251 786 l 250 786 l 256 647 l 256 0 l 150 0 l 150 917 l 288 917 l 669 306 l 768 129 l 769 129 l 764 269 l 764 917 l 869 917 m 547 1253 l 664 1253 l 544 1032 l 456 1032 l 547 1253 z "},"Ň":{"ha":1019,"x_min":150,"x_max":869,"o":"m 869 917 l 869 0 l 732 0 l 349 614 l 251 786 l 250 786 l 256 647 l 256 0 l 150 0 l 150 917 l 288 917 l 669 306 l 768 129 l 769 129 l 764 269 l 764 917 l 869 917 m 729 1253 l 576 1032 l 454 1032 l 301 1253 l 404 1253 l 515 1104 l 626 1253 l 729 1253 z "},"Ņ":{"ha":1019,"x_min":150,"x_max":869,"o":"m 869 917 l 869 0 l 732 0 l 349 614 l 251 786 l 250 786 l 256 647 l 256 0 l 150 0 l 150 917 l 288 917 l 669 306 l 768 129 l 769 129 l 764 269 l 764 917 l 869 917 m 603 -106 l 513 -329 l 425 -329 l 486 -106 l 603 -106 z "},"Ṅ":{"ha":1019,"x_min":150,"x_max":869,"o":"m 869 917 l 869 0 l 732 0 l 349 614 l 251 786 l 250 786 l 256 647 l 256 0 l 150 0 l 150 917 l 288 917 l 669 306 l 768 129 l 769 129 l 764 269 l 764 917 l 869 917 m 515 1217 q 576 1194 553 1217 q 599 1133 599 1171 q 576 1073 599 1096 q 515 1050 553 1050 q 455 1073 478 1050 q 432 1133 432 1096 q 455 1194 432 1171 q 515 1217 478 1217 z "},"Ṇ":{"ha":1019,"x_min":150,"x_max":869,"o":"m 869 917 l 869 0 l 732 0 l 349 614 l 251 786 l 250 786 l 256 647 l 256 0 l 150 0 l 150 917 l 288 917 l 669 306 l 768 129 l 769 129 l 764 269 l 764 917 l 869 917 m 551 -300 q 491 -277 514 -300 q 468 -217 468 -254 q 491 -156 468 -179 q 551 -133 514 -133 q 612 -156 589 -133 q 635 -217 635 -179 q 612 -277 635 -254 q 551 -300 589 -300 z "},"Ŋ":{"ha":1019,"x_min":150,"x_max":869,"o":"m 658 -299 q 579 -285 615 -299 q 519 -253 543 -272 l 543 -147 q 592 -178 563 -165 q 657 -190 621 -190 q 733 -161 701 -190 q 764 -60 764 -132 l 764 4 l 349 614 l 251 794 l 250 794 l 256 647 l 256 0 l 150 0 l 150 917 l 288 917 l 704 306 l 764 194 l 765 194 l 764 917 l 869 917 l 869 -71 q 836 -207 869 -157 q 754 -278 803 -257 q 658 -299 706 -299 z "},"ǋ":{"ha":1389,"x_min":150,"x_max":1288,"o":"m 869 917 l 869 0 l 732 0 l 349 614 l 251 786 l 250 786 l 256 647 l 256 0 l 150 0 l 150 917 l 288 917 l 669 306 l 768 129 l 769 129 l 764 269 l 764 917 l 869 917 m 1204 828 q 1144 851 1167 828 q 1121 911 1121 874 q 1144 972 1121 949 q 1204 994 1167 994 q 1265 972 1242 994 q 1288 911 1288 949 q 1265 851 1288 874 q 1204 828 1242 828 m 1260 694 l 1260 -71 q 1226 -207 1260 -157 q 1144 -278 1193 -257 q 1049 -299 1096 -299 q 969 -285 1006 -299 q 910 -253 933 -272 l 933 -147 q 982 -178 953 -165 q 1047 -190 1011 -190 q 1120 -161 1092 -190 q 1149 -60 1149 -132 l 1149 694 l 1260 694 z "},"Ṉ":{"ha":1019,"x_min":150,"x_max":869,"o":"m 869 917 l 869 0 l 732 0 l 349 614 l 251 786 l 250 786 l 256 647 l 256 0 l 150 0 l 150 917 l 288 917 l 669 306 l 768 129 l 769 129 l 764 269 l 764 917 l 869 917 z "},"Ñ":{"ha":1019,"x_min":150,"x_max":869,"o":"m 869 917 l 869 0 l 732 0 l 349 614 l 251 786 l 250 786 l 256 647 l 256 0 l 150 0 l 150 917 l 288 917 l 669 306 l 768 129 l 769 129 l 764 269 l 764 917 l 869 917 m 765 1218 q 610 1032 750 1032 q 544 1047 571 1032 q 497 1079 517 1061 q 459 1112 478 1097 q 418 1126 440 1126 q 372 1101 388 1126 q 350 1031 357 1075 l 263 1031 q 308 1169 269 1122 q 419 1217 346 1217 q 484 1202 457 1217 q 531 1169 511 1188 q 569 1137 551 1151 q 608 1122 588 1122 q 656 1148 640 1122 q 678 1218 671 1174 l 765 1218 z "},"O":{"ha":1039,"x_min":94,"x_max":944,"o":"m 519 931 q 745 873 650 931 q 892 710 840 815 q 944 458 944 604 q 892 207 944 313 q 745 44 840 101 q 519 -14 650 -14 q 294 44 389 -14 q 147 207 199 101 q 94 458 94 313 q 147 710 94 604 q 294 873 199 815 q 519 931 389 931 m 519 826 q 294 729 376 826 q 211 458 211 632 q 294 188 211 286 q 519 90 376 90 q 745 188 663 90 q 828 458 828 286 q 745 729 828 632 q 519 826 663 826 z "},"Ó":{"ha":1039,"x_min":94,"x_max":944,"o":"m 519 931 q 745 873 650 931 q 892 710 840 815 q 944 458 944 604 q 892 207 944 313 q 745 44 840 101 q 519 -14 650 -14 q 294 44 389 -14 q 147 207 199 101 q 94 458 94 313 q 147 710 94 604 q 294 873 199 815 q 519 931 389 931 m 519 826 q 294 729 376 826 q 211 458 211 632 q 294 188 211 286 q 519 90 376 90 q 745 188 663 90 q 828 458 828 286 q 745 729 828 632 q 519 826 663 826 m 551 1253 l 668 1253 l 549 1032 l 460 1032 l 551 1253 z "},"Ŏ":{"ha":1039,"x_min":94,"x_max":944,"o":"m 519 931 q 745 873 650 931 q 892 710 840 815 q 944 458 944 604 q 892 207 944 313 q 745 44 840 101 q 519 -14 650 -14 q 294 44 389 -14 q 147 207 199 101 q 94 458 94 313 q 147 710 94 604 q 294 873 199 815 q 519 931 389 931 m 519 826 q 294 729 376 826 q 211 458 211 632 q 294 188 211 286 q 519 90 376 90 q 745 188 663 90 q 828 458 828 286 q 745 729 828 632 q 519 826 663 826 z "},"Ô":{"ha":1039,"x_min":94,"x_max":944,"o":"m 519 931 q 745 873 650 931 q 892 710 840 815 q 944 458 944 604 q 892 207 944 313 q 745 44 840 101 q 519 -14 650 -14 q 294 44 389 -14 q 147 207 199 101 q 94 458 94 313 q 147 710 94 604 q 294 873 199 815 q 519 931 389 931 m 519 826 q 294 729 376 826 q 211 458 211 632 q 294 188 211 286 q 519 90 376 90 q 745 188 663 90 q 828 458 828 286 q 745 729 828 632 q 519 826 663 826 m 733 1032 l 631 1032 l 519 1181 l 408 1032 l 306 1032 l 458 1253 l 581 1253 l 733 1032 z "},"Ố":{"ha":1039,"x_min":94,"x_max":944,"o":"m 772 1383 l 876 1383 l 769 1185 l 689 1185 l 772 1383 m 740 1022 l 639 1022 l 519 1182 l 400 1022 l 299 1022 l 457 1254 l 582 1254 l 740 1022 m 519 931 q 745 873 650 931 q 892 710 840 815 q 944 458 944 604 q 892 207 944 313 q 745 44 840 101 q 519 -14 650 -14 q 294 44 389 -14 q 147 207 199 101 q 94 458 94 313 q 147 710 94 604 q 294 873 199 815 q 519 931 389 931 m 519 826 q 294 729 376 826 q 211 458 211 632 q 294 188 211 286 q 519 90 376 90 q 745 188 663 90 q 828 458 828 286 q 745 729 828 632 q 519 826 663 826 z "},"Ộ":{"ha":1039,"x_min":94,"x_max":944,"o":"m 519 931 q 745 873 650 931 q 892 710 840 815 q 944 458 944 604 q 892 207 944 313 q 745 44 840 101 q 519 -14 650 -14 q 294 44 389 -14 q 147 207 199 101 q 94 458 94 313 q 147 710 94 604 q 294 873 199 815 q 519 931 389 931 m 519 826 q 294 729 376 826 q 211 458 211 632 q 294 188 211 286 q 519 90 376 90 q 745 188 663 90 q 828 458 828 286 q 745 729 828 632 q 519 826 663 826 m 519 -300 q 459 -277 482 -300 q 436 -217 436 -254 q 459 -156 436 -179 q 519 -133 482 -133 q 580 -156 557 -133 q 603 -217 603 -179 q 580 -277 603 -254 q 519 -300 557 -300 m 733 1032 l 631 1032 l 519 1181 l 408 1032 l 306 1032 l 458 1253 l 581 1253 l 733 1032 z "},"Ồ":{"ha":1039,"x_min":94,"x_max":944,"o":"m 714 1383 l 797 1185 l 717 1185 l 610 1383 l 714 1383 m 740 1022 l 639 1022 l 519 1182 l 400 1022 l 299 1022 l 457 1254 l 582 1254 l 740 1022 m 519 931 q 745 873 650 931 q 892 710 840 815 q 944 458 944 604 q 892 207 944 313 q 745 44 840 101 q 519 -14 650 -14 q 294 44 389 -14 q 147 207 199 101 q 94 458 94 313 q 147 710 94 604 q 294 873 199 815 q 519 931 389 931 m 519 826 q 294 729 376 826 q 211 458 211 632 q 294 188 211 286 q 519 90 376 90 q 745 188 663 90 q 828 458 828 286 q 745 729 828 632 q 519 826 663 826 z "},"Ổ":{"ha":1039,"x_min":94,"x_max":944,"o":"m 744 1157 l 706 1201 q 760 1240 742 1221 q 778 1289 778 1258 q 764 1324 778 1310 q 724 1339 750 1339 q 660 1297 683 1339 l 594 1342 q 652 1402 615 1381 q 740 1424 689 1424 q 833 1389 799 1424 q 868 1304 868 1354 q 837 1216 868 1256 q 744 1157 806 1176 m 740 1022 l 639 1022 l 519 1182 l 400 1022 l 299 1022 l 457 1254 l 582 1254 l 740 1022 m 519 931 q 745 873 650 931 q 892 710 840 815 q 944 458 944 604 q 892 207 944 313 q 745 44 840 101 q 519 -14 650 -14 q 294 44 389 -14 q 147 207 199 101 q 94 458 94 313 q 147 710 94 604 q 294 873 199 815 q 519 931 389 931 m 519 826 q 294 729 376 826 q 211 458 211 632 q 294 188 211 286 q 519 90 376 90 q 745 188 663 90 q 828 458 828 286 q 745 729 828 632 q 519 826 663 826 z "},"Ỗ":{"ha":1039,"x_min":94,"x_max":944,"o":"m 761 1465 q 715 1334 754 1376 q 610 1292 675 1292 q 545 1305 571 1292 q 501 1335 519 1318 q 466 1365 483 1351 q 426 1378 449 1378 q 384 1357 399 1378 q 363 1294 369 1336 l 275 1294 q 428 1468 289 1468 q 491 1455 465 1468 q 535 1425 517 1442 q 571 1395 554 1408 q 608 1382 588 1382 q 651 1403 636 1382 q 674 1465 667 1424 l 761 1465 m 740 1022 l 639 1022 l 519 1182 l 400 1022 l 299 1022 l 457 1254 l 582 1254 l 740 1022 m 519 931 q 745 873 650 931 q 892 710 840 815 q 944 458 944 604 q 892 207 944 313 q 745 44 840 101 q 519 -14 650 -14 q 294 44 389 -14 q 147 207 199 101 q 94 458 94 313 q 147 710 94 604 q 294 873 199 815 q 519 931 389 931 m 519 826 q 294 729 376 826 q 211 458 211 632 q 294 188 211 286 q 519 90 376 90 q 745 188 663 90 q 828 458 828 286 q 745 729 828 632 q 519 826 663 826 z "},"Ȍ":{"ha":1039,"x_min":94,"x_max":944,"o":"m 519 931 q 745 873 650 931 q 892 710 840 815 q 944 458 944 604 q 892 207 944 313 q 745 44 840 101 q 519 -14 650 -14 q 294 44 389 -14 q 147 207 199 101 q 94 458 94 313 q 147 710 94 604 q 294 873 199 815 q 519 931 389 931 m 519 826 q 294 729 376 826 q 211 458 211 632 q 294 188 211 286 q 519 90 376 90 q 745 188 663 90 q 828 458 828 286 q 745 729 828 632 q 519 826 663 826 m 349 1253 l 440 1032 l 351 1032 l 232 1253 l 349 1253 m 594 1253 l 686 1032 l 597 1032 l 478 1253 l 594 1253 z "},"Ö":{"ha":1039,"x_min":94,"x_max":944,"o":"m 519 931 q 745 873 650 931 q 892 710 840 815 q 944 458 944 604 q 892 207 944 313 q 745 44 840 101 q 519 -14 650 -14 q 294 44 389 -14 q 147 207 199 101 q 94 458 94 313 q 147 710 94 604 q 294 873 199 815 q 519 931 389 931 m 519 826 q 294 729 376 826 q 211 458 211 632 q 294 188 211 286 q 519 90 376 90 q 745 188 663 90 q 828 458 828 286 q 745 729 828 632 q 519 826 663 826 m 385 1189 q 442 1167 421 1189 q 464 1110 464 1146 q 442 1053 464 1075 q 385 1031 421 1031 q 328 1053 350 1031 q 306 1110 306 1075 q 328 1167 306 1146 q 385 1189 350 1189 m 654 1189 q 712 1167 690 1189 q 733 1110 733 1146 q 712 1053 733 1075 q 654 1031 690 1031 q 597 1053 619 1031 q 575 1110 575 1075 q 597 1167 575 1146 q 654 1189 619 1189 z "},"Ȫ":{"ha":1039,"x_min":94,"x_max":944,"o":"m 519 931 q 745 873 650 931 q 892 710 840 815 q 944 458 944 604 q 892 207 944 313 q 745 44 840 101 q 519 -14 650 -14 q 294 44 389 -14 q 147 207 199 101 q 94 458 94 313 q 147 710 94 604 q 294 873 199 815 q 519 931 389 931 m 519 826 q 294 729 376 826 q 211 458 211 632 q 294 188 211 286 q 519 90 376 90 q 745 188 663 90 q 828 458 828 286 q 745 729 828 632 q 519 826 663 826 m 385 1189 q 442 1167 421 1189 q 464 1110 464 1146 q 442 1053 464 1075 q 385 1031 421 1031 q 328 1053 350 1031 q 306 1110 306 1075 q 328 1167 306 1146 q 385 1189 350 1189 m 654 1189 q 712 1167 690 1189 q 733 1110 733 1146 q 712 1053 733 1075 q 654 1031 690 1031 q 597 1053 619 1031 q 575 1110 575 1075 q 597 1167 575 1146 q 654 1189 619 1189 m 747 1378 l 747 1285 l 292 1285 l 292 1378 l 747 1378 z "},"Ȱ":{"ha":1039,"x_min":94,"x_max":944,"o":"m 519 931 q 745 873 650 931 q 892 710 840 815 q 944 458 944 604 q 892 207 944 313 q 745 44 840 101 q 519 -14 650 -14 q 294 44 389 -14 q 147 207 199 101 q 94 458 94 313 q 147 710 94 604 q 294 873 199 815 q 519 931 389 931 m 519 826 q 294 729 376 826 q 211 458 211 632 q 294 188 211 286 q 519 90 376 90 q 745 188 663 90 q 828 458 828 286 q 745 729 828 632 q 519 826 663 826 m 519 1217 q 580 1194 557 1217 q 603 1133 603 1171 q 580 1073 603 1096 q 519 1050 557 1050 q 459 1073 482 1050 q 436 1133 436 1096 q 459 1194 436 1171 q 519 1217 482 1217 m 747 1406 l 747 1313 l 292 1313 l 292 1406 l 747 1406 z "},"Ọ":{"ha":1039,"x_min":94,"x_max":944,"o":"m 519 931 q 745 873 650 931 q 892 710 840 815 q 944 458 944 604 q 892 207 944 313 q 745 44 840 101 q 519 -14 650 -14 q 294 44 389 -14 q 147 207 199 101 q 94 458 94 313 q 147 710 94 604 q 294 873 199 815 q 519 931 389 931 m 519 826 q 294 729 376 826 q 211 458 211 632 q 294 188 211 286 q 519 90 376 90 q 745 188 663 90 q 828 458 828 286 q 745 729 828 632 q 519 826 663 826 m 519 -300 q 459 -277 482 -300 q 436 -217 436 -254 q 459 -156 436 -179 q 519 -133 482 -133 q 580 -156 557 -133 q 603 -217 603 -179 q 580 -277 603 -254 q 519 -300 557 -300 z "},"Ò":{"ha":1039,"x_min":94,"x_max":944,"o":"m 519 931 q 745 873 650 931 q 892 710 840 815 q 944 458 944 604 q 892 207 944 313 q 745 44 840 101 q 519 -14 650 -14 q 294 44 389 -14 q 147 207 199 101 q 94 458 94 313 q 147 710 94 604 q 294 873 199 815 q 519 931 389 931 m 519 826 q 294 729 376 826 q 211 458 211 632 q 294 188 211 286 q 519 90 376 90 q 745 188 663 90 q 828 458 828 286 q 745 729 828 632 q 519 826 663 826 m 474 1253 l 565 1032 l 476 1032 l 357 1253 l 474 1253 z "},"Ỏ":{"ha":1039,"x_min":94,"x_max":944,"o":"m 519 931 q 745 873 650 931 q 892 710 840 815 q 944 458 944 604 q 892 207 944 313 q 745 44 840 101 q 519 -14 650 -14 q 294 44 389 -14 q 147 207 199 101 q 94 458 94 313 q 147 710 94 604 q 294 873 199 815 q 519 931 389 931 m 519 826 q 294 729 376 826 q 211 458 211 632 q 294 188 211 286 q 519 90 376 90 q 745 188 663 90 q 828 458 828 286 q 745 729 828 632 q 519 826 663 826 m 521 993 l 482 1038 q 536 1076 518 1057 q 554 1125 554 1094 q 540 1160 554 1146 q 500 1175 526 1175 q 436 1133 460 1175 l 371 1178 q 428 1238 392 1217 q 517 1260 465 1260 q 610 1225 575 1260 q 644 1140 644 1190 q 613 1052 644 1092 q 521 993 582 1013 z "},"Ơ":{"ha":1039,"x_min":94,"x_max":944,"o":"m 519 931 q 638 917 582 931 q 764 957 731 918 q 797 1067 797 996 l 903 1067 q 778 851 903 903 q 901 690 857 790 q 944 458 944 590 q 892 207 944 313 q 745 44 840 101 q 519 -14 650 -14 q 294 44 389 -14 q 147 207 199 101 q 94 458 94 313 q 147 710 94 604 q 294 873 199 815 q 519 931 389 931 m 519 826 q 294 729 376 826 q 211 458 211 632 q 294 188 211 286 q 519 90 376 90 q 745 188 663 90 q 828 458 828 286 q 745 729 828 632 q 519 826 663 826 z "},"Ớ":{"ha":1039,"x_min":94,"x_max":944,"o":"m 519 931 q 638 917 582 931 q 764 957 731 918 q 797 1067 797 996 l 903 1067 q 778 851 903 903 q 901 690 857 790 q 944 458 944 590 q 892 207 944 313 q 745 44 840 101 q 519 -14 650 -14 q 294 44 389 -14 q 147 207 199 101 q 94 458 94 313 q 147 710 94 604 q 294 873 199 815 q 519 931 389 931 m 519 826 q 294 729 376 826 q 211 458 211 632 q 294 188 211 286 q 519 90 376 90 q 745 188 663 90 q 828 458 828 286 q 745 729 828 632 q 519 826 663 826 m 551 1253 l 668 1253 l 549 1032 l 460 1032 l 551 1253 z "},"Ợ":{"ha":1039,"x_min":94,"x_max":944,"o":"m 519 931 q 638 917 582 931 q 764 957 731 918 q 797 1067 797 996 l 903 1067 q 778 851 903 903 q 901 690 857 790 q 944 458 944 590 q 892 207 944 313 q 745 44 840 101 q 519 -14 650 -14 q 294 44 389 -14 q 147 207 199 101 q 94 458 94 313 q 147 710 94 604 q 294 873 199 815 q 519 931 389 931 m 519 826 q 294 729 376 826 q 211 458 211 632 q 294 188 211 286 q 519 90 376 90 q 745 188 663 90 q 828 458 828 286 q 745 729 828 632 q 519 826 663 826 m 519 -300 q 459 -277 482 -300 q 436 -217 436 -254 q 459 -156 436 -179 q 519 -133 482 -133 q 580 -156 557 -133 q 603 -217 603 -179 q 580 -277 603 -254 q 519 -300 557 -300 z "},"Ờ":{"ha":1039,"x_min":94,"x_max":944,"o":"m 519 931 q 638 917 582 931 q 764 957 731 918 q 797 1067 797 996 l 903 1067 q 778 851 903 903 q 901 690 857 790 q 944 458 944 590 q 892 207 944 313 q 745 44 840 101 q 519 -14 650 -14 q 294 44 389 -14 q 147 207 199 101 q 94 458 94 313 q 147 710 94 604 q 294 873 199 815 q 519 931 389 931 m 519 826 q 294 729 376 826 q 211 458 211 632 q 294 188 211 286 q 519 90 376 90 q 745 188 663 90 q 828 458 828 286 q 745 729 828 632 q 519 826 663 826 m 488 1253 l 579 1032 l 490 1032 l 371 1253 l 488 1253 z "},"Ở":{"ha":1039,"x_min":94,"x_max":944,"o":"m 519 931 q 638 917 582 931 q 764 957 731 918 q 797 1067 797 996 l 903 1067 q 778 851 903 903 q 901 690 857 790 q 944 458 944 590 q 892 207 944 313 q 745 44 840 101 q 519 -14 650 -14 q 294 44 389 -14 q 147 207 199 101 q 94 458 94 313 q 147 710 94 604 q 294 873 199 815 q 519 931 389 931 m 519 826 q 294 729 376 826 q 211 458 211 632 q 294 188 211 286 q 519 90 376 90 q 745 188 663 90 q 828 458 828 286 q 745 729 828 632 q 519 826 663 826 m 521 993 l 482 1038 q 536 1076 518 1057 q 554 1125 554 1094 q 540 1160 554 1146 q 500 1175 526 1175 q 436 1133 460 1175 l 371 1178 q 428 1238 392 1217 q 517 1260 465 1260 q 610 1225 575 1260 q 644 1140 644 1190 q 613 1052 644 1092 q 521 993 582 1013 z "},"Ỡ":{"ha":1039,"x_min":94,"x_max":944,"o":"m 519 931 q 638 917 582 931 q 764 957 731 918 q 797 1067 797 996 l 903 1067 q 778 851 903 903 q 901 690 857 790 q 944 458 944 590 q 892 207 944 313 q 745 44 840 101 q 519 -14 650 -14 q 294 44 389 -14 q 147 207 199 101 q 94 458 94 313 q 147 710 94 604 q 294 873 199 815 q 519 931 389 931 m 519 826 q 294 729 376 826 q 211 458 211 632 q 294 188 211 286 q 519 90 376 90 q 745 188 663 90 q 828 458 828 286 q 745 729 828 632 q 519 826 663 826 m 769 1218 q 614 1032 754 1032 q 548 1047 575 1032 q 501 1079 521 1061 q 463 1112 482 1097 q 422 1126 444 1126 q 376 1101 392 1126 q 354 1031 361 1075 l 267 1031 q 312 1169 274 1122 q 424 1217 350 1217 q 488 1202 461 1217 q 535 1169 515 1188 q 574 1137 556 1151 q 613 1122 592 1122 q 660 1148 644 1122 q 682 1218 675 1174 l 769 1218 z "},"Ő":{"ha":1039,"x_min":94,"x_max":944,"o":"m 519 931 q 745 873 650 931 q 892 710 840 815 q 944 458 944 604 q 892 207 944 313 q 745 44 840 101 q 519 -14 650 -14 q 294 44 389 -14 q 147 207 199 101 q 94 458 94 313 q 147 710 94 604 q 294 873 199 815 q 519 931 389 931 m 519 826 q 294 729 376 826 q 211 458 211 632 q 294 188 211 286 q 519 90 376 90 q 745 188 663 90 q 828 458 828 286 q 745 729 828 632 q 519 826 663 826 z "},"Ȏ":{"ha":1039,"x_min":94,"x_max":944,"o":"m 519 931 q 745 873 650 931 q 892 710 840 815 q 944 458 944 604 q 892 207 944 313 q 745 44 840 101 q 519 -14 650 -14 q 294 44 389 -14 q 147 207 199 101 q 94 458 94 313 q 147 710 94 604 q 294 873 199 815 q 519 931 389 931 m 519 826 q 294 729 376 826 q 211 458 211 632 q 294 188 211 286 q 519 90 376 90 q 745 188 663 90 q 828 458 828 286 q 745 729 828 632 q 519 826 663 826 m 725 1024 l 635 1024 q 605 1109 633 1072 q 519 1146 576 1146 q 435 1109 464 1146 q 404 1024 406 1072 l 314 1024 q 371 1172 314 1115 q 519 1229 428 1229 q 668 1172 611 1229 q 725 1024 725 1115 z "},"Ō":{"ha":1039,"x_min":94,"x_max":944,"o":"m 519 931 q 745 873 650 931 q 892 710 840 815 q 944 458 944 604 q 892 207 944 313 q 745 44 840 101 q 519 -14 650 -14 q 294 44 389 -14 q 147 207 199 101 q 94 458 94 313 q 147 710 94 604 q 294 873 199 815 q 519 931 389 931 m 519 826 q 294 729 376 826 q 211 458 211 632 q 294 188 211 286 q 519 90 376 90 q 745 188 663 90 q 828 458 828 286 q 745 729 828 632 q 519 826 663 826 m 747 1143 l 747 1050 l 292 1050 l 292 1143 l 747 1143 z "},"Ṓ":{"ha":1039,"x_min":94,"x_max":944,"o":"m 519 931 q 745 873 650 931 q 892 710 840 815 q 944 458 944 604 q 892 207 944 313 q 745 44 840 101 q 519 -14 650 -14 q 294 44 389 -14 q 147 207 199 101 q 94 458 94 313 q 147 710 94 604 q 294 873 199 815 q 519 931 389 931 m 519 826 q 294 729 376 826 q 211 458 211 632 q 294 188 211 286 q 519 90 376 90 q 745 188 663 90 q 828 458 828 286 q 745 729 828 632 q 519 826 663 826 m 747 1143 l 747 1050 l 292 1050 l 292 1143 l 747 1143 m 551 1476 l 668 1476 l 549 1256 l 460 1256 l 551 1476 z "},"Ṑ":{"ha":1039,"x_min":94,"x_max":944,"o":"m 519 931 q 745 873 650 931 q 892 710 840 815 q 944 458 944 604 q 892 207 944 313 q 745 44 840 101 q 519 -14 650 -14 q 294 44 389 -14 q 147 207 199 101 q 94 458 94 313 q 147 710 94 604 q 294 873 199 815 q 519 931 389 931 m 519 826 q 294 729 376 826 q 211 458 211 632 q 294 188 211 286 q 519 90 376 90 q 745 188 663 90 q 828 458 828 286 q 745 729 828 632 q 519 826 663 826 m 747 1143 l 747 1050 l 292 1050 l 292 1143 l 747 1143 m 488 1476 l 579 1256 l 490 1256 l 371 1476 l 488 1476 z "},"Ǫ":{"ha":1039,"x_min":94,"x_max":944,"o":"m 519 931 q 745 873 650 931 q 892 710 840 815 q 944 458 944 604 q 892 207 944 313 q 745 44 840 101 q 519 -14 650 -14 q 294 44 389 -14 q 147 207 199 101 q 94 458 94 313 q 147 710 94 604 q 294 873 199 815 q 519 931 389 931 m 519 826 q 294 729 376 826 q 211 458 211 632 q 294 188 211 286 q 519 90 376 90 q 745 188 663 90 q 828 458 828 286 q 745 729 828 632 q 519 826 663 826 m 567 -312 q 445 -273 488 -312 q 403 -169 403 -233 q 452 -46 403 -92 q 604 38 501 0 l 665 8 q 551 -47 589 -19 q 502 -101 514 -74 q 490 -157 490 -128 q 514 -212 490 -193 q 576 -232 538 -232 q 653 -217 618 -232 l 669 -290 q 624 -306 651 -300 q 567 -312 596 -312 z "},"Ø":{"ha":1039,"x_min":94,"x_max":944,"o":"m 122 -51 l 225 97 q 128 250 163 158 q 94 458 94 342 q 147 710 94 604 q 294 873 199 815 q 519 931 389 931 q 760 864 660 931 l 819 949 l 918 949 l 822 811 q 913 660 881 750 q 944 458 944 571 q 892 207 944 313 q 745 44 840 101 q 519 -14 650 -14 q 289 46 388 -14 l 221 -51 l 122 -51 m 519 826 q 294 729 376 826 q 211 458 211 632 q 290 192 211 289 l 697 774 q 519 826 624 826 m 828 458 q 756 715 828 618 l 351 136 q 519 90 422 90 q 745 188 663 90 q 828 458 828 286 z "},"Ǿ":{"ha":1039,"x_min":94,"x_max":944,"o":"m 122 -51 l 225 97 q 128 250 163 158 q 94 458 94 342 q 147 710 94 604 q 294 873 199 815 q 519 931 389 931 q 760 864 660 931 l 819 949 l 918 949 l 822 811 q 913 660 881 750 q 944 458 944 571 q 892 207 944 313 q 745 44 840 101 q 519 -14 650 -14 q 289 46 388 -14 l 221 -51 l 122 -51 m 519 826 q 294 729 376 826 q 211 458 211 632 q 290 192 211 289 l 697 774 q 519 826 624 826 m 828 458 q 756 715 828 618 l 351 136 q 519 90 422 90 q 745 188 663 90 q 828 458 828 286 m 551 1253 l 668 1253 l 549 1032 l 460 1032 l 551 1253 z "},"Õ":{"ha":1039,"x_min":94,"x_max":944,"o":"m 519 931 q 745 873 650 931 q 892 710 840 815 q 944 458 944 604 q 892 207 944 313 q 745 44 840 101 q 519 -14 650 -14 q 294 44 389 -14 q 147 207 199 101 q 94 458 94 313 q 147 710 94 604 q 294 873 199 815 q 519 931 389 931 m 519 826 q 294 729 376 826 q 211 458 211 632 q 294 188 211 286 q 519 90 376 90 q 745 188 663 90 q 828 458 828 286 q 745 729 828 632 q 519 826 663 826 m 769 1218 q 614 1032 754 1032 q 548 1047 575 1032 q 501 1079 521 1061 q 463 1112 482 1097 q 422 1126 444 1126 q 376 1101 392 1126 q 354 1031 361 1075 l 267 1031 q 312 1169 274 1122 q 424 1217 350 1217 q 488 1202 461 1217 q 535 1169 515 1188 q 574 1137 556 1151 q 613 1122 592 1122 q 660 1148 644 1122 q 682 1218 675 1174 l 769 1218 z "},"Ṍ":{"ha":1039,"x_min":94,"x_max":944,"o":"m 519 931 q 745 873 650 931 q 892 710 840 815 q 944 458 944 604 q 892 207 944 313 q 745 44 840 101 q 519 -14 650 -14 q 294 44 389 -14 q 147 207 199 101 q 94 458 94 313 q 147 710 94 604 q 294 873 199 815 q 519 931 389 931 m 519 826 q 294 729 376 826 q 211 458 211 632 q 294 188 211 286 q 519 90 376 90 q 745 188 663 90 q 828 458 828 286 q 745 729 828 632 q 519 826 663 826 m 769 1218 q 614 1032 754 1032 q 548 1047 575 1032 q 501 1079 521 1061 q 463 1112 482 1097 q 422 1126 444 1126 q 376 1101 392 1126 q 354 1031 361 1075 l 267 1031 q 312 1169 274 1122 q 424 1217 350 1217 q 488 1202 461 1217 q 535 1169 515 1188 q 574 1137 556 1151 q 613 1122 592 1122 q 660 1148 644 1122 q 682 1218 675 1174 l 769 1218 m 550 1528 l 667 1528 l 547 1307 l 458 1307 l 550 1528 z "},"Ṏ":{"ha":1039,"x_min":94,"x_max":944,"o":"m 519 931 q 745 873 650 931 q 892 710 840 815 q 944 458 944 604 q 892 207 944 313 q 745 44 840 101 q 519 -14 650 -14 q 294 44 389 -14 q 147 207 199 101 q 94 458 94 313 q 147 710 94 604 q 294 873 199 815 q 519 931 389 931 m 519 826 q 294 729 376 826 q 211 458 211 632 q 294 188 211 286 q 519 90 376 90 q 745 188 663 90 q 828 458 828 286 q 745 729 828 632 q 519 826 663 826 m 769 1218 q 614 1032 754 1032 q 548 1047 575 1032 q 501 1079 521 1061 q 463 1112 482 1097 q 422 1126 444 1126 q 376 1101 392 1126 q 354 1031 361 1075 l 267 1031 q 312 1169 274 1122 q 424 1217 350 1217 q 488 1202 461 1217 q 535 1169 515 1188 q 574 1137 556 1151 q 613 1122 592 1122 q 660 1148 644 1122 q 682 1218 675 1174 l 769 1218 m 383 1464 q 441 1442 419 1464 q 463 1385 463 1421 q 441 1328 463 1350 q 383 1306 419 1306 q 326 1328 349 1306 q 304 1385 304 1350 q 326 1442 304 1421 q 383 1464 349 1464 m 653 1464 q 710 1442 689 1464 q 732 1385 732 1421 q 710 1328 732 1350 q 653 1306 689 1306 q 596 1328 618 1306 q 574 1385 574 1350 q 596 1442 574 1421 q 653 1464 618 1464 z "},"Ȭ":{"ha":1039,"x_min":94,"x_max":944,"o":"m 519 931 q 745 873 650 931 q 892 710 840 815 q 944 458 944 604 q 892 207 944 313 q 745 44 840 101 q 519 -14 650 -14 q 294 44 389 -14 q 147 207 199 101 q 94 458 94 313 q 147 710 94 604 q 294 873 199 815 q 519 931 389 931 m 519 826 q 294 729 376 826 q 211 458 211 632 q 294 188 211 286 q 519 90 376 90 q 745 188 663 90 q 828 458 828 286 q 745 729 828 632 q 519 826 663 826 m 769 1218 q 614 1032 754 1032 q 548 1047 575 1032 q 501 1079 521 1061 q 463 1112 482 1097 q 422 1126 444 1126 q 376 1101 392 1126 q 354 1031 361 1075 l 267 1031 q 312 1169 274 1122 q 424 1217 350 1217 q 488 1202 461 1217 q 535 1169 515 1188 q 574 1137 556 1151 q 613 1122 592 1122 q 660 1148 644 1122 q 682 1218 675 1174 l 769 1218 m 746 1418 l 746 1325 l 290 1325 l 290 1418 l 746 1418 z "},"Œ":{"ha":1500,"x_min":94,"x_max":1428,"o":"m 915 104 l 1428 104 l 1428 0 l 814 0 l 814 138 q 687 26 763 65 q 517 -14 611 -14 q 292 44 386 -14 q 146 207 197 101 q 94 458 94 313 q 145 710 94 604 q 292 873 196 815 q 522 931 388 931 q 690 892 615 931 q 814 782 764 854 l 814 917 l 1407 917 l 1407 813 l 915 813 l 915 517 l 1289 517 l 1289 413 l 915 413 l 915 104 m 522 90 q 675 134 610 90 q 777 260 740 178 q 814 458 814 343 q 777 656 814 574 q 675 783 740 739 q 522 826 610 826 q 292 729 374 826 q 211 458 211 632 q 292 188 211 286 q 522 90 374 90 z "},"P":{"ha":847,"x_min":150,"x_max":782,"o":"m 474 917 q 635 883 567 917 q 743 786 704 849 q 782 638 782 724 q 743 489 782 551 q 635 392 704 426 q 474 358 567 358 l 261 358 l 261 0 l 150 0 l 150 917 l 474 917 m 457 463 q 615 508 565 463 q 665 638 665 553 q 615 768 665 724 q 457 813 565 813 l 261 813 l 261 463 l 457 463 z "},"Þ":{"ha":871,"x_min":150,"x_max":796,"o":"m 454 753 q 710 679 625 753 q 796 468 796 606 q 710 258 796 332 q 454 183 625 183 l 261 183 l 261 0 l 150 0 l 150 917 l 261 917 l 261 753 l 454 753 m 465 649 l 261 649 l 261 288 l 465 288 q 679 468 679 288 q 465 649 679 649 z "},"Q":{"ha":1039,"x_min":94,"x_max":944,"o":"m 742 -271 q 615 -247 675 -271 q 514 -167 554 -224 q 468 -11 474 -110 q 269 60 353 0 q 140 222 185 121 q 94 458 94 324 q 147 710 94 604 q 294 873 199 815 q 519 931 389 931 q 745 873 650 931 q 892 710 840 815 q 944 458 944 604 q 899 220 944 322 q 768 58 853 118 q 567 -11 683 -1 q 599 -106 574 -74 q 662 -148 624 -137 q 744 -158 700 -158 q 908 -107 853 -158 l 944 -210 q 852 -255 911 -239 q 742 -271 793 -271 m 519 826 q 294 729 376 826 q 211 458 211 632 q 294 188 211 286 q 519 90 376 90 q 745 188 663 90 q 828 458 828 286 q 745 729 828 632 q 519 826 663 826 z "},"R":{"ha":924,"x_min":150,"x_max":863,"o":"m 497 917 q 722 844 638 917 q 807 649 807 772 q 751 486 807 550 q 601 399 696 422 l 863 0 l 731 0 l 481 381 l 261 381 l 261 0 l 150 0 l 150 917 l 497 917 m 496 485 q 690 649 690 485 q 496 813 690 813 l 261 813 l 261 485 l 496 485 z "},"Ŕ":{"ha":924,"x_min":150,"x_max":863,"o":"m 497 917 q 722 844 638 917 q 807 649 807 772 q 751 486 807 550 q 601 399 696 422 l 863 0 l 731 0 l 481 381 l 261 381 l 261 0 l 150 0 l 150 917 l 497 917 m 496 485 q 690 649 690 485 q 496 813 690 813 l 261 813 l 261 485 l 496 485 m 479 1253 l 596 1253 l 476 1032 l 388 1032 l 479 1253 z "},"Ř":{"ha":924,"x_min":150,"x_max":863,"o":"m 497 917 q 722 844 638 917 q 807 649 807 772 q 751 486 807 550 q 601 399 696 422 l 863 0 l 731 0 l 481 381 l 261 381 l 261 0 l 150 0 l 150 917 l 497 917 m 496 485 q 690 649 690 485 q 496 813 690 813 l 261 813 l 261 485 l 496 485 m 661 1253 l 508 1032 l 386 1032 l 233 1253 l 336 1253 l 447 1104 l 558 1253 l 661 1253 z "},"Ŗ":{"ha":924,"x_min":150,"x_max":863,"o":"m 497 917 q 722 844 638 917 q 807 649 807 772 q 751 486 807 550 q 601 399 696 422 l 863 0 l 731 0 l 481 381 l 261 381 l 261 0 l 150 0 l 150 917 l 497 917 m 496 485 q 690 649 690 485 q 496 813 690 813 l 261 813 l 261 485 l 496 485 m 558 -106 l 468 -329 l 381 -329 l 442 -106 l 558 -106 z "},"Ȑ":{"ha":924,"x_min":150,"x_max":863,"o":"m 497 917 q 722 844 638 917 q 807 649 807 772 q 751 486 807 550 q 601 399 696 422 l 863 0 l 731 0 l 481 381 l 261 381 l 261 0 l 150 0 l 150 917 l 497 917 m 496 485 q 690 649 690 485 q 496 813 690 813 l 261 813 l 261 485 l 496 485 m 276 1253 l 368 1032 l 279 1032 l 160 1253 l 276 1253 m 522 1253 l 614 1032 l 525 1032 l 406 1253 l 522 1253 z "},"Ṛ":{"ha":924,"x_min":150,"x_max":863,"o":"m 497 917 q 722 844 638 917 q 807 649 807 772 q 751 486 807 550 q 601 399 696 422 l 863 0 l 731 0 l 481 381 l 261 381 l 261 0 l 150 0 l 150 917 l 497 917 m 496 485 q 690 649 690 485 q 496 813 690 813 l 261 813 l 261 485 l 496 485 m 507 -300 q 447 -277 469 -300 q 424 -217 424 -254 q 447 -156 424 -179 q 507 -133 469 -133 q 567 -156 544 -133 q 590 -217 590 -179 q 567 -277 590 -254 q 507 -300 544 -300 z "},"Ȓ":{"ha":924,"x_min":150,"x_max":863,"o":"m 497 917 q 722 844 638 917 q 807 649 807 772 q 751 486 807 550 q 601 399 696 422 l 863 0 l 731 0 l 481 381 l 261 381 l 261 0 l 150 0 l 150 917 l 497 917 m 496 485 q 690 649 690 485 q 496 813 690 813 l 261 813 l 261 485 l 496 485 m 653 1024 l 563 1024 q 533 1109 561 1072 q 447 1146 504 1146 q 363 1109 392 1146 q 332 1024 333 1072 l 242 1024 q 299 1172 242 1115 q 447 1229 356 1229 q 596 1172 539 1229 q 653 1024 653 1115 z "},"Ṟ":{"ha":924,"x_min":150,"x_max":863,"o":"m 497 917 q 722 844 638 917 q 807 649 807 772 q 751 486 807 550 q 601 399 696 422 l 863 0 l 731 0 l 481 381 l 261 381 l 261 0 l 150 0 l 150 917 l 497 917 m 496 485 q 690 649 690 485 q 496 813 690 813 l 261 813 l 261 485 l 496 485 z "},"S":{"ha":890,"x_min":60,"x_max":807,"o":"m 444 931 q 653 881 565 931 q 799 736 740 832 l 706 664 q 590 790 654 753 q 433 826 525 826 q 271 782 322 826 q 219 674 219 738 q 250 588 219 625 q 372 531 281 551 l 571 486 q 755 398 703 457 q 807 251 807 339 q 763 113 807 174 q 640 19 719 53 q 454 -14 561 -14 q 208 45 306 -14 q 60 189 111 104 l 157 268 q 272 140 197 189 q 461 90 346 90 q 630 129 568 90 q 692 242 692 168 q 663 322 692 286 q 553 375 633 357 l 338 424 q 156 514 210 451 q 103 658 103 576 q 144 794 103 732 q 262 893 185 856 q 444 931 339 931 z "},"Ś":{"ha":890,"x_min":60,"x_max":807,"o":"m 444 931 q 653 881 565 931 q 799 736 740 832 l 706 664 q 590 790 654 753 q 433 826 525 826 q 271 782 322 826 q 219 674 219 738 q 250 588 219 625 q 372 531 281 551 l 571 486 q 755 398 703 457 q 807 251 807 339 q 763 113 807 174 q 640 19 719 53 q 454 -14 561 -14 q 208 45 306 -14 q 60 189 111 104 l 157 268 q 272 140 197 189 q 461 90 346 90 q 630 129 568 90 q 692 242 692 168 q 663 322 692 286 q 553 375 633 357 l 338 424 q 156 514 210 451 q 103 658 103 576 q 144 794 103 732 q 262 893 185 856 q 444 931 339 931 m 485 1253 l 601 1253 l 482 1032 l 393 1032 l 485 1253 z "},"Ṥ":{"ha":890,"x_min":60,"x_max":807,"o":"m 444 931 q 653 881 565 931 q 799 736 740 832 l 706 664 q 590 790 654 753 q 433 826 525 826 q 271 782 322 826 q 219 674 219 738 q 250 588 219 625 q 372 531 281 551 l 571 486 q 755 398 703 457 q 807 251 807 339 q 763 113 807 174 q 640 19 719 53 q 454 -14 561 -14 q 208 45 306 -14 q 60 189 111 104 l 157 268 q 272 140 197 189 q 461 90 346 90 q 630 129 568 90 q 692 242 692 168 q 663 322 692 286 q 553 375 633 357 l 338 424 q 156 514 210 451 q 103 658 103 576 q 144 794 103 732 q 262 893 185 856 q 444 931 339 931 m 485 1253 l 601 1253 l 482 1032 l 393 1032 l 485 1253 m 453 1510 q 513 1487 490 1510 q 536 1426 536 1464 q 513 1366 536 1389 q 453 1343 490 1343 q 392 1366 415 1343 q 369 1426 369 1389 q 392 1487 369 1464 q 453 1510 415 1510 z "},"Š":{"ha":890,"x_min":60,"x_max":807,"o":"m 444 931 q 653 881 565 931 q 799 736 740 832 l 706 664 q 590 790 654 753 q 433 826 525 826 q 271 782 322 826 q 219 674 219 738 q 250 588 219 625 q 372 531 281 551 l 571 486 q 755 398 703 457 q 807 251 807 339 q 763 113 807 174 q 640 19 719 53 q 454 -14 561 -14 q 208 45 306 -14 q 60 189 111 104 l 157 268 q 272 140 197 189 q 461 90 346 90 q 630 129 568 90 q 692 242 692 168 q 663 322 692 286 q 553 375 633 357 l 338 424 q 156 514 210 451 q 103 658 103 576 q 144 794 103 732 q 262 893 185 856 q 444 931 339 931 m 667 1253 l 514 1032 l 392 1032 l 239 1253 l 342 1253 l 453 1104 l 564 1253 l 667 1253 z "},"Ṧ":{"ha":890,"x_min":60,"x_max":807,"o":"m 444 931 q 653 881 565 931 q 799 736 740 832 l 706 664 q 590 790 654 753 q 433 826 525 826 q 271 782 322 826 q 219 674 219 738 q 250 588 219 625 q 372 531 281 551 l 571 486 q 755 398 703 457 q 807 251 807 339 q 763 113 807 174 q 640 19 719 53 q 454 -14 561 -14 q 208 45 306 -14 q 60 189 111 104 l 157 268 q 272 140 197 189 q 461 90 346 90 q 630 129 568 90 q 692 242 692 168 q 663 322 692 286 q 553 375 633 357 l 338 424 q 156 514 210 451 q 103 658 103 576 q 144 794 103 732 q 262 893 185 856 q 444 931 339 931 m 667 1253 l 514 1032 l 392 1032 l 239 1253 l 342 1253 l 453 1104 l 564 1253 l 667 1253 m 453 1504 q 513 1481 490 1504 q 536 1421 536 1458 q 513 1360 536 1383 q 453 1338 490 1338 q 392 1360 415 1338 q 369 1421 369 1383 q 392 1481 369 1458 q 453 1504 415 1504 z "},"Ş":{"ha":890,"x_min":60,"x_max":807,"o":"m 444 931 q 653 881 565 931 q 799 736 740 832 l 706 664 q 590 790 654 753 q 433 826 525 826 q 271 782 322 826 q 219 674 219 738 q 250 588 219 625 q 372 531 281 551 l 571 486 q 755 398 703 457 q 807 251 807 339 q 763 113 807 174 q 640 19 719 53 q 454 -14 561 -14 q 208 45 306 -14 q 60 189 111 104 l 157 268 q 272 140 197 189 q 461 90 346 90 q 630 129 568 90 q 692 242 692 168 q 663 322 692 286 q 553 375 633 357 l 338 424 q 156 514 210 451 q 103 658 103 576 q 144 794 103 732 q 262 893 185 856 q 444 931 339 931 m 365 6 l 424 40 q 540 -31 506 14 q 575 -137 575 -76 q 528 -251 575 -204 q 407 -299 481 -299 q 331 -287 364 -299 q 275 -258 299 -276 l 301 -178 q 342 -200 321 -190 q 394 -210 364 -210 q 458 -185 433 -210 q 483 -112 483 -160 q 457 -50 483 -76 q 365 6 431 -24 z "},"Ŝ":{"ha":890,"x_min":60,"x_max":807,"o":"m 444 931 q 653 881 565 931 q 799 736 740 832 l 706 664 q 590 790 654 753 q 433 826 525 826 q 271 782 322 826 q 219 674 219 738 q 250 588 219 625 q 372 531 281 551 l 571 486 q 755 398 703 457 q 807 251 807 339 q 763 113 807 174 q 640 19 719 53 q 454 -14 561 -14 q 208 45 306 -14 q 60 189 111 104 l 157 268 q 272 140 197 189 q 461 90 346 90 q 630 129 568 90 q 692 242 692 168 q 663 322 692 286 q 553 375 633 357 l 338 424 q 156 514 210 451 q 103 658 103 576 q 144 794 103 732 q 262 893 185 856 q 444 931 339 931 m 667 1032 l 564 1032 l 453 1181 l 342 1032 l 239 1032 l 392 1253 l 514 1253 l 667 1032 z "},"Ș":{"ha":890,"x_min":60,"x_max":807,"o":"m 444 931 q 653 881 565 931 q 799 736 740 832 l 706 664 q 590 790 654 753 q 433 826 525 826 q 271 782 322 826 q 219 674 219 738 q 250 588 219 625 q 372 531 281 551 l 571 486 q 755 398 703 457 q 807 251 807 339 q 763 113 807 174 q 640 19 719 53 q 454 -14 561 -14 q 208 45 306 -14 q 60 189 111 104 l 157 268 q 272 140 197 189 q 461 90 346 90 q 630 129 568 90 q 692 242 692 168 q 663 322 692 286 q 553 375 633 357 l 338 424 q 156 514 210 451 q 103 658 103 576 q 144 794 103 732 q 262 893 185 856 q 444 931 339 931 m 493 -106 l 403 -329 l 315 -329 l 376 -106 l 493 -106 z "},"Ṡ":{"ha":890,"x_min":60,"x_max":807,"o":"m 444 931 q 653 881 565 931 q 799 736 740 832 l 706 664 q 590 790 654 753 q 433 826 525 826 q 271 782 322 826 q 219 674 219 738 q 250 588 219 625 q 372 531 281 551 l 571 486 q 755 398 703 457 q 807 251 807 339 q 763 113 807 174 q 640 19 719 53 q 454 -14 561 -14 q 208 45 306 -14 q 60 189 111 104 l 157 268 q 272 140 197 189 q 461 90 346 90 q 630 129 568 90 q 692 242 692 168 q 663 322 692 286 q 553 375 633 357 l 338 424 q 156 514 210 451 q 103 658 103 576 q 144 794 103 732 q 262 893 185 856 q 444 931 339 931 m 453 1217 q 513 1194 490 1217 q 536 1133 536 1171 q 513 1073 536 1096 q 453 1050 490 1050 q 392 1073 415 1050 q 369 1133 369 1096 q 392 1194 369 1171 q 453 1217 415 1217 z "},"Ṣ":{"ha":890,"x_min":60,"x_max":807,"o":"m 444 931 q 653 881 565 931 q 799 736 740 832 l 706 664 q 590 790 654 753 q 433 826 525 826 q 271 782 322 826 q 219 674 219 738 q 250 588 219 625 q 372 531 281 551 l 571 486 q 755 398 703 457 q 807 251 807 339 q 763 113 807 174 q 640 19 719 53 q 454 -14 561 -14 q 208 45 306 -14 q 60 189 111 104 l 157 268 q 272 140 197 189 q 461 90 346 90 q 630 129 568 90 q 692 242 692 168 q 663 322 692 286 q 553 375 633 357 l 338 424 q 156 514 210 451 q 103 658 103 576 q 144 794 103 732 q 262 893 185 856 q 444 931 339 931 m 442 -300 q 381 -277 404 -300 q 358 -217 358 -254 q 381 -156 358 -179 q 442 -133 404 -133 q 502 -156 479 -133 q 525 -217 525 -179 q 502 -277 525 -254 q 442 -300 479 -300 z "},"Ṩ":{"ha":890,"x_min":60,"x_max":807,"o":"m 444 931 q 653 881 565 931 q 799 736 740 832 l 706 664 q 590 790 654 753 q 433 826 525 826 q 271 782 322 826 q 219 674 219 738 q 250 588 219 625 q 372 531 281 551 l 571 486 q 755 398 703 457 q 807 251 807 339 q 763 113 807 174 q 640 19 719 53 q 454 -14 561 -14 q 208 45 306 -14 q 60 189 111 104 l 157 268 q 272 140 197 189 q 461 90 346 90 q 630 129 568 90 q 692 242 692 168 q 663 322 692 286 q 553 375 633 357 l 338 424 q 156 514 210 451 q 103 658 103 576 q 144 794 103 732 q 262 893 185 856 q 444 931 339 931 m 453 1217 q 513 1194 490 1217 q 536 1133 536 1171 q 513 1073 536 1096 q 453 1050 490 1050 q 392 1073 415 1050 q 369 1133 369 1096 q 392 1194 369 1171 q 453 1217 415 1217 m 442 -300 q 381 -277 404 -300 q 358 -217 358 -254 q 381 -156 358 -179 q 442 -133 404 -133 q 502 -156 479 -133 q 525 -217 525 -179 q 502 -277 525 -254 q 442 -300 479 -300 z "},"ẞ":{"ha":932,"x_min":132,"x_max":886,"o":"m 601 -7 q 456 16 515 -7 q 368 68 396 39 l 418 164 q 494 114 447 133 q 594 94 540 94 q 726 144 681 94 q 772 265 772 193 q 724 380 772 340 q 593 419 675 419 l 453 419 l 453 514 l 694 813 l 440 813 q 342 787 388 813 q 270 717 297 761 q 243 614 243 672 l 243 0 l 132 0 l 132 615 q 172 774 132 706 q 283 879 213 842 q 440 917 353 917 l 826 917 l 826 811 l 572 514 l 621 514 q 758 484 699 514 q 852 399 818 454 q 886 268 886 344 q 849 122 886 183 q 749 26 813 60 q 601 -7 685 -7 z "},"Ə":{"ha":990,"x_min":76,"x_max":896,"o":"m 474 -14 q 268 38 358 -14 q 127 186 178 89 q 76 419 76 283 q 81 499 76 457 l 778 499 q 688 740 768 653 q 474 826 608 826 q 309 778 376 826 q 210 636 242 729 l 93 678 q 239 863 139 796 q 474 931 339 931 q 699 873 604 931 q 844 710 793 815 q 896 458 896 604 q 844 207 896 313 q 697 44 792 101 q 474 -14 601 -14 m 200 381 q 238 224 200 289 q 341 125 276 160 q 483 90 406 90 q 685 165 608 90 q 776 388 761 239 l 200 388 l 200 381 z "},"T":{"ha":839,"x_min":44,"x_max":794,"o":"m 794 917 l 794 813 l 475 813 l 475 0 l 364 0 l 364 813 l 44 813 l 44 917 l 794 917 z "},"Ŧ":{"ha":839,"x_min":44,"x_max":794,"o":"m 794 917 l 794 813 l 475 813 l 475 0 l 364 0 l 364 813 l 44 813 l 44 917 l 794 917 m 696 499 l 696 394 l 144 394 l 144 499 l 696 499 z "},"Ť":{"ha":839,"x_min":44,"x_max":794,"o":"m 794 917 l 794 813 l 475 813 l 475 0 l 364 0 l 364 813 l 44 813 l 44 917 l 794 917 m 633 1253 l 481 1032 l 358 1032 l 206 1253 l 308 1253 l 419 1104 l 531 1253 l 633 1253 z "},"Ţ":{"ha":839,"x_min":44,"x_max":794,"o":"m 794 917 l 794 813 l 475 813 l 475 7 q 535 -57 517 -21 q 553 -137 553 -93 q 506 -251 553 -204 q 385 -299 458 -299 q 309 -287 342 -299 q 253 -258 276 -276 l 279 -178 q 320 -200 299 -190 q 372 -210 342 -210 q 436 -185 411 -210 q 461 -112 461 -160 q 438 -51 461 -76 q 364 0 414 -25 l 364 813 l 44 813 l 44 917 l 794 917 z "},"Ț":{"ha":839,"x_min":44,"x_max":794,"o":"m 794 917 l 794 813 l 475 813 l 475 0 l 364 0 l 364 813 l 44 813 l 44 917 l 794 917 m 493 -106 l 403 -329 l 315 -329 l 376 -106 l 493 -106 z "},"Ṭ":{"ha":839,"x_min":44,"x_max":794,"o":"m 794 917 l 794 813 l 475 813 l 475 0 l 364 0 l 364 813 l 44 813 l 44 917 l 794 917 m 419 -300 q 359 -277 382 -300 q 336 -217 336 -254 q 359 -156 336 -179 q 419 -133 382 -133 q 480 -156 457 -133 q 503 -217 503 -179 q 480 -277 503 -254 q 419 -300 457 -300 z "},"Ṯ":{"ha":839,"x_min":44,"x_max":794,"o":"m 794 917 l 794 813 l 475 813 l 475 0 l 364 0 l 364 813 l 44 813 l 44 917 l 794 917 z "},"U":{"ha":983,"x_min":132,"x_max":851,"o":"m 851 917 l 851 342 q 758 76 851 165 q 492 -14 665 -14 q 226 76 319 -14 q 132 342 132 165 l 132 917 l 243 917 l 243 369 q 303 158 243 226 q 492 90 364 90 q 680 158 619 90 q 740 369 740 226 l 740 917 l 851 917 z "},"Ú":{"ha":983,"x_min":132,"x_max":851,"o":"m 851 917 l 851 342 q 758 76 851 165 q 492 -14 665 -14 q 226 76 319 -14 q 132 342 132 165 l 132 917 l 243 917 l 243 369 q 303 158 243 226 q 492 90 364 90 q 680 158 619 90 q 740 369 740 226 l 740 917 l 851 917 m 524 1218 l 640 1218 l 521 997 l 432 997 l 524 1218 z "},"Ŭ":{"ha":983,"x_min":132,"x_max":851,"o":"m 851 917 l 851 342 q 758 76 851 165 q 492 -14 665 -14 q 226 76 319 -14 q 132 342 132 165 l 132 917 l 243 917 l 243 369 q 303 158 243 226 q 492 90 364 90 q 680 158 619 90 q 740 369 740 226 l 740 917 l 851 917 z "},"Û":{"ha":983,"x_min":132,"x_max":851,"o":"m 851 917 l 851 342 q 758 76 851 165 q 492 -14 665 -14 q 226 76 319 -14 q 132 342 132 165 l 132 917 l 243 917 l 243 369 q 303 158 243 226 q 492 90 364 90 q 680 158 619 90 q 740 369 740 226 l 740 917 l 851 917 m 706 997 l 603 997 l 492 1146 l 381 997 l 278 997 l 431 1218 l 553 1218 l 706 997 z "},"Ȕ":{"ha":983,"x_min":132,"x_max":851,"o":"m 851 917 l 851 342 q 758 76 851 165 q 492 -14 665 -14 q 226 76 319 -14 q 132 342 132 165 l 132 917 l 243 917 l 243 369 q 303 158 243 226 q 492 90 364 90 q 680 158 619 90 q 740 369 740 226 l 740 917 l 851 917 m 321 1218 l 413 997 l 324 997 l 204 1218 l 321 1218 m 567 1218 l 658 997 l 569 997 l 450 1218 l 567 1218 z "},"Ü":{"ha":983,"x_min":132,"x_max":851,"o":"m 851 917 l 851 342 q 758 76 851 165 q 492 -14 665 -14 q 226 76 319 -14 q 132 342 132 165 l 132 917 l 243 917 l 243 369 q 303 158 243 226 q 492 90 364 90 q 680 158 619 90 q 740 369 740 226 l 740 917 l 851 917 m 357 1154 q 415 1133 393 1154 q 436 1075 436 1111 q 415 1018 436 1040 q 357 996 393 996 q 300 1018 322 996 q 278 1075 278 1040 q 300 1133 278 1111 q 357 1154 322 1154 m 626 1154 q 684 1133 663 1154 q 706 1075 706 1111 q 684 1018 706 1040 q 626 996 663 996 q 569 1018 592 996 q 547 1075 547 1040 q 569 1133 547 1111 q 626 1154 592 1154 z "},"Ụ":{"ha":983,"x_min":132,"x_max":851,"o":"m 851 917 l 851 342 q 758 76 851 165 q 492 -14 665 -14 q 226 76 319 -14 q 132 342 132 165 l 132 917 l 243 917 l 243 369 q 303 158 243 226 q 492 90 364 90 q 680 158 619 90 q 740 369 740 226 l 740 917 l 851 917 m 492 -300 q 431 -277 454 -300 q 408 -217 408 -254 q 431 -156 408 -179 q 492 -133 454 -133 q 552 -156 529 -133 q 575 -217 575 -179 q 552 -277 575 -254 q 492 -300 529 -300 z "},"Ù":{"ha":983,"x_min":132,"x_max":851,"o":"m 851 917 l 851 342 q 758 76 851 165 q 492 -14 665 -14 q 226 76 319 -14 q 132 342 132 165 l 132 917 l 243 917 l 243 369 q 303 158 243 226 q 492 90 364 90 q 680 158 619 90 q 740 369 740 226 l 740 917 l 851 917 m 460 1218 l 551 997 l 463 997 l 343 1218 l 460 1218 z "},"Ủ":{"ha":983,"x_min":132,"x_max":851,"o":"m 851 917 l 851 342 q 758 76 851 165 q 492 -14 665 -14 q 226 76 319 -14 q 132 342 132 165 l 132 917 l 243 917 l 243 369 q 303 158 243 226 q 492 90 364 90 q 680 158 619 90 q 740 369 740 226 l 740 917 l 851 917 m 493 958 l 454 1003 q 508 1041 490 1022 q 526 1090 526 1060 q 513 1126 526 1111 q 472 1140 499 1140 q 408 1099 432 1140 l 343 1143 q 401 1203 364 1182 q 489 1225 438 1225 q 582 1190 547 1225 q 617 1106 617 1156 q 585 1017 617 1057 q 493 958 554 978 z "},"Ư":{"ha":983,"x_min":132,"x_max":996,"o":"m 851 917 l 851 342 q 758 76 851 165 q 492 -14 665 -14 q 226 76 319 -14 q 132 342 132 165 l 132 917 l 243 917 l 243 369 q 303 158 243 226 q 492 90 364 90 q 680 158 619 90 q 740 369 740 226 l 740 917 l 851 917 m 996 1067 q 935 892 996 954 q 767 829 875 829 l 739 917 q 858 956 825 917 q 890 1067 890 994 l 996 1067 z "},"Ứ":{"ha":983,"x_min":132,"x_max":996,"o":"m 851 917 l 851 342 q 758 76 851 165 q 492 -14 665 -14 q 226 76 319 -14 q 132 342 132 165 l 132 917 l 243 917 l 243 369 q 303 158 243 226 q 492 90 364 90 q 680 158 619 90 q 740 369 740 226 l 740 917 l 851 917 m 996 1067 q 935 892 996 954 q 767 829 875 829 l 739 917 q 858 956 825 917 q 890 1067 890 994 l 996 1067 m 524 1218 l 640 1218 l 521 997 l 432 997 l 524 1218 z "},"Ự":{"ha":983,"x_min":132,"x_max":996,"o":"m 851 917 l 851 342 q 758 76 851 165 q 492 -14 665 -14 q 226 76 319 -14 q 132 342 132 165 l 132 917 l 243 917 l 243 369 q 303 158 243 226 q 492 90 364 90 q 680 158 619 90 q 740 369 740 226 l 740 917 l 851 917 m 996 1067 q 935 892 996 954 q 767 829 875 829 l 739 917 q 858 956 825 917 q 890 1067 890 994 l 996 1067 m 492 -300 q 431 -277 454 -300 q 408 -217 408 -254 q 431 -156 408 -179 q 492 -133 454 -133 q 552 -156 529 -133 q 575 -217 575 -179 q 552 -277 575 -254 q 492 -300 529 -300 z "},"Ừ":{"ha":983,"x_min":132,"x_max":996,"o":"m 851 917 l 851 342 q 758 76 851 165 q 492 -14 665 -14 q 226 76 319 -14 q 132 342 132 165 l 132 917 l 243 917 l 243 369 q 303 158 243 226 q 492 90 364 90 q 680 158 619 90 q 740 369 740 226 l 740 917 l 851 917 m 996 1067 q 935 892 996 954 q 767 829 875 829 l 739 917 q 858 956 825 917 q 890 1067 890 994 l 996 1067 m 460 1218 l 551 997 l 463 997 l 343 1218 l 460 1218 z "},"Ử":{"ha":983,"x_min":132,"x_max":996,"o":"m 851 917 l 851 342 q 758 76 851 165 q 492 -14 665 -14 q 226 76 319 -14 q 132 342 132 165 l 132 917 l 243 917 l 243 369 q 303 158 243 226 q 492 90 364 90 q 680 158 619 90 q 740 369 740 226 l 740 917 l 851 917 m 996 1067 q 935 892 996 954 q 767 829 875 829 l 739 917 q 858 956 825 917 q 890 1067 890 994 l 996 1067 m 493 958 l 454 1003 q 508 1041 490 1022 q 526 1090 526 1060 q 513 1126 526 1111 q 472 1140 499 1140 q 408 1099 432 1140 l 343 1143 q 401 1203 364 1182 q 489 1225 438 1225 q 582 1190 547 1225 q 617 1106 617 1156 q 585 1017 617 1057 q 493 958 554 978 z "},"Ữ":{"ha":983,"x_min":132,"x_max":996,"o":"m 851 917 l 851 342 q 758 76 851 165 q 492 -14 665 -14 q 226 76 319 -14 q 132 342 132 165 l 132 917 l 243 917 l 243 369 q 303 158 243 226 q 492 90 364 90 q 680 158 619 90 q 740 369 740 226 l 740 917 l 851 917 m 996 1067 q 935 892 996 954 q 767 829 875 829 l 739 917 q 858 956 825 917 q 890 1067 890 994 l 996 1067 m 742 1183 q 586 997 726 997 q 520 1012 547 997 q 474 1044 493 1026 q 435 1077 454 1063 q 394 1092 417 1092 q 349 1066 364 1092 q 326 996 333 1040 l 239 996 q 284 1135 246 1088 q 396 1182 322 1182 q 460 1167 433 1182 q 508 1135 488 1153 q 546 1102 528 1117 q 585 1088 564 1088 q 632 1113 617 1088 q 654 1183 647 1139 l 742 1183 z "},"Ű":{"ha":983,"x_min":132,"x_max":851,"o":"m 851 917 l 851 342 q 758 76 851 165 q 492 -14 665 -14 q 226 76 319 -14 q 132 342 132 165 l 132 917 l 243 917 l 243 369 q 303 158 243 226 q 492 90 364 90 q 680 158 619 90 q 740 369 740 226 l 740 917 l 851 917 z "},"Ȗ":{"ha":983,"x_min":132,"x_max":851,"o":"m 851 917 l 851 342 q 758 76 851 165 q 492 -14 665 -14 q 226 76 319 -14 q 132 342 132 165 l 132 917 l 243 917 l 243 369 q 303 158 243 226 q 492 90 364 90 q 680 158 619 90 q 740 369 740 226 l 740 917 l 851 917 m 697 989 l 607 989 q 577 1074 606 1038 q 492 1111 549 1111 q 407 1074 436 1111 q 376 989 378 1038 l 286 989 q 343 1138 286 1081 q 492 1194 400 1194 q 640 1138 583 1194 q 697 989 697 1081 z "},"Ū":{"ha":983,"x_min":132,"x_max":851,"o":"m 851 917 l 851 342 q 758 76 851 165 q 492 -14 665 -14 q 226 76 319 -14 q 132 342 132 165 l 132 917 l 243 917 l 243 369 q 303 158 243 226 q 492 90 364 90 q 680 158 619 90 q 740 369 740 226 l 740 917 l 851 917 m 719 1108 l 719 1015 l 264 1015 l 264 1108 l 719 1108 z "},"Ṻ":{"ha":983,"x_min":132,"x_max":851,"o":"m 851 917 l 851 342 q 758 76 851 165 q 492 -14 665 -14 q 226 76 319 -14 q 132 342 132 165 l 132 917 l 243 917 l 243 369 q 303 158 243 226 q 492 90 364 90 q 680 158 619 90 q 740 369 740 226 l 740 917 l 851 917 m 719 1108 l 719 1015 l 264 1015 l 264 1108 l 719 1108 m 357 1378 q 415 1356 393 1378 q 436 1299 436 1335 q 415 1242 436 1264 q 357 1219 393 1219 q 300 1242 322 1219 q 278 1299 278 1264 q 300 1356 278 1335 q 357 1378 322 1378 m 626 1378 q 684 1356 663 1378 q 706 1299 706 1335 q 684 1242 706 1264 q 626 1219 663 1219 q 569 1242 592 1219 q 547 1299 547 1264 q 569 1356 547 1335 q 626 1378 592 1378 z "},"Ų":{"ha":983,"x_min":132,"x_max":851,"o":"m 851 917 l 851 342 q 758 76 851 165 q 492 -14 665 -14 q 226 76 319 -14 q 132 342 132 165 l 132 917 l 243 917 l 243 369 q 303 158 243 226 q 492 90 364 90 q 680 158 619 90 q 740 369 740 226 l 740 917 l 851 917 m 565 -306 q 444 -266 486 -306 q 401 -162 401 -226 q 451 -39 401 -85 q 603 44 500 7 l 664 15 q 550 -40 588 -12 q 501 -94 513 -67 q 489 -150 489 -121 q 513 -206 489 -186 q 575 -225 536 -225 q 651 -210 617 -225 l 668 -283 q 622 -299 650 -293 q 565 -306 594 -306 z "},"Ů":{"ha":983,"x_min":132,"x_max":851,"o":"m 851 917 l 851 342 q 758 76 851 165 q 492 -14 665 -14 q 226 76 319 -14 q 132 342 132 165 l 132 917 l 243 917 l 243 369 q 303 158 243 226 q 492 90 364 90 q 680 158 619 90 q 740 369 740 226 l 740 917 l 851 917 m 488 1278 q 613 1233 565 1278 q 661 1114 661 1188 q 613 994 661 1040 q 488 949 565 949 q 361 994 410 949 q 313 1114 313 1040 q 361 1233 313 1188 q 488 1278 410 1278 m 488 1210 q 417 1183 444 1210 q 389 1114 389 1156 q 417 1045 389 1072 q 488 1018 444 1018 q 558 1045 531 1018 q 586 1114 586 1072 q 558 1183 586 1156 q 488 1210 531 1210 z "},"Ũ":{"ha":983,"x_min":132,"x_max":851,"o":"m 851 917 l 851 342 q 758 76 851 165 q 492 -14 665 -14 q 226 76 319 -14 q 132 342 132 165 l 132 917 l 243 917 l 243 369 q 303 158 243 226 q 492 90 364 90 q 680 158 619 90 q 740 369 740 226 l 740 917 l 851 917 m 742 1183 q 586 997 726 997 q 520 1012 547 997 q 474 1044 493 1026 q 435 1077 454 1063 q 394 1092 417 1092 q 349 1066 364 1092 q 326 996 333 1040 l 239 996 q 284 1135 246 1088 q 396 1182 322 1182 q 460 1167 433 1182 q 508 1135 488 1153 q 546 1102 528 1117 q 585 1088 564 1088 q 632 1113 617 1088 q 654 1183 647 1139 l 742 1183 z "},"Ṹ":{"ha":983,"x_min":132,"x_max":851,"o":"m 851 917 l 851 342 q 758 76 851 165 q 492 -14 665 -14 q 226 76 319 -14 q 132 342 132 165 l 132 917 l 243 917 l 243 369 q 303 158 243 226 q 492 90 364 90 q 680 158 619 90 q 740 369 740 226 l 740 917 l 851 917 m 742 1183 q 586 997 726 997 q 520 1012 547 997 q 474 1044 493 1026 q 435 1077 454 1063 q 394 1092 417 1092 q 349 1066 364 1092 q 326 996 333 1040 l 239 996 q 284 1135 246 1088 q 396 1182 322 1182 q 460 1167 433 1182 q 508 1135 488 1153 q 546 1102 528 1117 q 585 1088 564 1088 q 632 1113 617 1088 q 654 1183 647 1139 l 742 1183 m 522 1493 l 639 1493 l 519 1272 l 431 1272 l 522 1493 z "},"V":{"ha":900,"x_min":39,"x_max":861,"o":"m 861 917 l 514 0 l 388 0 l 39 917 l 158 917 l 392 283 l 450 101 l 508 282 l 742 917 l 861 917 z "},"W":{"ha":1335,"x_min":50,"x_max":1285,"o":"m 321 0 l 50 917 l 165 917 l 392 101 l 607 917 l 733 917 l 949 99 l 1175 917 l 1285 917 l 1015 0 l 878 0 l 715 594 l 668 801 l 667 801 l 619 594 l 458 0 l 321 0 z "},"Ẃ":{"ha":1335,"x_min":50,"x_max":1285,"o":"m 321 0 l 50 917 l 165 917 l 392 101 l 607 917 l 733 917 l 949 99 l 1175 917 l 1285 917 l 1015 0 l 878 0 l 715 594 l 668 801 l 667 801 l 619 594 l 458 0 l 321 0 m 700 1253 l 817 1253 l 697 1032 l 608 1032 l 700 1253 z "},"Ŵ":{"ha":1335,"x_min":50,"x_max":1285,"o":"m 321 0 l 50 917 l 165 917 l 392 101 l 607 917 l 733 917 l 949 99 l 1175 917 l 1285 917 l 1015 0 l 878 0 l 715 594 l 668 801 l 667 801 l 619 594 l 458 0 l 321 0 m 882 1032 l 779 1032 l 668 1181 l 557 1032 l 454 1032 l 607 1253 l 729 1253 l 882 1032 z "},"Ẅ":{"ha":1335,"x_min":50,"x_max":1285,"o":"m 321 0 l 50 917 l 165 917 l 392 101 l 607 917 l 733 917 l 949 99 l 1175 917 l 1285 917 l 1015 0 l 878 0 l 715 594 l 668 801 l 667 801 l 619 594 l 458 0 l 321 0 m 533 1189 q 591 1167 569 1189 q 613 1110 613 1146 q 591 1053 613 1075 q 533 1031 569 1031 q 476 1053 499 1031 q 454 1110 454 1075 q 476 1167 454 1146 q 533 1189 499 1189 m 803 1189 q 860 1167 839 1189 q 882 1110 882 1146 q 860 1053 882 1075 q 803 1031 839 1031 q 746 1053 768 1031 q 724 1110 724 1075 q 746 1167 724 1146 q 803 1189 768 1189 z "},"Ẁ":{"ha":1335,"x_min":50,"x_max":1285,"o":"m 321 0 l 50 917 l 165 917 l 392 101 l 607 917 l 733 917 l 949 99 l 1175 917 l 1285 917 l 1015 0 l 878 0 l 715 594 l 668 801 l 667 801 l 619 594 l 458 0 l 321 0 m 636 1253 l 728 1032 l 639 1032 l 519 1253 l 636 1253 z "},"X":{"ha":835,"x_min":35,"x_max":790,"o":"m 790 0 l 663 0 l 414 378 l 164 0 l 35 0 l 356 467 l 63 917 l 193 917 l 425 560 l 660 917 l 781 917 l 483 472 l 790 0 z "},"Y":{"ha":794,"x_min":14,"x_max":781,"o":"m 781 917 l 453 358 l 453 0 l 342 0 l 342 358 l 14 917 l 146 917 l 324 603 l 397 472 l 471 603 l 649 917 l 781 917 z "},"Ý":{"ha":794,"x_min":14,"x_max":781,"o":"m 781 917 l 453 358 l 453 0 l 342 0 l 342 358 l 14 917 l 146 917 l 324 603 l 397 472 l 471 603 l 649 917 l 781 917 m 429 1225 l 546 1225 l 426 1004 l 338 1004 l 429 1225 z "},"Ŷ":{"ha":794,"x_min":14,"x_max":781,"o":"m 781 917 l 453 358 l 453 0 l 342 0 l 342 358 l 14 917 l 146 917 l 324 603 l 397 472 l 471 603 l 649 917 l 781 917 m 611 1004 l 508 1004 l 397 1153 l 286 1004 l 183 1004 l 336 1225 l 458 1225 l 611 1004 z "},"Ÿ":{"ha":794,"x_min":14,"x_max":781,"o":"m 781 917 l 453 358 l 453 0 l 342 0 l 342 358 l 14 917 l 146 917 l 324 603 l 397 472 l 471 603 l 649 917 l 781 917 m 263 1161 q 320 1140 299 1161 q 342 1082 342 1118 q 320 1025 342 1047 q 263 1003 299 1003 q 206 1025 228 1003 q 183 1082 183 1047 q 206 1140 183 1118 q 263 1161 228 1161 m 532 1161 q 590 1140 568 1161 q 611 1082 611 1118 q 590 1025 611 1047 q 532 1003 568 1003 q 475 1025 497 1003 q 453 1082 453 1047 q 475 1140 453 1118 q 532 1161 497 1161 z "},"Ẏ":{"ha":794,"x_min":14,"x_max":781,"o":"m 781 917 l 453 358 l 453 0 l 342 0 l 342 358 l 14 917 l 146 917 l 324 603 l 397 472 l 471 603 l 649 917 l 781 917 m 397 1189 q 458 1166 435 1189 q 481 1106 481 1143 q 458 1045 481 1068 q 397 1022 435 1022 q 337 1045 360 1022 q 314 1106 314 1068 q 337 1166 314 1143 q 397 1189 360 1189 z "},"Ỵ":{"ha":794,"x_min":14,"x_max":781,"o":"m 781 917 l 453 358 l 453 0 l 342 0 l 342 358 l 14 917 l 146 917 l 324 603 l 397 472 l 471 603 l 649 917 l 781 917 m 397 -300 q 337 -277 360 -300 q 314 -217 314 -254 q 337 -156 314 -179 q 397 -133 360 -133 q 458 -156 435 -133 q 481 -217 481 -179 q 458 -277 481 -254 q 397 -300 435 -300 z "},"Ỳ":{"ha":794,"x_min":14,"x_max":781,"o":"m 781 917 l 453 358 l 453 0 l 342 0 l 342 358 l 14 917 l 146 917 l 324 603 l 397 472 l 471 603 l 649 917 l 781 917 m 365 1225 l 457 1004 l 368 1004 l 249 1225 l 365 1225 z "},"Ỷ":{"ha":794,"x_min":14,"x_max":781,"o":"m 781 917 l 453 358 l 453 0 l 342 0 l 342 358 l 14 917 l 146 917 l 324 603 l 397 472 l 471 603 l 649 917 l 781 917 m 399 965 l 360 1010 q 414 1048 396 1029 q 432 1097 432 1067 q 418 1133 432 1118 q 378 1147 404 1147 q 314 1106 338 1147 l 249 1150 q 306 1210 269 1189 q 394 1232 343 1232 q 488 1197 453 1232 q 522 1113 522 1163 q 491 1024 522 1064 q 399 965 460 985 z "},"Ȳ":{"ha":794,"x_min":14,"x_max":781,"o":"m 781 917 l 453 358 l 453 0 l 342 0 l 342 358 l 14 917 l 146 917 l 324 603 l 397 472 l 471 603 l 649 917 l 781 917 m 625 1115 l 625 1022 l 169 1022 l 169 1115 l 625 1115 z "},"Ỹ":{"ha":794,"x_min":14,"x_max":781,"o":"m 781 917 l 453 358 l 453 0 l 342 0 l 342 358 l 14 917 l 146 917 l 324 603 l 397 472 l 471 603 l 649 917 l 781 917 m 647 1190 q 492 1004 632 1004 q 426 1019 453 1004 q 379 1051 399 1033 q 341 1084 360 1069 q 300 1099 322 1099 q 254 1073 269 1099 q 232 1003 239 1047 l 144 1003 q 190 1142 151 1094 q 301 1189 228 1189 q 366 1174 339 1189 q 413 1142 393 1160 q 451 1109 433 1124 q 490 1094 469 1094 q 538 1120 522 1094 q 560 1190 553 1146 l 647 1190 z "},"Z":{"ha":875,"x_min":78,"x_max":799,"o":"m 799 104 l 799 0 l 78 0 l 78 99 l 649 813 l 92 813 l 92 917 l 781 917 l 781 818 l 210 104 l 799 104 z "},"Ź":{"ha":875,"x_min":78,"x_max":799,"o":"m 799 104 l 799 0 l 78 0 l 78 99 l 649 813 l 92 813 l 92 917 l 781 917 l 781 818 l 210 104 l 799 104 m 457 1253 l 574 1253 l 454 1032 l 365 1032 l 457 1253 z "},"Ž":{"ha":875,"x_min":78,"x_max":799,"o":"m 799 104 l 799 0 l 78 0 l 78 99 l 649 813 l 92 813 l 92 917 l 781 917 l 781 818 l 210 104 l 799 104 m 639 1253 l 486 1032 l 364 1032 l 211 1253 l 314 1253 l 425 1104 l 536 1253 l 639 1253 z "},"Ż":{"ha":875,"x_min":78,"x_max":799,"o":"m 799 104 l 799 0 l 78 0 l 78 99 l 649 813 l 92 813 l 92 917 l 781 917 l 781 818 l 210 104 l 799 104 m 425 1217 q 485 1194 463 1217 q 508 1133 508 1171 q 485 1073 508 1096 q 425 1050 463 1050 q 365 1073 388 1050 q 342 1133 342 1096 q 365 1194 342 1171 q 425 1217 388 1217 z "},"Ẓ":{"ha":875,"x_min":78,"x_max":799,"o":"m 799 104 l 799 0 l 78 0 l 78 99 l 649 813 l 92 813 l 92 917 l 781 917 l 781 818 l 210 104 l 799 104 m 425 -300 q 365 -277 388 -300 q 342 -217 342 -254 q 365 -156 342 -179 q 425 -133 388 -133 q 485 -156 463 -133 q 508 -217 508 -179 q 485 -277 508 -254 q 425 -300 463 -300 z "},"a":{"ha":786,"x_min":85,"x_max":750,"o":"m 535 449 q 493 569 535 526 q 375 611 451 611 q 253 580 303 611 q 179 479 203 549 l 89 535 q 192 660 117 613 q 378 708 267 708 q 514 683 453 708 q 610 605 575 657 q 646 471 646 553 l 646 135 q 699 85 646 85 q 750 92 725 85 l 744 4 q 672 -10 717 -10 q 584 15 621 -10 q 536 92 547 40 q 438 12 500 38 q 314 -14 375 -14 q 200 7 253 -14 q 116 70 147 28 q 85 175 85 113 q 137 303 85 253 q 282 372 189 354 l 535 422 l 535 449 m 199 181 q 233 110 199 138 q 329 83 267 83 q 430 102 383 83 q 506 159 476 121 q 535 257 535 197 l 535 331 l 333 289 q 232 250 265 275 q 199 181 199 225 z "},"á":{"ha":786,"x_min":85,"x_max":750,"o":"m 535 449 q 493 569 535 526 q 375 611 451 611 q 253 580 303 611 q 179 479 203 549 l 89 535 q 192 660 117 613 q 378 708 267 708 q 514 683 453 708 q 610 605 575 657 q 646 471 646 553 l 646 135 q 699 85 646 85 q 750 92 725 85 l 744 4 q 672 -10 717 -10 q 584 15 621 -10 q 536 92 547 40 q 438 12 500 38 q 314 -14 375 -14 q 200 7 253 -14 q 116 70 147 28 q 85 175 85 113 q 137 303 85 253 q 282 372 189 354 l 535 422 l 535 449 m 199 181 q 233 110 199 138 q 329 83 267 83 q 430 102 383 83 q 506 159 476 121 q 535 257 535 197 l 535 331 l 333 289 q 232 250 265 275 q 199 181 199 225 m 421 1042 l 542 1042 l 406 810 l 315 810 l 421 1042 z "},"ă":{"ha":786,"x_min":85,"x_max":750,"o":"m 535 449 q 493 569 535 526 q 375 611 451 611 q 253 580 303 611 q 179 479 203 549 l 89 535 q 192 660 117 613 q 378 708 267 708 q 514 683 453 708 q 610 605 575 657 q 646 471 646 553 l 646 135 q 699 85 646 85 q 750 92 725 85 l 744 4 q 672 -10 717 -10 q 584 15 621 -10 q 536 92 547 40 q 438 12 500 38 q 314 -14 375 -14 q 200 7 253 -14 q 116 70 147 28 q 85 175 85 113 q 137 303 85 253 q 282 372 189 354 l 535 422 l 535 449 m 199 181 q 233 110 199 138 q 329 83 267 83 q 430 102 383 83 q 506 159 476 121 q 535 257 535 197 l 535 331 l 333 289 q 232 250 265 275 q 199 181 199 225 m 589 1007 q 532 858 589 915 q 383 801 475 801 q 235 858 292 801 q 178 1007 178 915 l 268 1007 q 299 922 269 958 q 383 885 328 885 q 469 922 440 885 q 499 1007 497 958 l 589 1007 z "},"ắ":{"ha":786,"x_min":85,"x_max":750,"o":"m 315 1032 l 388 1213 l 503 1213 l 401 1032 l 315 1032 m 589 1007 q 532 858 589 915 q 383 801 475 801 q 235 858 292 801 q 178 1007 178 915 l 268 1007 q 299 922 269 958 q 383 885 328 885 q 469 922 440 885 q 499 1007 497 958 l 589 1007 m 535 449 q 493 569 535 526 q 375 611 451 611 q 253 580 303 611 q 179 479 203 549 l 89 535 q 192 660 117 613 q 378 708 267 708 q 514 683 453 708 q 610 605 575 657 q 646 471 646 553 l 646 135 q 699 85 646 85 q 750 92 725 85 l 744 4 q 672 -10 717 -10 q 584 15 621 -10 q 536 92 547 40 q 438 12 500 38 q 314 -14 375 -14 q 200 7 253 -14 q 116 70 147 28 q 85 175 85 113 q 137 303 85 253 q 282 372 189 354 l 535 422 l 535 449 m 199 181 q 233 110 199 138 q 329 83 267 83 q 430 102 383 83 q 506 159 476 121 q 535 257 535 197 l 535 331 l 333 289 q 232 250 265 275 q 199 181 199 225 z "},"ặ":{"ha":786,"x_min":85,"x_max":750,"o":"m 535 449 q 493 569 535 526 q 375 611 451 611 q 253 580 303 611 q 179 479 203 549 l 89 535 q 192 660 117 613 q 378 708 267 708 q 514 683 453 708 q 610 605 575 657 q 646 471 646 553 l 646 135 q 699 85 646 85 q 750 92 725 85 l 744 4 q 672 -10 717 -10 q 584 15 621 -10 q 536 92 547 40 q 438 12 500 38 q 314 -14 375 -14 q 200 7 253 -14 q 116 70 147 28 q 85 175 85 113 q 137 303 85 253 q 282 372 189 354 l 535 422 l 535 449 m 199 181 q 233 110 199 138 q 329 83 267 83 q 430 102 383 83 q 506 159 476 121 q 535 257 535 197 l 535 331 l 333 289 q 232 250 265 275 q 199 181 199 225 m 383 -300 q 323 -277 346 -300 q 300 -217 300 -254 q 323 -156 300 -179 q 383 -133 346 -133 q 444 -156 421 -133 q 467 -217 467 -179 q 444 -277 467 -254 q 383 -300 421 -300 m 589 1007 q 532 858 589 915 q 383 801 475 801 q 235 858 292 801 q 178 1007 178 915 l 268 1007 q 299 922 269 958 q 383 885 328 885 q 469 922 440 885 q 499 1007 497 958 l 589 1007 z "},"ằ":{"ha":786,"x_min":85,"x_max":750,"o":"m 451 1032 l 365 1032 l 264 1213 l 379 1213 l 451 1032 m 589 1007 q 532 858 589 915 q 383 801 475 801 q 235 858 292 801 q 178 1007 178 915 l 268 1007 q 299 922 269 958 q 383 885 328 885 q 469 922 440 885 q 499 1007 497 958 l 589 1007 m 535 449 q 493 569 535 526 q 375 611 451 611 q 253 580 303 611 q 179 479 203 549 l 89 535 q 192 660 117 613 q 378 708 267 708 q 514 683 453 708 q 610 605 575 657 q 646 471 646 553 l 646 135 q 699 85 646 85 q 750 92 725 85 l 744 4 q 672 -10 717 -10 q 584 15 621 -10 q 536 92 547 40 q 438 12 500 38 q 314 -14 375 -14 q 200 7 253 -14 q 116 70 147 28 q 85 175 85 113 q 137 303 85 253 q 282 372 189 354 l 535 422 l 535 449 m 199 181 q 233 110 199 138 q 329 83 267 83 q 430 102 383 83 q 506 159 476 121 q 535 257 535 197 l 535 331 l 333 289 q 232 250 265 275 q 199 181 199 225 z "},"ẳ":{"ha":786,"x_min":85,"x_max":750,"o":"m 385 1011 l 346 1056 q 400 1094 382 1075 q 418 1143 418 1113 q 404 1178 418 1164 q 364 1193 390 1193 q 300 1151 324 1193 l 235 1196 q 292 1256 256 1235 q 381 1278 329 1278 q 474 1243 439 1278 q 508 1158 508 1208 q 477 1070 508 1110 q 385 1011 446 1031 m 589 1007 q 532 858 589 915 q 383 801 475 801 q 235 858 292 801 q 178 1007 178 915 l 268 1007 q 299 922 269 958 q 383 885 328 885 q 469 922 440 885 q 499 1007 497 958 l 589 1007 m 535 449 q 493 569 535 526 q 375 611 451 611 q 253 580 303 611 q 179 479 203 549 l 89 535 q 192 660 117 613 q 378 708 267 708 q 514 683 453 708 q 610 605 575 657 q 646 471 646 553 l 646 135 q 699 85 646 85 q 750 92 725 85 l 744 4 q 672 -10 717 -10 q 584 15 621 -10 q 536 92 547 40 q 438 12 500 38 q 314 -14 375 -14 q 200 7 253 -14 q 116 70 147 28 q 85 175 85 113 q 137 303 85 253 q 282 372 189 354 l 535 422 l 535 449 m 199 181 q 233 110 199 138 q 329 83 267 83 q 430 102 383 83 q 506 159 476 121 q 535 257 535 197 l 535 331 l 333 289 q 232 250 265 275 q 199 181 199 225 z "},"ẵ":{"ha":786,"x_min":85,"x_max":750,"o":"m 626 1231 q 580 1099 619 1142 q 475 1057 540 1057 q 410 1070 436 1057 q 367 1100 385 1083 q 331 1130 349 1117 q 292 1143 314 1143 q 249 1122 264 1143 q 228 1060 235 1101 l 140 1060 q 293 1233 154 1233 q 356 1220 331 1233 q 401 1190 382 1207 q 436 1160 419 1174 q 474 1147 453 1147 q 517 1168 501 1147 q 539 1231 532 1189 l 626 1231 m 590 1007 q 533 858 590 915 q 385 801 476 801 q 236 858 293 801 q 179 1007 179 915 l 269 1007 q 300 922 271 958 q 385 885 329 885 q 470 922 442 885 q 500 1007 499 958 l 590 1007 m 535 449 q 493 569 535 526 q 375 611 451 611 q 253 580 303 611 q 179 479 203 549 l 89 535 q 192 660 117 613 q 378 708 267 708 q 514 683 453 708 q 610 605 575 657 q 646 471 646 553 l 646 135 q 699 85 646 85 q 750 92 725 85 l 744 4 q 672 -10 717 -10 q 584 15 621 -10 q 536 92 547 40 q 438 12 500 38 q 314 -14 375 -14 q 200 7 253 -14 q 116 70 147 28 q 85 175 85 113 q 137 303 85 253 q 282 372 189 354 l 535 422 l 535 449 m 199 181 q 233 110 199 138 q 329 83 267 83 q 430 102 383 83 q 506 159 476 121 q 535 257 535 197 l 535 331 l 333 289 q 232 250 265 275 q 199 181 199 225 z "},"â":{"ha":786,"x_min":85,"x_max":750,"o":"m 535 449 q 493 569 535 526 q 375 611 451 611 q 253 580 303 611 q 179 479 203 549 l 89 535 q 192 660 117 613 q 378 708 267 708 q 514 683 453 708 q 610 605 575 657 q 646 471 646 553 l 646 135 q 699 85 646 85 q 750 92 725 85 l 744 4 q 672 -10 717 -10 q 584 15 621 -10 q 536 92 547 40 q 438 12 500 38 q 314 -14 375 -14 q 200 7 253 -14 q 116 70 147 28 q 85 175 85 113 q 137 303 85 253 q 282 372 189 354 l 535 422 l 535 449 m 199 181 q 233 110 199 138 q 329 83 267 83 q 430 102 383 83 q 506 159 476 121 q 535 257 535 197 l 535 331 l 333 289 q 232 250 265 275 q 199 181 199 225 m 604 800 l 503 800 l 383 960 l 264 800 l 163 800 l 321 1032 l 446 1032 l 604 800 z "},"ấ":{"ha":786,"x_min":85,"x_max":750,"o":"m 636 1161 l 740 1161 l 633 963 l 553 963 l 636 1161 m 604 800 l 503 800 l 383 960 l 264 800 l 163 800 l 321 1032 l 446 1032 l 604 800 m 535 449 q 493 569 535 526 q 375 611 451 611 q 253 580 303 611 q 179 479 203 549 l 89 535 q 192 660 117 613 q 378 708 267 708 q 514 683 453 708 q 610 605 575 657 q 646 471 646 553 l 646 135 q 699 85 646 85 q 750 92 725 85 l 744 4 q 672 -10 717 -10 q 584 15 621 -10 q 536 92 547 40 q 438 12 500 38 q 314 -14 375 -14 q 200 7 253 -14 q 116 70 147 28 q 85 175 85 113 q 137 303 85 253 q 282 372 189 354 l 535 422 l 535 449 m 199 181 q 233 110 199 138 q 329 83 267 83 q 430 102 383 83 q 506 159 476 121 q 535 257 535 197 l 535 331 l 333 289 q 232 250 265 275 q 199 181 199 225 z "},"ậ":{"ha":786,"x_min":85,"x_max":750,"o":"m 535 449 q 493 569 535 526 q 375 611 451 611 q 253 580 303 611 q 179 479 203 549 l 89 535 q 192 660 117 613 q 378 708 267 708 q 514 683 453 708 q 610 605 575 657 q 646 471 646 553 l 646 135 q 699 85 646 85 q 750 92 725 85 l 744 4 q 672 -10 717 -10 q 584 15 621 -10 q 536 92 547 40 q 438 12 500 38 q 314 -14 375 -14 q 200 7 253 -14 q 116 70 147 28 q 85 175 85 113 q 137 303 85 253 q 282 372 189 354 l 535 422 l 535 449 m 199 181 q 233 110 199 138 q 329 83 267 83 q 430 102 383 83 q 506 159 476 121 q 535 257 535 197 l 535 331 l 333 289 q 232 250 265 275 q 199 181 199 225 m 383 -300 q 323 -277 346 -300 q 300 -217 300 -254 q 323 -156 300 -179 q 383 -133 346 -133 q 444 -156 421 -133 q 467 -217 467 -179 q 444 -277 467 -254 q 383 -300 421 -300 m 604 800 l 503 800 l 383 960 l 264 800 l 163 800 l 321 1032 l 446 1032 l 604 800 z "},"ầ":{"ha":786,"x_min":85,"x_max":750,"o":"m 578 1161 l 661 963 l 581 963 l 474 1161 l 578 1161 m 604 800 l 503 800 l 383 960 l 264 800 l 163 800 l 321 1032 l 446 1032 l 604 800 m 535 449 q 493 569 535 526 q 375 611 451 611 q 253 580 303 611 q 179 479 203 549 l 89 535 q 192 660 117 613 q 378 708 267 708 q 514 683 453 708 q 610 605 575 657 q 646 471 646 553 l 646 135 q 699 85 646 85 q 750 92 725 85 l 744 4 q 672 -10 717 -10 q 584 15 621 -10 q 536 92 547 40 q 438 12 500 38 q 314 -14 375 -14 q 200 7 253 -14 q 116 70 147 28 q 85 175 85 113 q 137 303 85 253 q 282 372 189 354 l 535 422 l 535 449 m 199 181 q 233 110 199 138 q 329 83 267 83 q 430 102 383 83 q 506 159 476 121 q 535 257 535 197 l 535 331 l 333 289 q 232 250 265 275 q 199 181 199 225 z "},"ẩ":{"ha":786,"x_min":85,"x_max":750,"o":"m 608 935 l 569 979 q 624 1017 606 999 q 642 1067 642 1036 q 628 1102 642 1088 q 588 1117 614 1117 q 524 1075 547 1117 l 458 1119 q 516 1180 479 1158 q 604 1201 553 1201 q 697 1167 663 1201 q 732 1082 732 1132 q 701 994 732 1033 q 608 935 669 954 m 604 800 l 503 800 l 383 960 l 264 800 l 163 800 l 321 1032 l 446 1032 l 604 800 m 535 449 q 493 569 535 526 q 375 611 451 611 q 253 580 303 611 q 179 479 203 549 l 89 535 q 192 660 117 613 q 378 708 267 708 q 514 683 453 708 q 610 605 575 657 q 646 471 646 553 l 646 135 q 699 85 646 85 q 750 92 725 85 l 744 4 q 672 -10 717 -10 q 584 15 621 -10 q 536 92 547 40 q 438 12 500 38 q 314 -14 375 -14 q 200 7 253 -14 q 116 70 147 28 q 85 175 85 113 q 137 303 85 253 q 282 372 189 354 l 535 422 l 535 449 m 199 181 q 233 110 199 138 q 329 83 267 83 q 430 102 383 83 q 506 159 476 121 q 535 257 535 197 l 535 331 l 333 289 q 232 250 265 275 q 199 181 199 225 z "},"ẫ":{"ha":786,"x_min":85,"x_max":750,"o":"m 625 1243 q 578 1112 618 1154 q 474 1069 539 1069 q 409 1083 435 1069 q 365 1113 383 1096 q 330 1142 347 1129 q 290 1156 313 1156 q 248 1135 263 1156 q 226 1072 233 1114 l 139 1072 q 292 1246 153 1246 q 355 1233 329 1246 q 399 1203 381 1219 q 435 1173 418 1186 q 472 1160 451 1160 q 515 1181 500 1160 q 538 1243 531 1201 l 625 1243 m 604 800 l 503 800 l 383 960 l 264 800 l 163 800 l 321 1032 l 446 1032 l 604 800 m 535 449 q 493 569 535 526 q 375 611 451 611 q 253 580 303 611 q 179 479 203 549 l 89 535 q 192 660 117 613 q 378 708 267 708 q 514 683 453 708 q 610 605 575 657 q 646 471 646 553 l 646 135 q 699 85 646 85 q 750 92 725 85 l 744 4 q 672 -10 717 -10 q 584 15 621 -10 q 536 92 547 40 q 438 12 500 38 q 314 -14 375 -14 q 200 7 253 -14 q 116 70 147 28 q 85 175 85 113 q 137 303 85 253 q 282 372 189 354 l 535 422 l 535 449 m 199 181 q 233 110 199 138 q 329 83 267 83 q 430 102 383 83 q 506 159 476 121 q 535 257 535 197 l 535 331 l 333 289 q 232 250 265 275 q 199 181 199 225 z "},"ȁ":{"ha":786,"x_min":85,"x_max":750,"o":"m 535 449 q 493 569 535 526 q 375 611 451 611 q 253 580 303 611 q 179 479 203 549 l 89 535 q 192 660 117 613 q 378 708 267 708 q 514 683 453 708 q 610 605 575 657 q 646 471 646 553 l 646 135 q 699 85 646 85 q 750 92 725 85 l 744 4 q 672 -10 717 -10 q 584 15 621 -10 q 536 92 547 40 q 438 12 500 38 q 314 -14 375 -14 q 200 7 253 -14 q 116 70 147 28 q 85 175 85 113 q 137 303 85 253 q 282 372 189 354 l 535 422 l 535 449 m 199 181 q 233 110 199 138 q 329 83 267 83 q 430 102 383 83 q 506 159 476 121 q 535 257 535 197 l 535 331 l 333 289 q 232 250 265 275 q 199 181 199 225 m 321 810 l 231 810 l 94 1042 l 215 1042 l 321 810 m 565 810 l 475 810 l 339 1042 l 460 1042 l 565 810 z "},"ä":{"ha":786,"x_min":85,"x_max":750,"o":"m 535 449 q 493 569 535 526 q 375 611 451 611 q 253 580 303 611 q 179 479 203 549 l 89 535 q 192 660 117 613 q 378 708 267 708 q 514 683 453 708 q 610 605 575 657 q 646 471 646 553 l 646 135 q 699 85 646 85 q 750 92 725 85 l 744 4 q 672 -10 717 -10 q 584 15 621 -10 q 536 92 547 40 q 438 12 500 38 q 314 -14 375 -14 q 200 7 253 -14 q 116 70 147 28 q 85 175 85 113 q 137 303 85 253 q 282 372 189 354 l 535 422 l 535 449 m 199 181 q 233 110 199 138 q 329 83 267 83 q 430 102 383 83 q 506 159 476 121 q 535 257 535 197 l 535 331 l 333 289 q 232 250 265 275 q 199 181 199 225 m 249 967 q 306 945 285 967 q 328 888 328 924 q 306 831 328 853 q 249 808 285 808 q 192 831 214 808 q 169 888 169 853 q 192 945 169 924 q 249 967 214 967 m 518 967 q 576 945 554 967 q 597 888 597 924 q 576 831 597 853 q 518 808 554 808 q 461 831 483 808 q 439 888 439 853 q 461 945 439 924 q 518 967 483 967 z "},"ạ":{"ha":786,"x_min":85,"x_max":750,"o":"m 535 449 q 493 569 535 526 q 375 611 451 611 q 253 580 303 611 q 179 479 203 549 l 89 535 q 192 660 117 613 q 378 708 267 708 q 514 683 453 708 q 610 605 575 657 q 646 471 646 553 l 646 135 q 699 85 646 85 q 750 92 725 85 l 744 4 q 672 -10 717 -10 q 584 15 621 -10 q 536 92 547 40 q 438 12 500 38 q 314 -14 375 -14 q 200 7 253 -14 q 116 70 147 28 q 85 175 85 113 q 137 303 85 253 q 282 372 189 354 l 535 422 l 535 449 m 199 181 q 233 110 199 138 q 329 83 267 83 q 430 102 383 83 q 506 159 476 121 q 535 257 535 197 l 535 331 l 333 289 q 232 250 265 275 q 199 181 199 225 m 383 -300 q 323 -277 346 -300 q 300 -217 300 -254 q 323 -156 300 -179 q 383 -133 346 -133 q 444 -156 421 -133 q 467 -217 467 -179 q 444 -277 467 -254 q 383 -300 421 -300 z "},"à":{"ha":786,"x_min":85,"x_max":750,"o":"m 535 449 q 493 569 535 526 q 375 611 451 611 q 253 580 303 611 q 179 479 203 549 l 89 535 q 192 660 117 613 q 378 708 267 708 q 514 683 453 708 q 610 605 575 657 q 646 471 646 553 l 646 135 q 699 85 646 85 q 750 92 725 85 l 744 4 q 672 -10 717 -10 q 584 15 621 -10 q 536 92 547 40 q 438 12 500 38 q 314 -14 375 -14 q 200 7 253 -14 q 116 70 147 28 q 85 175 85 113 q 137 303 85 253 q 282 372 189 354 l 535 422 l 535 449 m 199 181 q 233 110 199 138 q 329 83 267 83 q 430 102 383 83 q 506 159 476 121 q 535 257 535 197 l 535 331 l 333 289 q 232 250 265 275 q 199 181 199 225 m 336 1042 l 442 810 l 351 810 l 215 1042 l 336 1042 z "},"ả":{"ha":786,"x_min":85,"x_max":750,"o":"m 535 449 q 493 569 535 526 q 375 611 451 611 q 253 580 303 611 q 179 479 203 549 l 89 535 q 192 660 117 613 q 378 708 267 708 q 514 683 453 708 q 610 605 575 657 q 646 471 646 553 l 646 135 q 699 85 646 85 q 750 92 725 85 l 744 4 q 672 -10 717 -10 q 584 15 621 -10 q 536 92 547 40 q 438 12 500 38 q 314 -14 375 -14 q 200 7 253 -14 q 116 70 147 28 q 85 175 85 113 q 137 303 85 253 q 282 372 189 354 l 535 422 l 535 449 m 199 181 q 233 110 199 138 q 329 83 267 83 q 430 102 383 83 q 506 159 476 121 q 535 257 535 197 l 535 331 l 333 289 q 232 250 265 275 q 199 181 199 225 m 368 763 l 329 817 q 391 856 371 836 q 411 906 411 875 q 396 945 411 929 q 353 961 381 961 q 286 914 314 961 l 222 958 q 280 1024 242 1003 q 369 1046 318 1046 q 466 1010 431 1046 q 501 921 501 974 q 468 830 501 871 q 368 763 435 789 z "},"ȃ":{"ha":786,"x_min":85,"x_max":750,"o":"m 535 449 q 493 569 535 526 q 375 611 451 611 q 253 580 303 611 q 179 479 203 549 l 89 535 q 192 660 117 613 q 378 708 267 708 q 514 683 453 708 q 610 605 575 657 q 646 471 646 553 l 646 135 q 699 85 646 85 q 750 92 725 85 l 744 4 q 672 -10 717 -10 q 584 15 621 -10 q 536 92 547 40 q 438 12 500 38 q 314 -14 375 -14 q 200 7 253 -14 q 116 70 147 28 q 85 175 85 113 q 137 303 85 253 q 282 372 189 354 l 535 422 l 535 449 m 199 181 q 233 110 199 138 q 329 83 267 83 q 430 102 383 83 q 506 159 476 121 q 535 257 535 197 l 535 331 l 333 289 q 232 250 265 275 q 199 181 199 225 m 589 801 l 499 801 q 469 887 497 850 q 383 924 440 924 q 299 887 328 924 q 268 801 269 850 l 178 801 q 235 950 178 893 q 383 1007 292 1007 q 532 950 475 1007 q 589 801 589 893 z "},"ā":{"ha":786,"x_min":85,"x_max":750,"o":"m 535 449 q 493 569 535 526 q 375 611 451 611 q 253 580 303 611 q 179 479 203 549 l 89 535 q 192 660 117 613 q 378 708 267 708 q 514 683 453 708 q 610 605 575 657 q 646 471 646 553 l 646 135 q 699 85 646 85 q 750 92 725 85 l 744 4 q 672 -10 717 -10 q 584 15 621 -10 q 536 92 547 40 q 438 12 500 38 q 314 -14 375 -14 q 200 7 253 -14 q 116 70 147 28 q 85 175 85 113 q 137 303 85 253 q 282 372 189 354 l 535 422 l 535 449 m 199 181 q 233 110 199 138 q 329 83 267 83 q 430 102 383 83 q 506 159 476 121 q 535 257 535 197 l 535 331 l 333 289 q 232 250 265 275 q 199 181 199 225 m 611 921 l 611 828 l 156 828 l 156 921 l 611 921 z "},"ą":{"ha":786,"x_min":85,"x_max":750,"o":"m 535 449 q 493 569 535 526 q 375 611 451 611 q 253 580 303 611 q 179 479 203 549 l 89 535 q 192 660 117 613 q 378 708 267 708 q 514 683 453 708 q 610 605 575 657 q 646 471 646 553 l 646 135 q 699 85 646 85 q 750 92 725 85 l 744 4 q 738 1 742 3 q 598 -85 638 -44 q 558 -164 558 -126 q 583 -218 558 -199 q 647 -237 608 -237 q 686 -234 665 -237 q 724 -221 707 -231 l 746 -292 q 695 -310 726 -304 q 633 -317 664 -317 q 513 -278 558 -317 q 468 -179 468 -239 q 503 -74 468 -117 q 606 3 538 -32 q 536 92 550 28 q 438 12 500 38 q 314 -14 375 -14 q 200 7 253 -14 q 116 70 147 28 q 85 175 85 113 q 137 303 85 253 q 282 372 189 354 l 535 422 l 535 449 m 199 181 q 233 110 199 138 q 329 83 267 83 q 430 102 383 83 q 506 159 476 121 q 535 257 535 197 l 535 331 l 333 289 q 232 250 265 275 q 199 181 199 225 z "},"å":{"ha":786,"x_min":85,"x_max":750,"o":"m 535 449 q 493 569 535 526 q 375 611 451 611 q 253 580 303 611 q 179 479 203 549 l 89 535 q 192 660 117 613 q 378 708 267 708 q 514 683 453 708 q 610 605 575 657 q 646 471 646 553 l 646 135 q 699 85 646 85 q 750 92 725 85 l 744 4 q 672 -10 717 -10 q 584 15 621 -10 q 536 92 547 40 q 438 12 500 38 q 314 -14 375 -14 q 200 7 253 -14 q 116 70 147 28 q 85 175 85 113 q 137 303 85 253 q 282 372 189 354 l 535 422 l 535 449 m 199 181 q 233 110 199 138 q 329 83 267 83 q 430 102 383 83 q 506 159 476 121 q 535 257 535 197 l 535 331 l 333 289 q 232 250 265 275 q 199 181 199 225 m 379 1128 q 505 1083 457 1128 q 553 964 553 1038 q 505 844 553 890 q 379 799 457 799 q 253 844 301 799 q 204 964 204 890 q 253 1083 204 1038 q 379 1128 301 1128 m 379 1060 q 308 1033 336 1060 q 281 964 281 1006 q 308 895 281 922 q 379 868 336 868 q 450 895 422 868 q 478 964 478 922 q 450 1033 478 1006 q 379 1060 422 1060 z "},"ǻ":{"ha":786,"x_min":85,"x_max":750,"o":"m 535 449 q 493 569 535 526 q 375 611 451 611 q 253 580 303 611 q 179 479 203 549 l 89 535 q 192 660 117 613 q 378 708 267 708 q 514 683 453 708 q 610 605 575 657 q 646 471 646 553 l 646 135 q 699 85 646 85 q 750 92 725 85 l 744 4 q 672 -10 717 -10 q 584 15 621 -10 q 536 92 547 40 q 438 12 500 38 q 314 -14 375 -14 q 200 7 253 -14 q 116 70 147 28 q 85 175 85 113 q 137 303 85 253 q 282 372 189 354 l 535 422 l 535 449 m 199 181 q 233 110 199 138 q 329 83 267 83 q 430 102 383 83 q 506 159 476 121 q 535 257 535 197 l 535 331 l 333 289 q 232 250 265 275 q 199 181 199 225 m 379 1128 q 505 1083 457 1128 q 553 964 553 1038 q 505 844 553 890 q 379 799 457 799 q 253 844 301 799 q 204 964 204 890 q 253 1083 204 1038 q 379 1128 301 1128 m 379 1060 q 308 1033 336 1060 q 281 964 281 1006 q 308 895 281 922 q 379 868 336 868 q 450 895 422 868 q 478 964 478 922 q 450 1033 478 1006 q 379 1060 422 1060 m 338 1183 l 410 1364 l 525 1364 l 424 1183 l 338 1183 z "},"ã":{"ha":786,"x_min":85,"x_max":750,"o":"m 535 449 q 493 569 535 526 q 375 611 451 611 q 253 580 303 611 q 179 479 203 549 l 89 535 q 192 660 117 613 q 378 708 267 708 q 514 683 453 708 q 610 605 575 657 q 646 471 646 553 l 646 135 q 699 85 646 85 q 750 92 725 85 l 744 4 q 672 -10 717 -10 q 584 15 621 -10 q 536 92 547 40 q 438 12 500 38 q 314 -14 375 -14 q 200 7 253 -14 q 116 70 147 28 q 85 175 85 113 q 137 303 85 253 q 282 372 189 354 l 535 422 l 535 449 m 199 181 q 233 110 199 138 q 329 83 267 83 q 430 102 383 83 q 506 159 476 121 q 535 257 535 197 l 535 331 l 333 289 q 232 250 265 275 q 199 181 199 225 m 633 996 q 478 810 618 810 q 412 824 439 810 q 365 857 385 839 q 327 890 346 875 q 286 904 308 904 q 240 878 256 904 q 218 808 225 853 l 131 808 q 176 947 138 900 q 288 994 214 994 q 352 980 325 994 q 399 947 379 965 q 438 915 419 929 q 476 900 456 900 q 524 926 508 900 q 546 996 539 951 l 633 996 z "},"æ":{"ha":1243,"x_min":85,"x_max":1161,"o":"m 319 -14 q 202 7 256 -14 q 117 70 149 28 q 85 175 85 113 q 135 303 85 253 q 276 371 186 353 l 535 422 l 535 449 q 490 569 535 526 q 374 611 444 611 q 258 580 308 611 q 179 479 207 549 l 89 535 q 194 660 121 613 q 371 708 268 708 q 515 678 453 708 q 610 583 578 649 q 717 676 651 643 q 864 708 783 708 q 1023 667 957 708 q 1125 553 1089 625 q 1161 393 1161 482 q 1160 350 1161 369 q 1156 315 1158 331 l 647 315 q 715 144 654 206 q 868 83 776 83 q 984 113 938 83 q 1060 192 1031 142 l 1147 140 q 1037 28 1108 69 q 871 -14 965 -14 q 707 24 779 -14 q 593 138 635 63 q 529 56 572 90 q 431 4 486 22 q 319 -14 376 -14 m 651 414 l 1050 414 q 994 560 1047 508 q 861 611 942 611 q 722 560 776 611 q 651 414 667 508 m 329 83 q 430 102 383 83 q 506 159 476 121 q 535 257 535 197 l 535 329 l 333 289 q 232 250 265 275 q 199 181 199 225 q 233 110 199 138 q 329 83 267 83 z "},"ǽ":{"ha":1243,"x_min":85,"x_max":1161,"o":"m 319 -14 q 202 7 256 -14 q 117 70 149 28 q 85 175 85 113 q 135 303 85 253 q 276 371 186 353 l 535 422 l 535 449 q 490 569 535 526 q 374 611 444 611 q 258 580 308 611 q 179 479 207 549 l 89 535 q 194 660 121 613 q 371 708 268 708 q 515 678 453 708 q 610 583 578 649 q 717 676 651 643 q 864 708 783 708 q 1023 667 957 708 q 1125 553 1089 625 q 1161 393 1161 482 q 1160 350 1161 369 q 1156 315 1158 331 l 647 315 q 715 144 654 206 q 868 83 776 83 q 984 113 938 83 q 1060 192 1031 142 l 1147 140 q 1037 28 1108 69 q 871 -14 965 -14 q 707 24 779 -14 q 593 138 635 63 q 529 56 572 90 q 431 4 486 22 q 319 -14 376 -14 m 651 414 l 1050 414 q 994 560 1047 508 q 861 611 942 611 q 722 560 776 611 q 651 414 667 508 m 329 83 q 430 102 383 83 q 506 159 476 121 q 535 257 535 197 l 535 329 l 333 289 q 232 250 265 275 q 199 181 199 225 q 233 110 199 138 q 329 83 267 83 m 660 1042 l 781 1042 l 644 810 l 554 810 l 660 1042 z "},"b":{"ha":871,"x_min":129,"x_max":788,"o":"m 469 -14 q 328 24 390 -14 q 233 122 265 61 l 226 0 l 129 0 l 129 1014 l 240 1014 l 240 586 q 334 674 274 640 q 471 708 394 708 q 629 665 557 708 q 744 542 701 622 q 788 347 788 461 q 744 153 788 235 q 628 29 700 72 q 469 -14 556 -14 m 458 83 q 619 156 561 83 q 676 347 676 228 q 619 539 676 467 q 460 611 563 611 q 301 538 363 611 q 240 344 240 464 q 301 154 240 225 q 458 83 361 83 z "},"c":{"ha":778,"x_min":81,"x_max":711,"o":"m 417 708 q 594 659 524 708 q 704 524 665 610 l 599 474 q 531 576 576 540 q 414 611 486 611 q 251 541 310 611 q 192 347 192 471 q 251 153 192 224 q 414 83 310 83 q 544 121 496 83 q 608 226 593 158 l 711 190 q 602 40 676 94 q 417 -14 528 -14 q 243 29 319 -14 q 124 153 167 72 q 81 347 81 235 q 124 541 81 460 q 243 665 167 622 q 417 708 319 708 z "},"ć":{"ha":778,"x_min":81,"x_max":711,"o":"m 417 708 q 594 659 524 708 q 704 524 665 610 l 599 474 q 531 576 576 540 q 414 611 486 611 q 251 541 310 611 q 192 347 192 471 q 251 153 192 224 q 414 83 310 83 q 544 121 496 83 q 608 226 593 158 l 711 190 q 602 40 676 94 q 417 -14 528 -14 q 243 29 319 -14 q 124 153 167 72 q 81 347 81 235 q 124 541 81 460 q 243 665 167 622 q 417 708 319 708 m 443 1042 l 564 1042 l 428 810 l 338 810 l 443 1042 z "},"č":{"ha":778,"x_min":81,"x_max":711,"o":"m 417 708 q 594 659 524 708 q 704 524 665 610 l 599 474 q 531 576 576 540 q 414 611 486 611 q 251 541 310 611 q 192 347 192 471 q 251 153 192 224 q 414 83 310 83 q 544 121 496 83 q 608 226 593 158 l 711 190 q 602 40 676 94 q 417 -14 528 -14 q 243 29 319 -14 q 124 153 167 72 q 81 347 81 235 q 124 541 81 460 q 243 665 167 622 q 417 708 319 708 m 626 1042 l 468 810 l 343 810 l 185 1042 l 286 1042 l 406 882 l 525 1042 l 626 1042 z "},"ç":{"ha":778,"x_min":81,"x_max":711,"o":"m 417 708 q 594 659 524 708 q 704 524 665 610 l 599 474 q 531 576 576 540 q 414 611 486 611 q 251 541 310 611 q 192 347 192 471 q 251 153 192 224 q 414 83 310 83 q 544 121 496 83 q 608 226 593 158 l 711 190 q 602 40 676 94 q 417 -14 528 -14 q 243 29 319 -14 q 124 153 167 72 q 81 347 81 235 q 124 541 81 460 q 243 665 167 622 q 417 708 319 708 m 339 6 l 397 40 q 514 -31 479 14 q 549 -137 549 -76 q 501 -251 549 -204 q 381 -299 454 -299 q 305 -287 338 -299 q 249 -258 272 -276 l 275 -178 q 316 -200 294 -190 q 368 -210 338 -210 q 432 -185 407 -210 q 457 -112 457 -160 q 431 -50 457 -76 q 339 6 404 -24 z "},"ḉ":{"ha":778,"x_min":81,"x_max":711,"o":"m 417 708 q 594 659 524 708 q 704 524 665 610 l 599 474 q 531 576 576 540 q 414 611 486 611 q 251 541 310 611 q 192 347 192 471 q 251 153 192 224 q 414 83 310 83 q 544 121 496 83 q 608 226 593 158 l 711 190 q 602 40 676 94 q 417 -14 528 -14 q 243 29 319 -14 q 124 153 167 72 q 81 347 81 235 q 124 541 81 460 q 243 665 167 622 q 417 708 319 708 m 339 6 l 397 40 q 514 -31 479 14 q 549 -137 549 -76 q 501 -251 549 -204 q 381 -299 454 -299 q 305 -287 338 -299 q 249 -258 272 -276 l 275 -178 q 316 -200 294 -190 q 368 -210 338 -210 q 432 -185 407 -210 q 457 -112 457 -160 q 431 -50 457 -76 q 339 6 404 -24 m 443 1042 l 564 1042 l 428 810 l 338 810 l 443 1042 z "},"ĉ":{"ha":778,"x_min":81,"x_max":711,"o":"m 417 708 q 594 659 524 708 q 704 524 665 610 l 599 474 q 531 576 576 540 q 414 611 486 611 q 251 541 310 611 q 192 347 192 471 q 251 153 192 224 q 414 83 310 83 q 544 121 496 83 q 608 226 593 158 l 711 190 q 602 40 676 94 q 417 -14 528 -14 q 243 29 319 -14 q 124 153 167 72 q 81 347 81 235 q 124 541 81 460 q 243 665 167 622 q 417 708 319 708 m 626 800 l 525 800 l 406 960 l 286 800 l 185 800 l 343 1032 l 468 1032 l 626 800 z "},"ċ":{"ha":778,"x_min":81,"x_max":711,"o":"m 417 708 q 594 659 524 708 q 704 524 665 610 l 599 474 q 531 576 576 540 q 414 611 486 611 q 251 541 310 611 q 192 347 192 471 q 251 153 192 224 q 414 83 310 83 q 544 121 496 83 q 608 226 593 158 l 711 190 q 602 40 676 94 q 417 -14 528 -14 q 243 29 319 -14 q 124 153 167 72 q 81 347 81 235 q 124 541 81 460 q 243 665 167 622 q 417 708 319 708 m 406 994 q 466 972 443 994 q 489 911 489 949 q 466 851 489 874 q 406 828 443 828 q 345 851 368 828 q 322 911 322 874 q 345 972 322 949 q 406 994 368 994 z "},"d":{"ha":871,"x_min":83,"x_max":742,"o":"m 400 -14 q 242 29 314 -14 q 126 153 169 72 q 83 347 83 235 q 129 543 83 463 q 250 666 175 624 q 411 708 325 708 q 544 674 486 708 q 631 582 603 640 l 631 1014 l 742 1014 l 742 0 l 644 0 l 638 131 q 543 23 608 60 q 400 -14 478 -14 m 411 83 q 570 157 510 83 q 631 357 631 231 q 571 544 631 476 q 417 611 511 611 q 253 539 311 611 q 194 347 194 467 q 251 156 194 228 q 411 83 308 83 z "},"ð":{"ha":861,"x_min":86,"x_max":767,"o":"m 414 -14 q 174 78 263 -14 q 86 331 86 169 q 129 515 86 438 q 246 633 172 592 q 411 674 319 674 q 544 651 488 674 q 638 586 600 628 q 536 804 606 711 l 288 740 l 267 825 l 479 872 q 285 1014 401 950 l 439 1014 q 586 897 524 964 l 743 942 l 767 860 l 640 831 q 758 400 758 660 q 721 185 758 279 q 608 39 683 92 q 414 -14 532 -14 m 419 83 q 544 118 493 83 q 623 209 596 153 q 650 331 650 265 q 590 511 650 446 q 426 576 531 576 q 261 511 321 576 q 201 331 201 446 q 260 149 201 214 q 419 83 319 83 z "},"ď":{"ha":903,"x_min":83,"x_max":954,"o":"m 954 1014 l 897 740 l 821 740 l 849 1014 l 954 1014 m 400 -14 q 242 29 314 -14 q 126 153 169 72 q 83 347 83 235 q 129 543 83 463 q 250 666 175 624 q 411 708 325 708 q 544 674 486 708 q 631 582 603 640 l 631 1014 l 742 1014 l 742 0 l 644 0 l 638 131 q 543 23 608 60 q 400 -14 478 -14 m 411 83 q 570 157 510 83 q 631 357 631 231 q 571 544 631 476 q 417 611 511 611 q 253 539 311 611 q 194 347 194 467 q 251 156 194 228 q 411 83 308 83 z "},"đ":{"ha":874,"x_min":83,"x_max":853,"o":"m 400 -14 q 242 29 314 -14 q 126 153 169 72 q 83 347 83 235 q 129 543 83 463 q 250 666 175 624 q 411 708 325 708 q 544 674 486 708 q 631 582 603 640 l 631 786 l 417 786 l 417 871 l 631 871 l 631 1014 l 742 1014 l 742 871 l 853 871 l 853 786 l 742 786 l 742 0 l 644 0 l 638 131 q 543 23 608 60 q 400 -14 478 -14 m 411 83 q 570 157 510 83 q 631 357 631 231 q 571 544 631 476 q 417 611 511 611 q 253 539 311 611 q 194 347 194 467 q 251 156 194 228 q 411 83 308 83 z "},"ḍ":{"ha":871,"x_min":83,"x_max":742,"o":"m 400 -14 q 242 29 314 -14 q 126 153 169 72 q 83 347 83 235 q 129 543 83 463 q 250 666 175 624 q 411 708 325 708 q 544 674 486 708 q 631 582 603 640 l 631 1014 l 742 1014 l 742 0 l 644 0 l 638 131 q 543 23 608 60 q 400 -14 478 -14 m 411 83 q 570 157 510 83 q 631 357 631 231 q 571 544 631 476 q 417 611 511 611 q 253 539 311 611 q 194 347 194 467 q 251 156 194 228 q 411 83 308 83 m 424 -300 q 363 -277 386 -300 q 340 -217 340 -254 q 363 -156 340 -179 q 424 -133 386 -133 q 484 -156 461 -133 q 507 -217 507 -179 q 484 -277 507 -254 q 424 -300 461 -300 z "},"ḏ":{"ha":871,"x_min":83,"x_max":742,"o":"m 400 -14 q 242 29 314 -14 q 126 153 169 72 q 83 347 83 235 q 129 543 83 463 q 250 666 175 624 q 411 708 325 708 q 544 674 486 708 q 631 582 603 640 l 631 1014 l 742 1014 l 742 0 l 644 0 l 638 131 q 543 23 608 60 q 400 -14 478 -14 m 411 83 q 570 157 510 83 q 631 357 631 231 q 571 544 631 476 q 417 611 511 611 q 253 539 311 611 q 194 347 194 467 q 251 156 194 228 q 411 83 308 83 z "},"ǳ":{"ha":1613,"x_min":83,"x_max":1536,"o":"m 400 -14 q 242 29 314 -14 q 126 153 169 72 q 83 347 83 235 q 129 543 83 463 q 250 666 175 624 q 411 708 325 708 q 544 674 486 708 q 631 582 603 640 l 631 1014 l 742 1014 l 742 0 l 644 0 l 638 131 q 543 23 608 60 q 400 -14 478 -14 m 411 83 q 570 157 510 83 q 631 357 631 231 q 571 544 631 476 q 417 611 511 611 q 253 539 311 611 q 194 347 194 467 q 251 156 194 228 q 411 83 308 83 m 950 0 l 950 85 l 1314 511 l 1401 601 l 1278 599 l 954 599 l 954 694 l 1525 694 l 1525 610 l 1161 183 l 1075 93 l 1210 96 l 1536 96 l 1536 0 l 950 0 z "},"ǆ":{"ha":1613,"x_min":83,"x_max":1536,"o":"m 400 -14 q 242 29 314 -14 q 126 153 169 72 q 83 347 83 235 q 129 543 83 463 q 250 666 175 624 q 411 708 325 708 q 544 674 486 708 q 631 582 603 640 l 631 1014 l 742 1014 l 742 0 l 644 0 l 638 131 q 543 23 608 60 q 400 -14 478 -14 m 411 83 q 570 157 510 83 q 631 357 631 231 q 571 544 631 476 q 417 611 511 611 q 253 539 311 611 q 194 347 194 467 q 251 156 194 228 q 411 83 308 83 z "},"e":{"ha":801,"x_min":81,"x_max":719,"o":"m 419 -14 q 244 29 321 -14 q 124 153 167 72 q 81 347 81 235 q 124 541 81 460 q 242 665 167 622 q 413 708 317 708 q 578 667 510 708 q 683 553 647 625 q 719 393 719 482 q 718 350 719 369 q 714 315 717 331 l 190 315 q 258 144 199 206 q 417 83 318 83 q 541 113 493 83 q 618 192 589 142 l 706 140 q 594 28 667 69 q 419 -14 521 -14 m 410 611 q 266 559 322 611 q 194 414 210 507 l 608 414 q 550 560 604 508 q 410 611 496 611 z "},"é":{"ha":801,"x_min":81,"x_max":719,"o":"m 419 -14 q 244 29 321 -14 q 124 153 167 72 q 81 347 81 235 q 124 541 81 460 q 242 665 167 622 q 413 708 317 708 q 578 667 510 708 q 683 553 647 625 q 719 393 719 482 q 718 350 719 369 q 714 315 717 331 l 190 315 q 258 144 199 206 q 417 83 318 83 q 541 113 493 83 q 618 192 589 142 l 706 140 q 594 28 667 69 q 419 -14 521 -14 m 410 611 q 266 559 322 611 q 194 414 210 507 l 608 414 q 550 560 604 508 q 410 611 496 611 m 442 1042 l 563 1042 l 426 810 l 336 810 l 442 1042 z "},"ĕ":{"ha":801,"x_min":81,"x_max":719,"o":"m 419 -14 q 244 29 321 -14 q 124 153 167 72 q 81 347 81 235 q 124 541 81 460 q 242 665 167 622 q 413 708 317 708 q 578 667 510 708 q 683 553 647 625 q 719 393 719 482 q 718 350 719 369 q 714 315 717 331 l 190 315 q 258 144 199 206 q 417 83 318 83 q 541 113 493 83 q 618 192 589 142 l 706 140 q 594 28 667 69 q 419 -14 521 -14 m 410 611 q 266 559 322 611 q 194 414 210 507 l 608 414 q 550 560 604 508 q 410 611 496 611 m 610 1007 q 553 858 610 915 q 404 801 496 801 q 256 858 313 801 q 199 1007 199 915 l 289 1007 q 319 922 290 958 q 404 885 349 885 q 490 922 461 885 q 519 1007 518 958 l 610 1007 z "},"ě":{"ha":801,"x_min":81,"x_max":719,"o":"m 419 -14 q 244 29 321 -14 q 124 153 167 72 q 81 347 81 235 q 124 541 81 460 q 242 665 167 622 q 413 708 317 708 q 578 667 510 708 q 683 553 647 625 q 719 393 719 482 q 718 350 719 369 q 714 315 717 331 l 190 315 q 258 144 199 206 q 417 83 318 83 q 541 113 493 83 q 618 192 589 142 l 706 140 q 594 28 667 69 q 419 -14 521 -14 m 410 611 q 266 559 322 611 q 194 414 210 507 l 608 414 q 550 560 604 508 q 410 611 496 611 m 625 1042 l 467 810 l 342 810 l 183 1042 l 285 1042 l 404 882 l 524 1042 l 625 1042 z "},"ḝ":{"ha":801,"x_min":81,"x_max":719,"o":"m 419 -14 q 244 29 321 -14 q 124 153 167 72 q 81 347 81 235 q 124 541 81 460 q 242 665 167 622 q 413 708 317 708 q 578 667 510 708 q 683 553 647 625 q 719 393 719 482 q 718 350 719 369 q 714 315 717 331 l 190 315 q 258 144 199 206 q 417 83 318 83 q 541 113 493 83 q 618 192 589 142 l 706 140 q 594 28 667 69 q 419 -14 521 -14 m 410 611 q 266 559 322 611 q 194 414 210 507 l 608 414 q 550 560 604 508 q 410 611 496 611 m 340 6 l 399 40 q 515 -31 481 14 q 550 -137 550 -76 q 503 -251 550 -204 q 382 -299 456 -299 q 306 -287 339 -299 q 250 -258 274 -276 l 276 -178 q 317 -200 296 -190 q 369 -210 339 -210 q 433 -185 408 -210 q 458 -112 458 -160 q 432 -50 458 -76 q 340 6 406 -24 m 610 1007 q 553 858 610 915 q 404 801 496 801 q 256 858 313 801 q 199 1007 199 915 l 289 1007 q 319 922 290 958 q 404 885 349 885 q 490 922 461 885 q 519 1007 518 958 l 610 1007 z "},"ê":{"ha":801,"x_min":81,"x_max":719,"o":"m 419 -14 q 244 29 321 -14 q 124 153 167 72 q 81 347 81 235 q 124 541 81 460 q 242 665 167 622 q 413 708 317 708 q 578 667 510 708 q 683 553 647 625 q 719 393 719 482 q 718 350 719 369 q 714 315 717 331 l 190 315 q 258 144 199 206 q 417 83 318 83 q 541 113 493 83 q 618 192 589 142 l 706 140 q 594 28 667 69 q 419 -14 521 -14 m 410 611 q 266 559 322 611 q 194 414 210 507 l 608 414 q 550 560 604 508 q 410 611 496 611 m 625 800 l 524 800 l 404 960 l 285 800 l 183 800 l 342 1032 l 467 1032 l 625 800 z "},"ế":{"ha":801,"x_min":81,"x_max":761,"o":"m 657 1161 l 761 1161 l 654 963 l 574 963 l 657 1161 m 625 800 l 524 800 l 404 960 l 285 800 l 183 800 l 342 1032 l 467 1032 l 625 800 m 419 -14 q 244 29 321 -14 q 124 153 167 72 q 81 347 81 235 q 124 541 81 460 q 242 665 167 622 q 413 708 317 708 q 578 667 510 708 q 683 553 647 625 q 719 393 719 482 q 718 350 719 369 q 714 315 717 331 l 190 315 q 258 144 199 206 q 417 83 318 83 q 541 113 493 83 q 618 192 589 142 l 706 140 q 594 28 667 69 q 419 -14 521 -14 m 410 611 q 266 559 322 611 q 194 414 210 507 l 608 414 q 550 560 604 508 q 410 611 496 611 z "},"ệ":{"ha":801,"x_min":81,"x_max":719,"o":"m 419 -14 q 244 29 321 -14 q 124 153 167 72 q 81 347 81 235 q 124 541 81 460 q 242 665 167 622 q 413 708 317 708 q 578 667 510 708 q 683 553 647 625 q 719 393 719 482 q 718 350 719 369 q 714 315 717 331 l 190 315 q 258 144 199 206 q 417 83 318 83 q 541 113 493 83 q 618 192 589 142 l 706 140 q 594 28 667 69 q 419 -14 521 -14 m 410 611 q 266 559 322 611 q 194 414 210 507 l 608 414 q 550 560 604 508 q 410 611 496 611 m 417 -300 q 356 -277 379 -300 q 333 -217 333 -254 q 356 -156 333 -179 q 417 -133 379 -133 q 477 -156 454 -133 q 500 -217 500 -179 q 477 -277 500 -254 q 417 -300 454 -300 m 625 800 l 524 800 l 404 960 l 285 800 l 183 800 l 342 1032 l 467 1032 l 625 800 z "},"ề":{"ha":801,"x_min":81,"x_max":719,"o":"m 599 1161 l 682 963 l 601 963 l 494 1161 l 599 1161 m 625 800 l 524 800 l 404 960 l 285 800 l 183 800 l 342 1032 l 467 1032 l 625 800 m 419 -14 q 244 29 321 -14 q 124 153 167 72 q 81 347 81 235 q 124 541 81 460 q 242 665 167 622 q 413 708 317 708 q 578 667 510 708 q 683 553 647 625 q 719 393 719 482 q 718 350 719 369 q 714 315 717 331 l 190 315 q 258 144 199 206 q 417 83 318 83 q 541 113 493 83 q 618 192 589 142 l 706 140 q 594 28 667 69 q 419 -14 521 -14 m 410 611 q 266 559 322 611 q 194 414 210 507 l 608 414 q 550 560 604 508 q 410 611 496 611 z "},"ể":{"ha":801,"x_min":81,"x_max":753,"o":"m 629 935 l 590 979 q 644 1017 626 999 q 663 1067 663 1036 q 649 1102 663 1088 q 608 1117 635 1117 q 544 1075 568 1117 l 479 1119 q 537 1180 500 1158 q 625 1201 574 1201 q 718 1167 683 1201 q 753 1082 753 1132 q 722 994 753 1033 q 629 935 690 954 m 625 800 l 524 800 l 404 960 l 285 800 l 183 800 l 342 1032 l 467 1032 l 625 800 m 419 -14 q 244 29 321 -14 q 124 153 167 72 q 81 347 81 235 q 124 541 81 460 q 242 665 167 622 q 413 708 317 708 q 578 667 510 708 q 683 553 647 625 q 719 393 719 482 q 718 350 719 369 q 714 315 717 331 l 190 315 q 258 144 199 206 q 417 83 318 83 q 541 113 493 83 q 618 192 589 142 l 706 140 q 594 28 667 69 q 419 -14 521 -14 m 410 611 q 266 559 322 611 q 194 414 210 507 l 608 414 q 550 560 604 508 q 410 611 496 611 z "},"ễ":{"ha":801,"x_min":81,"x_max":719,"o":"m 646 1243 q 599 1112 639 1154 q 494 1069 560 1069 q 430 1083 456 1069 q 386 1113 404 1096 q 351 1142 368 1129 q 311 1156 333 1156 q 269 1135 283 1156 q 247 1072 254 1114 l 160 1072 q 313 1246 174 1246 q 376 1233 350 1246 q 420 1203 401 1219 q 456 1173 439 1186 q 493 1160 472 1160 q 536 1181 521 1160 q 558 1243 551 1201 l 646 1243 m 625 800 l 524 800 l 404 960 l 285 800 l 183 800 l 342 1032 l 467 1032 l 625 800 m 419 -14 q 244 29 321 -14 q 124 153 167 72 q 81 347 81 235 q 124 541 81 460 q 242 665 167 622 q 413 708 317 708 q 578 667 510 708 q 683 553 647 625 q 719 393 719 482 q 718 350 719 369 q 714 315 717 331 l 190 315 q 258 144 199 206 q 417 83 318 83 q 541 113 493 83 q 618 192 589 142 l 706 140 q 594 28 667 69 q 419 -14 521 -14 m 410 611 q 266 559 322 611 q 194 414 210 507 l 608 414 q 550 560 604 508 q 410 611 496 611 z "},"ȅ":{"ha":801,"x_min":81,"x_max":719,"o":"m 419 -14 q 244 29 321 -14 q 124 153 167 72 q 81 347 81 235 q 124 541 81 460 q 242 665 167 622 q 413 708 317 708 q 578 667 510 708 q 683 553 647 625 q 719 393 719 482 q 718 350 719 369 q 714 315 717 331 l 190 315 q 258 144 199 206 q 417 83 318 83 q 541 113 493 83 q 618 192 589 142 l 706 140 q 594 28 667 69 q 419 -14 521 -14 m 410 611 q 266 559 322 611 q 194 414 210 507 l 608 414 q 550 560 604 508 q 410 611 496 611 m 342 810 l 251 810 l 115 1042 l 236 1042 l 342 810 m 586 810 l 496 810 l 360 1042 l 481 1042 l 586 810 z "},"ë":{"ha":801,"x_min":81,"x_max":719,"o":"m 419 -14 q 244 29 321 -14 q 124 153 167 72 q 81 347 81 235 q 124 541 81 460 q 242 665 167 622 q 413 708 317 708 q 578 667 510 708 q 683 553 647 625 q 719 393 719 482 q 718 350 719 369 q 714 315 717 331 l 190 315 q 258 144 199 206 q 417 83 318 83 q 541 113 493 83 q 618 192 589 142 l 706 140 q 594 28 667 69 q 419 -14 521 -14 m 410 611 q 266 559 322 611 q 194 414 210 507 l 608 414 q 550 560 604 508 q 410 611 496 611 m 269 967 q 327 945 306 967 q 349 888 349 924 q 327 831 349 853 q 269 808 306 808 q 213 831 235 808 q 190 888 190 853 q 213 945 190 924 q 269 967 235 967 m 539 967 q 597 945 575 967 q 618 888 618 924 q 597 831 618 853 q 539 808 575 808 q 482 831 504 808 q 460 888 460 853 q 482 945 460 924 q 539 967 504 967 z "},"ė":{"ha":801,"x_min":81,"x_max":719,"o":"m 419 -14 q 244 29 321 -14 q 124 153 167 72 q 81 347 81 235 q 124 541 81 460 q 242 665 167 622 q 413 708 317 708 q 578 667 510 708 q 683 553 647 625 q 719 393 719 482 q 718 350 719 369 q 714 315 717 331 l 190 315 q 258 144 199 206 q 417 83 318 83 q 541 113 493 83 q 618 192 589 142 l 706 140 q 594 28 667 69 q 419 -14 521 -14 m 410 611 q 266 559 322 611 q 194 414 210 507 l 608 414 q 550 560 604 508 q 410 611 496 611 m 404 994 q 465 972 442 994 q 488 911 488 949 q 465 851 488 874 q 404 828 442 828 q 344 851 367 828 q 321 911 321 874 q 344 972 321 949 q 404 994 367 994 z "},"ẹ":{"ha":801,"x_min":81,"x_max":719,"o":"m 419 -14 q 244 29 321 -14 q 124 153 167 72 q 81 347 81 235 q 124 541 81 460 q 242 665 167 622 q 413 708 317 708 q 578 667 510 708 q 683 553 647 625 q 719 393 719 482 q 718 350 719 369 q 714 315 717 331 l 190 315 q 258 144 199 206 q 417 83 318 83 q 541 113 493 83 q 618 192 589 142 l 706 140 q 594 28 667 69 q 419 -14 521 -14 m 410 611 q 266 559 322 611 q 194 414 210 507 l 608 414 q 550 560 604 508 q 410 611 496 611 m 417 -300 q 356 -277 379 -300 q 333 -217 333 -254 q 356 -156 333 -179 q 417 -133 379 -133 q 477 -156 454 -133 q 500 -217 500 -179 q 477 -277 500 -254 q 417 -300 454 -300 z "},"è":{"ha":801,"x_min":81,"x_max":719,"o":"m 419 -14 q 244 29 321 -14 q 124 153 167 72 q 81 347 81 235 q 124 541 81 460 q 242 665 167 622 q 413 708 317 708 q 578 667 510 708 q 683 553 647 625 q 719 393 719 482 q 718 350 719 369 q 714 315 717 331 l 190 315 q 258 144 199 206 q 417 83 318 83 q 541 113 493 83 q 618 192 589 142 l 706 140 q 594 28 667 69 q 419 -14 521 -14 m 410 611 q 266 559 322 611 q 194 414 210 507 l 608 414 q 550 560 604 508 q 410 611 496 611 m 357 1042 l 463 810 l 372 810 l 236 1042 l 357 1042 z "},"ẻ":{"ha":801,"x_min":81,"x_max":719,"o":"m 419 -14 q 244 29 321 -14 q 124 153 167 72 q 81 347 81 235 q 124 541 81 460 q 242 665 167 622 q 413 708 317 708 q 578 667 510 708 q 683 553 647 625 q 719 393 719 482 q 718 350 719 369 q 714 315 717 331 l 190 315 q 258 144 199 206 q 417 83 318 83 q 541 113 493 83 q 618 192 589 142 l 706 140 q 594 28 667 69 q 419 -14 521 -14 m 410 611 q 266 559 322 611 q 194 414 210 507 l 608 414 q 550 560 604 508 q 410 611 496 611 m 389 763 l 350 817 q 412 856 392 836 q 432 906 432 875 q 417 945 432 929 q 374 961 401 961 q 307 914 335 961 l 243 958 q 301 1024 263 1003 q 390 1046 339 1046 q 487 1010 451 1046 q 522 921 522 974 q 489 830 522 871 q 389 763 456 789 z "},"ȇ":{"ha":801,"x_min":81,"x_max":719,"o":"m 419 -14 q 244 29 321 -14 q 124 153 167 72 q 81 347 81 235 q 124 541 81 460 q 242 665 167 622 q 413 708 317 708 q 578 667 510 708 q 683 553 647 625 q 719 393 719 482 q 718 350 719 369 q 714 315 717 331 l 190 315 q 258 144 199 206 q 417 83 318 83 q 541 113 493 83 q 618 192 589 142 l 706 140 q 594 28 667 69 q 419 -14 521 -14 m 410 611 q 266 559 322 611 q 194 414 210 507 l 608 414 q 550 560 604 508 q 410 611 496 611 m 610 801 l 519 801 q 490 887 518 850 q 404 924 461 924 q 319 887 349 924 q 289 801 290 850 l 199 801 q 256 950 199 893 q 404 1007 313 1007 q 553 950 496 1007 q 610 801 610 893 z "},"ē":{"ha":801,"x_min":81,"x_max":719,"o":"m 419 -14 q 244 29 321 -14 q 124 153 167 72 q 81 347 81 235 q 124 541 81 460 q 242 665 167 622 q 413 708 317 708 q 578 667 510 708 q 683 553 647 625 q 719 393 719 482 q 718 350 719 369 q 714 315 717 331 l 190 315 q 258 144 199 206 q 417 83 318 83 q 541 113 493 83 q 618 192 589 142 l 706 140 q 594 28 667 69 q 419 -14 521 -14 m 410 611 q 266 559 322 611 q 194 414 210 507 l 608 414 q 550 560 604 508 q 410 611 496 611 m 632 921 l 632 828 l 176 828 l 176 921 l 632 921 z "},"ḗ":{"ha":801,"x_min":81,"x_max":719,"o":"m 419 -14 q 244 29 321 -14 q 124 153 167 72 q 81 347 81 235 q 124 541 81 460 q 242 665 167 622 q 413 708 317 708 q 578 667 510 708 q 683 553 647 625 q 719 393 719 482 q 718 350 719 369 q 714 315 717 331 l 190 315 q 258 144 199 206 q 417 83 318 83 q 541 113 493 83 q 618 192 589 142 l 706 140 q 594 28 667 69 q 419 -14 521 -14 m 410 611 q 266 559 322 611 q 194 414 210 507 l 608 414 q 550 560 604 508 q 410 611 496 611 m 632 921 l 632 828 l 176 828 l 176 921 l 632 921 m 436 1254 l 553 1254 l 433 1033 l 344 1033 l 436 1254 z "},"ḕ":{"ha":801,"x_min":81,"x_max":719,"o":"m 419 -14 q 244 29 321 -14 q 124 153 167 72 q 81 347 81 235 q 124 541 81 460 q 242 665 167 622 q 413 708 317 708 q 578 667 510 708 q 683 553 647 625 q 719 393 719 482 q 718 350 719 369 q 714 315 717 331 l 190 315 q 258 144 199 206 q 417 83 318 83 q 541 113 493 83 q 618 192 589 142 l 706 140 q 594 28 667 69 q 419 -14 521 -14 m 410 611 q 266 559 322 611 q 194 414 210 507 l 608 414 q 550 560 604 508 q 410 611 496 611 m 632 921 l 632 828 l 176 828 l 176 921 l 632 921 m 372 1254 l 464 1033 l 375 1033 l 256 1254 l 372 1254 z "},"ę":{"ha":801,"x_min":81,"x_max":719,"o":"m 419 -14 q 244 29 321 -14 q 124 153 167 72 q 81 347 81 235 q 124 541 81 460 q 242 665 167 622 q 413 708 317 708 q 578 667 510 708 q 683 553 647 625 q 719 393 719 482 q 718 350 719 369 q 714 315 717 331 l 190 315 q 258 144 199 206 q 417 83 318 83 q 541 113 493 83 q 618 192 589 142 l 706 140 q 594 28 667 69 q 419 -14 521 -14 m 410 611 q 266 559 322 611 q 194 414 210 507 l 608 414 q 550 560 604 508 q 410 611 496 611 m 454 -311 q 333 -272 375 -311 q 290 -168 290 -232 q 340 -44 290 -90 q 492 39 389 1 l 553 10 q 439 -45 476 -18 q 390 -99 401 -72 q 378 -156 378 -126 q 401 -211 378 -192 q 464 -231 425 -231 q 540 -215 506 -231 l 557 -289 q 511 -305 539 -299 q 454 -311 483 -311 z "},"ẽ":{"ha":801,"x_min":81,"x_max":719,"o":"m 419 -14 q 244 29 321 -14 q 124 153 167 72 q 81 347 81 235 q 124 541 81 460 q 242 665 167 622 q 413 708 317 708 q 578 667 510 708 q 683 553 647 625 q 719 393 719 482 q 718 350 719 369 q 714 315 717 331 l 190 315 q 258 144 199 206 q 417 83 318 83 q 541 113 493 83 q 618 192 589 142 l 706 140 q 594 28 667 69 q 419 -14 521 -14 m 410 611 q 266 559 322 611 q 194 414 210 507 l 608 414 q 550 560 604 508 q 410 611 496 611 m 654 996 q 499 810 639 810 q 433 824 460 810 q 386 857 406 839 q 348 890 367 875 q 307 904 329 904 q 261 878 276 904 q 239 808 246 853 l 151 808 q 197 947 158 900 q 308 994 235 994 q 373 980 346 994 q 420 947 400 965 q 458 915 440 929 q 497 900 476 900 q 544 926 529 900 q 567 996 560 951 l 654 996 z "},"ə":{"ha":799,"x_min":81,"x_max":718,"o":"m 390 -14 q 226 27 296 -14 q 119 139 157 68 q 81 300 81 210 q 83 344 81 321 q 90 389 85 367 l 607 389 q 544 553 597 494 q 396 611 492 611 q 278 579 332 611 q 197 489 225 547 l 103 536 q 213 661 140 614 q 396 708 285 708 q 635 613 553 708 q 718 347 718 517 q 633 83 718 179 q 390 -14 547 -14 m 194 286 q 249 138 194 193 q 390 83 303 83 q 540 137 483 83 q 607 290 597 190 l 194 290 l 194 286 z "},"f":{"ha":546,"x_min":44,"x_max":529,"o":"m 526 694 l 526 599 l 294 599 l 294 0 l 183 0 l 183 599 l 44 599 l 44 694 l 183 694 l 183 811 q 240 963 183 904 q 411 1021 297 1021 q 479 1013 447 1021 q 529 989 511 1004 l 500 899 q 421 919 467 919 q 328 891 361 919 q 294 800 294 863 l 294 694 l 526 694 z "},"g":{"ha":739,"x_min":50,"x_max":739,"o":"m 503 89 q 657 44 601 89 q 713 -76 713 -1 q 667 -194 713 -144 q 547 -272 622 -244 q 376 -299 471 -299 q 131 -243 213 -299 q 50 -110 50 -187 q 76 -24 50 -62 q 164 32 103 15 q 110 74 131 47 q 89 147 89 101 q 114 226 89 190 q 189 281 139 261 q 108 361 136 311 q 81 474 81 411 q 117 596 81 543 q 218 678 154 649 q 365 708 282 708 q 522 674 453 708 q 584 783 532 743 q 707 822 636 822 l 714 822 l 739 724 l 729 724 q 629 700 665 724 q 589 626 593 676 q 650 474 650 563 q 614 352 650 406 q 513 269 578 299 q 365 239 449 239 q 269 249 314 239 q 210 214 228 236 q 192 165 192 192 q 300 89 192 89 l 503 89 m 365 618 q 244 578 293 618 q 196 474 196 539 q 244 369 196 410 q 365 329 293 329 q 486 369 438 329 q 535 474 535 410 q 486 578 535 539 q 365 618 438 618 m 375 -206 q 553 -170 496 -206 q 610 -89 610 -135 q 580 -29 610 -51 q 472 -7 550 -7 l 258 -7 q 183 -30 214 -7 q 153 -93 153 -53 q 212 -175 153 -144 q 375 -206 271 -206 z "},"ğ":{"ha":739,"x_min":50,"x_max":739,"o":"m 590 1007 q 533 858 590 915 q 385 801 476 801 q 236 858 293 801 q 179 1007 179 915 l 269 1007 q 300 922 271 958 q 385 885 329 885 q 470 922 442 885 q 500 1007 499 958 l 590 1007 m 503 89 q 657 44 601 89 q 713 -76 713 -1 q 667 -194 713 -144 q 547 -272 622 -244 q 376 -299 471 -299 q 131 -243 213 -299 q 50 -110 50 -187 q 76 -24 50 -62 q 164 32 103 15 q 110 74 131 47 q 89 147 89 101 q 114 226 89 190 q 189 281 139 261 q 108 361 136 311 q 81 474 81 411 q 117 596 81 543 q 218 678 154 649 q 365 708 282 708 q 522 674 454 708 q 585 783 533 743 q 708 822 636 822 l 714 822 l 739 725 l 735 725 q 589 625 599 725 q 650 474 650 563 q 614 352 650 406 q 513 269 578 299 q 365 239 449 239 q 269 249 314 239 q 210 214 228 236 q 192 165 192 192 q 300 89 192 89 l 503 89 m 365 618 q 244 578 293 618 q 196 474 196 539 q 244 369 196 410 q 365 329 293 329 q 486 369 438 329 q 535 474 535 410 q 486 578 535 539 q 365 618 438 618 m 375 -206 q 553 -170 496 -206 q 610 -89 610 -135 q 580 -29 610 -51 q 472 -7 550 -7 l 258 -7 q 183 -30 214 -7 q 153 -93 153 -53 q 212 -175 153 -144 q 375 -206 271 -206 z "},"ǧ":{"ha":739,"x_min":50,"x_max":739,"o":"m 503 89 q 657 44 601 89 q 713 -76 713 -1 q 667 -194 713 -144 q 547 -272 622 -244 q 376 -299 471 -299 q 131 -243 213 -299 q 50 -110 50 -187 q 76 -24 50 -62 q 164 32 103 15 q 110 74 131 47 q 89 147 89 101 q 114 226 89 190 q 189 281 139 261 q 108 361 136 311 q 81 474 81 411 q 117 596 81 543 q 218 678 154 649 q 365 708 282 708 q 522 674 453 708 q 584 783 532 743 q 707 822 636 822 l 714 822 l 739 724 l 729 724 q 629 700 665 724 q 589 626 593 676 q 650 474 650 563 q 614 352 650 406 q 513 269 578 299 q 365 239 449 239 q 269 249 314 239 q 210 214 228 236 q 192 165 192 192 q 300 89 192 89 l 503 89 m 365 618 q 244 578 293 618 q 196 474 196 539 q 244 369 196 410 q 365 329 293 329 q 486 369 438 329 q 535 474 535 410 q 486 578 535 539 q 365 618 438 618 m 375 -206 q 553 -170 496 -206 q 610 -89 610 -135 q 580 -29 610 -51 q 472 -7 550 -7 l 258 -7 q 183 -30 214 -7 q 153 -93 153 -53 q 212 -175 153 -144 q 375 -206 271 -206 m 592 1042 l 433 810 l 308 810 l 150 1042 l 251 1042 l 371 882 l 490 1042 l 592 1042 z "},"ĝ":{"ha":739,"x_min":50,"x_max":739,"o":"m 150 800 l 308 1032 l 433 1032 l 592 800 l 490 800 l 371 960 l 251 800 l 150 800 m 503 89 q 657 44 601 89 q 713 -76 713 -1 q 667 -194 713 -144 q 547 -272 622 -244 q 376 -299 471 -299 q 131 -243 213 -299 q 50 -110 50 -187 q 76 -24 50 -62 q 164 32 103 15 q 110 74 131 47 q 89 147 89 101 q 114 226 89 190 q 189 281 139 261 q 108 361 136 311 q 81 474 81 411 q 117 596 81 543 q 218 678 154 649 q 365 708 282 708 q 522 674 454 708 q 585 783 533 743 q 708 822 636 822 l 714 822 l 739 725 l 735 725 q 589 625 599 725 q 650 474 650 563 q 614 352 650 406 q 513 269 578 299 q 365 239 449 239 q 269 249 314 239 q 210 214 228 236 q 192 165 192 192 q 300 89 192 89 l 503 89 m 365 618 q 244 578 293 618 q 196 474 196 539 q 244 369 196 410 q 365 329 293 329 q 486 369 438 329 q 535 474 535 410 q 486 578 535 539 q 365 618 438 618 m 375 -206 q 553 -170 496 -206 q 610 -89 610 -135 q 580 -29 610 -51 q 472 -7 550 -7 l 258 -7 q 183 -30 214 -7 q 153 -93 153 -53 q 212 -175 153 -144 q 375 -206 271 -206 z "},"ģ":{"ha":739,"x_min":50,"x_max":739,"o":"m 503 89 q 657 44 601 89 q 713 -76 713 -1 q 667 -194 713 -144 q 547 -272 622 -244 q 376 -299 471 -299 q 131 -243 213 -299 q 50 -110 50 -187 q 76 -24 50 -62 q 164 32 103 15 q 110 74 131 47 q 89 147 89 101 q 114 226 89 190 q 189 281 139 261 q 108 361 136 311 q 81 474 81 411 q 117 596 81 543 q 218 678 154 649 q 365 708 282 708 q 522 674 453 708 q 584 783 532 743 q 707 822 636 822 l 714 822 l 739 724 l 729 724 q 629 700 665 724 q 589 626 593 676 q 650 474 650 563 q 614 352 650 406 q 513 269 578 299 q 365 239 449 239 q 269 249 314 239 q 210 214 228 236 q 192 165 192 192 q 300 89 192 89 l 503 89 m 365 618 q 244 578 293 618 q 196 474 196 539 q 244 369 196 410 q 365 329 293 329 q 486 369 438 329 q 535 474 535 410 q 486 578 535 539 q 365 618 438 618 m 375 -206 q 553 -170 496 -206 q 610 -89 610 -135 q 580 -29 610 -51 q 472 -7 550 -7 l 258 -7 q 183 -30 214 -7 q 153 -93 153 -53 q 212 -175 153 -144 q 375 -206 271 -206 m 496 1081 l 438 815 l 315 815 l 413 1081 l 496 1081 z "},"ġ":{"ha":739,"x_min":50,"x_max":739,"o":"m 503 89 q 657 44 601 89 q 713 -76 713 -1 q 667 -194 713 -144 q 547 -272 622 -244 q 376 -299 471 -299 q 131 -243 213 -299 q 50 -110 50 -187 q 76 -24 50 -62 q 164 32 103 15 q 110 74 131 47 q 89 147 89 101 q 114 226 89 190 q 189 281 139 261 q 108 361 136 311 q 81 474 81 411 q 117 596 81 543 q 218 678 154 649 q 365 708 282 708 q 522 674 453 708 q 584 783 532 743 q 707 822 636 822 l 714 822 l 739 724 l 729 724 q 629 700 665 724 q 589 626 593 676 q 650 474 650 563 q 614 352 650 406 q 513 269 578 299 q 365 239 449 239 q 269 249 314 239 q 210 214 228 236 q 192 165 192 192 q 300 89 192 89 l 503 89 m 365 618 q 244 578 293 618 q 196 474 196 539 q 244 369 196 410 q 365 329 293 329 q 486 369 438 329 q 535 474 535 410 q 486 578 535 539 q 365 618 438 618 m 375 -206 q 553 -170 496 -206 q 610 -89 610 -135 q 580 -29 610 -51 q 472 -7 550 -7 l 258 -7 q 183 -30 214 -7 q 153 -93 153 -53 q 212 -175 153 -144 q 375 -206 271 -206 m 371 994 q 431 972 408 994 q 454 911 454 949 q 431 851 454 874 q 371 828 408 828 q 310 851 333 828 q 288 911 288 874 q 310 972 288 949 q 371 994 333 994 z "},"ḡ":{"ha":739,"x_min":50,"x_max":739,"o":"m 503 89 q 657 44 601 89 q 713 -76 713 -1 q 667 -194 713 -144 q 547 -272 622 -244 q 376 -299 471 -299 q 131 -243 213 -299 q 50 -110 50 -187 q 76 -24 50 -62 q 164 32 103 15 q 110 74 131 47 q 89 147 89 101 q 114 226 89 190 q 189 281 139 261 q 108 361 136 311 q 81 474 81 411 q 117 596 81 543 q 218 678 154 649 q 365 708 282 708 q 522 674 453 708 q 584 783 532 743 q 707 822 636 822 l 714 822 l 739 724 l 729 724 q 629 700 665 724 q 589 626 593 676 q 650 474 650 563 q 614 352 650 406 q 513 269 578 299 q 365 239 449 239 q 269 249 314 239 q 210 214 228 236 q 192 165 192 192 q 300 89 192 89 l 503 89 m 365 618 q 244 578 293 618 q 196 474 196 539 q 244 369 196 410 q 365 329 293 329 q 486 369 438 329 q 535 474 535 410 q 486 578 535 539 q 365 618 438 618 m 375 -206 q 553 -170 496 -206 q 610 -89 610 -135 q 580 -29 610 -51 q 472 -7 550 -7 l 258 -7 q 183 -30 214 -7 q 153 -93 153 -53 q 212 -175 153 -144 q 375 -206 271 -206 m 527 921 l 527 828 l 215 828 l 215 921 l 527 921 z "},"h":{"ha":860,"x_min":129,"x_max":738,"o":"m 129 0 l 129 1014 l 240 1014 l 240 590 q 336 681 276 653 q 467 708 396 708 q 603 680 542 708 q 701 593 664 651 q 738 444 738 535 l 738 0 l 626 0 l 626 406 q 577 566 626 521 q 456 611 528 611 q 356 588 406 611 q 273 510 306 564 q 240 368 240 457 l 240 0 l 129 0 z "},"ħ":{"ha":860,"x_min":22,"x_max":738,"o":"m 129 0 l 129 786 l 22 786 l 22 871 l 129 871 l 129 1014 l 240 1014 l 240 871 l 458 871 l 458 786 l 240 786 l 240 590 q 336 681 276 653 q 467 708 396 708 q 603 680 542 708 q 701 593 664 651 q 738 444 738 535 l 738 0 l 626 0 l 626 406 q 577 566 626 521 q 456 611 528 611 q 356 588 406 611 q 273 510 306 564 q 240 368 240 457 l 240 0 l 129 0 z "},"ḫ":{"ha":860,"x_min":129,"x_max":738,"o":"m 129 0 l 129 1014 l 240 1014 l 240 590 q 336 681 276 653 q 467 708 396 708 q 603 680 542 708 q 701 593 664 651 q 738 444 738 535 l 738 0 l 626 0 l 626 406 q 577 566 626 521 q 456 611 528 611 q 356 588 406 611 q 273 510 306 564 q 240 368 240 457 l 240 0 l 129 0 z "},"ĥ":{"ha":860,"x_min":-29,"x_max":738,"o":"m 129 0 l 129 1014 l 240 1014 l 240 590 q 336 681 276 653 q 467 708 396 708 q 603 680 542 708 q 701 593 664 651 q 738 444 738 535 l 738 0 l 626 0 l 626 406 q 577 566 626 521 q 456 611 528 611 q 356 588 406 611 q 273 510 306 564 q 240 368 240 457 l 240 0 l 129 0 m 399 1101 l 296 1101 l 185 1250 l 74 1101 l -29 1101 l 124 1322 l 246 1322 l 399 1101 z "},"ḥ":{"ha":860,"x_min":129,"x_max":738,"o":"m 129 0 l 129 1014 l 240 1014 l 240 590 q 336 681 276 653 q 467 708 396 708 q 603 680 542 708 q 701 593 664 651 q 738 444 738 535 l 738 0 l 626 0 l 626 406 q 577 566 626 521 q 456 611 528 611 q 356 588 406 611 q 273 510 306 564 q 240 368 240 457 l 240 0 l 129 0 m 475 -300 q 415 -277 438 -300 q 392 -217 392 -254 q 415 -156 392 -179 q 475 -133 438 -133 q 535 -156 513 -133 q 558 -217 558 -179 q 535 -277 558 -254 q 475 -300 513 -300 z "},"i":{"ha":369,"x_min":101,"x_max":268,"o":"m 185 828 q 124 851 147 828 q 101 911 101 874 q 124 972 101 949 q 185 994 147 994 q 245 972 222 994 q 268 911 268 949 q 245 851 268 874 q 185 828 222 828 m 240 694 l 240 0 l 129 0 l 129 694 l 240 694 z "},"ı":{"ha":369,"x_min":129,"x_max":240,"o":"m 240 694 l 240 0 l 129 0 l 129 694 l 240 694 z "},"í":{"ha":369,"x_min":117,"x_max":343,"o":"m 240 694 l 240 0 l 129 0 l 129 694 l 240 694 m 222 1042 l 343 1042 l 207 810 l 117 810 l 222 1042 z "},"ĭ":{"ha":369,"x_min":-21,"x_max":390,"o":"m 240 694 l 240 0 l 129 0 l 129 694 l 240 694 m 390 1007 q 333 858 390 915 q 185 801 276 801 q 36 858 93 801 q -21 1007 -21 915 l 69 1007 q 100 922 71 958 q 185 885 129 885 q 270 922 242 885 q 300 1007 299 958 l 390 1007 z "},"î":{"ha":369,"x_min":-36,"x_max":406,"o":"m 240 694 l 240 0 l 129 0 l 129 694 l 240 694 m 406 800 l 304 800 l 185 960 l 65 800 l -36 800 l 122 1032 l 247 1032 l 406 800 z "},"ȉ":{"ha":369,"x_min":-104,"x_max":367,"o":"m 240 694 l 240 0 l 129 0 l 129 694 l 240 694 m 122 810 l 32 810 l -104 1042 l 17 1042 l 122 810 m 367 810 l 276 810 l 140 1042 l 261 1042 l 367 810 z "},"ï":{"ha":369,"x_min":-6,"x_max":375,"o":"m 296 808 q 238 831 260 808 q 215 888 215 853 q 238 945 215 924 q 296 967 260 967 q 353 945 332 967 q 375 888 375 924 q 353 831 375 853 q 296 808 332 808 m 74 808 q 17 831 39 808 q -6 888 -6 853 q 17 945 -6 924 q 74 967 39 967 q 132 945 110 967 q 154 888 154 924 q 132 831 154 853 q 74 808 110 808 m 240 694 l 240 0 l 129 0 l 129 694 l 240 694 z "},"ḯ":{"ha":369,"x_min":-29,"x_max":399,"o":"m 240 694 l 240 0 l 129 0 l 129 694 l 240 694 m 50 967 q 108 945 86 967 q 129 888 129 924 q 108 831 129 853 q 50 808 86 808 q -7 831 15 808 q -29 888 -29 853 q -7 945 -29 924 q 50 967 15 967 m 319 967 q 377 945 356 967 q 399 888 399 924 q 377 831 399 853 q 319 808 356 808 q 263 831 285 808 q 240 888 240 853 q 263 945 240 924 q 319 967 285 967 m 217 1265 l 333 1265 l 214 1044 l 125 1044 l 217 1265 z "},"ị":{"ha":369,"x_min":101,"x_max":268,"o":"m 185 828 q 124 851 147 828 q 101 911 101 874 q 124 972 101 949 q 185 994 147 994 q 245 972 222 994 q 268 911 268 949 q 245 851 268 874 q 185 828 222 828 m 240 694 l 240 0 l 129 0 l 129 694 l 240 694 m 185 -300 q 124 -277 147 -300 q 101 -217 101 -254 q 124 -156 101 -179 q 185 -133 147 -133 q 245 -156 222 -133 q 268 -217 268 -179 q 245 -277 268 -254 q 185 -300 222 -300 z "},"ì":{"ha":369,"x_min":17,"x_max":243,"o":"m 240 694 l 240 0 l 129 0 l 129 694 l 240 694 m 138 1042 l 243 810 l 153 810 l 17 1042 l 138 1042 z "},"ỉ":{"ha":369,"x_min":24,"x_max":303,"o":"m 240 694 l 240 0 l 129 0 l 129 694 l 240 694 m 169 763 l 131 817 q 192 856 172 836 q 213 906 213 875 q 197 945 213 929 q 154 961 182 961 q 88 914 115 961 l 24 958 q 81 1024 43 1003 q 171 1046 119 1046 q 267 1010 232 1046 q 303 921 303 974 q 269 830 303 871 q 169 763 236 789 z "},"ȋ":{"ha":369,"x_min":-21,"x_max":390,"o":"m 240 694 l 240 0 l 129 0 l 129 694 l 240 694 m 390 801 l 300 801 q 270 887 299 850 q 185 924 242 924 q 100 887 129 924 q 69 801 71 850 l -21 801 q 36 950 -21 893 q 185 1007 93 1007 q 333 950 276 1007 q 390 801 390 893 z "},"ĳ":{"ha":739,"x_min":101,"x_max":638,"o":"m 185 828 q 124 851 147 828 q 101 911 101 874 q 124 972 101 949 q 185 994 147 994 q 245 972 222 994 q 268 911 268 949 q 245 851 268 874 q 185 828 222 828 m 240 694 l 240 0 l 129 0 l 129 694 l 240 694 m 554 828 q 494 851 517 828 q 471 911 471 874 q 494 972 471 949 q 554 994 517 994 q 615 972 592 994 q 638 911 638 949 q 615 851 638 874 q 554 828 592 828 m 610 694 l 610 -71 q 576 -207 610 -157 q 494 -278 543 -257 q 399 -299 446 -299 q 319 -285 356 -299 q 260 -253 283 -272 l 283 -147 q 332 -178 303 -165 q 397 -190 361 -190 q 470 -161 442 -190 q 499 -60 499 -132 l 499 694 l 610 694 z "},"ī":{"ha":369,"x_min":39,"x_max":331,"o":"m 240 694 l 240 0 l 129 0 l 129 694 l 240 694 m 331 921 l 331 828 l 39 828 l 39 921 l 331 921 z "},"į":{"ha":369,"x_min":1,"x_max":268,"o":"m 185 828 q 124 851 147 828 q 101 911 101 874 q 124 972 101 949 q 185 994 147 994 q 245 972 222 994 q 268 911 268 949 q 245 851 268 874 q 185 828 222 828 m 157 -321 q 47 -284 92 -321 q 1 -183 1 -247 q 35 -77 1 -119 q 129 1 69 -35 l 129 694 l 240 694 l 240 0 q 124 -88 157 -47 q 92 -168 92 -129 q 112 -222 92 -201 q 171 -242 132 -242 q 207 -237 188 -242 q 239 -226 226 -233 l 261 -297 q 216 -314 243 -307 q 157 -321 189 -321 z "},"ĩ":{"ha":369,"x_min":-68,"x_max":435,"o":"m 240 694 l 240 0 l 129 0 l 129 694 l 240 694 m 435 996 q 279 810 419 810 q 213 824 240 810 q 167 857 186 839 q 128 890 147 875 q 88 904 110 904 q 42 878 57 904 q 19 808 26 853 l -68 808 q -23 947 -61 900 q 89 994 15 994 q 153 980 126 994 q 201 947 181 965 q 239 915 221 929 q 278 900 257 900 q 325 926 310 900 q 347 996 340 951 l 435 996 z "},"j":{"ha":369,"x_min":-110,"x_max":268,"o":"m 185 828 q 124 851 147 828 q 101 911 101 874 q 124 972 101 949 q 185 994 147 994 q 245 972 222 994 q 268 911 268 949 q 245 851 268 874 q 185 828 222 828 m 240 694 l 240 -71 q 207 -207 240 -157 q 125 -278 174 -257 q 29 -299 76 -299 q -50 -285 -14 -299 q -110 -253 -86 -272 l -86 -147 q -37 -178 -67 -165 q 28 -190 -8 -190 q 101 -161 72 -190 q 129 -60 129 -132 l 129 694 l 240 694 z "},"ȷ":{"ha":369,"x_min":-110,"x_max":240,"o":"m 240 694 l 240 -71 q 207 -207 240 -157 q 125 -278 174 -257 q 29 -299 76 -299 q -50 -285 -14 -299 q -110 -253 -86 -272 l -86 -147 q -37 -178 -67 -165 q 28 -190 -8 -190 q 101 -161 72 -190 q 129 -60 129 -132 l 129 694 l 240 694 z "},"ĵ":{"ha":369,"x_min":-110,"x_max":406,"o":"m 240 694 l 240 -71 q 207 -207 240 -157 q 125 -278 174 -257 q 29 -299 76 -299 q -50 -285 -14 -299 q -110 -253 -86 -272 l -86 -147 q -37 -178 -67 -165 q 28 -190 -8 -190 q 101 -161 72 -190 q 129 -60 129 -132 l 129 694 l 240 694 m 406 800 l 304 800 l 185 960 l 65 800 l -36 800 l 122 1032 l 247 1032 l 406 800 z "},"k":{"ha":788,"x_min":129,"x_max":756,"o":"m 739 694 l 468 424 l 756 0 l 621 0 l 388 343 l 240 196 l 240 0 l 129 0 l 129 1014 l 240 1014 l 240 335 l 599 694 l 739 694 z "},"ķ":{"ha":788,"x_min":129,"x_max":756,"o":"m 739 694 l 468 424 l 756 0 l 621 0 l 388 343 l 240 196 l 240 0 l 129 0 l 129 1014 l 240 1014 l 240 335 l 599 694 l 739 694 m 489 -106 l 399 -329 l 311 -329 l 372 -106 l 489 -106 z "},"ĸ":{"ha":788,"x_min":129,"x_max":756,"o":"m 240 694 l 240 335 l 600 694 l 739 694 l 468 424 l 756 0 l 621 0 l 388 343 l 240 196 l 240 0 l 129 0 l 129 694 l 240 694 z "},"l":{"ha":425,"x_min":124,"x_max":411,"o":"m 235 1014 l 235 176 q 254 103 235 124 q 317 83 274 83 q 363 88 344 83 q 411 103 381 92 l 393 6 q 290 -14 347 -14 q 124 172 124 -14 l 124 1014 l 235 1014 z "},"ĺ":{"ha":425,"x_min":111,"x_max":411,"o":"m 235 1014 l 235 176 q 254 103 235 124 q 317 83 274 83 q 363 88 344 83 q 411 103 381 92 l 393 6 q 290 -14 347 -14 q 124 172 124 -14 l 124 1014 l 235 1014 m 111 1111 l 183 1292 l 299 1292 l 197 1111 l 111 1111 z "},"ľ":{"ha":438,"x_min":124,"x_max":447,"o":"m 447 1014 l 390 740 l 314 740 l 342 1014 l 447 1014 m 235 1014 l 235 176 q 254 103 235 124 q 317 83 274 83 q 363 88 344 83 q 411 103 381 92 l 393 6 q 290 -14 347 -14 q 124 172 124 -14 l 124 1014 l 235 1014 z "},"ļ":{"ha":425,"x_min":124,"x_max":411,"o":"m 235 1014 l 235 176 q 254 103 235 124 q 317 83 274 83 q 363 88 344 83 q 411 103 381 92 l 393 6 q 290 -14 347 -14 q 124 172 124 -14 l 124 1014 l 235 1014 m 328 -106 l 238 -329 l 150 -329 l 211 -106 l 328 -106 z "},"ŀ":{"ha":565,"x_min":124,"x_max":554,"o":"m 235 1014 l 235 176 q 254 103 235 124 q 317 83 274 83 q 363 88 344 83 q 411 103 381 92 l 393 6 q 290 -14 347 -14 q 124 172 124 -14 l 124 1014 l 235 1014 z "},"ḷ":{"ha":425,"x_min":124,"x_max":411,"o":"m 235 1014 l 235 176 q 254 103 235 124 q 317 83 274 83 q 363 88 344 83 q 411 103 381 92 l 393 6 q 290 -14 347 -14 q 124 172 124 -14 l 124 1014 l 235 1014 m 276 -300 q 216 -277 239 -300 q 193 -217 193 -254 q 216 -156 193 -179 q 276 -133 239 -133 q 337 -156 314 -133 q 360 -217 360 -179 q 337 -277 360 -254 q 276 -300 314 -300 z "},"ǉ":{"ha":794,"x_min":124,"x_max":693,"o":"m 235 1014 l 235 176 q 254 103 235 124 q 317 83 274 83 q 363 88 344 83 q 411 103 381 92 l 393 6 q 290 -14 347 -14 q 124 172 124 -14 l 124 1014 l 235 1014 m 610 828 q 549 851 572 828 q 526 911 526 874 q 549 972 526 949 q 610 994 572 994 q 670 972 647 994 q 693 911 693 949 q 670 851 693 874 q 610 828 647 828 m 665 694 l 665 -71 q 632 -207 665 -157 q 550 -278 599 -257 q 454 -299 501 -299 q 375 -285 411 -299 q 315 -253 339 -272 l 339 -147 q 388 -178 358 -165 q 453 -190 417 -190 q 526 -161 497 -190 q 554 -60 554 -132 l 554 694 l 665 694 z "},"ḻ":{"ha":425,"x_min":117,"x_max":436,"o":"m 235 1014 l 235 176 q 254 103 235 124 q 317 83 274 83 q 363 88 344 83 q 411 103 381 92 l 393 6 q 290 -14 347 -14 q 124 172 124 -14 l 124 1014 l 235 1014 z "},"ł":{"ha":517,"x_min":54,"x_max":475,"o":"m 465 694 l 465 579 l 299 472 l 299 176 q 318 103 299 124 q 381 83 338 83 q 426 88 408 83 q 475 103 444 92 l 457 6 q 354 -14 411 -14 q 188 172 188 -14 l 188 403 l 54 318 l 54 433 l 188 518 l 188 1014 l 299 1014 l 299 589 l 465 694 z "},"m":{"ha":1324,"x_min":129,"x_max":1201,"o":"m 129 0 l 129 694 l 226 694 l 233 586 q 331 679 271 650 q 456 708 392 708 q 594 675 529 708 q 694 572 660 642 q 757 649 717 619 q 845 694 797 679 q 936 708 893 708 q 1063 681 1003 708 q 1163 594 1124 653 q 1201 444 1201 536 l 1201 0 l 1090 0 l 1090 433 q 1043 569 1090 528 q 926 611 996 611 q 825 585 872 611 q 749 507 778 558 q 721 381 721 456 l 721 0 l 610 0 l 610 433 q 563 569 610 528 q 446 611 515 611 q 352 587 400 611 q 272 510 304 563 q 240 371 240 457 l 240 0 l 129 0 z "},"ṃ":{"ha":1324,"x_min":129,"x_max":1201,"o":"m 129 0 l 129 694 l 226 694 l 233 586 q 331 679 271 650 q 456 708 392 708 q 594 675 529 708 q 694 572 660 642 q 757 649 717 619 q 845 694 797 679 q 936 708 893 708 q 1063 681 1003 708 q 1163 594 1124 653 q 1201 444 1201 536 l 1201 0 l 1090 0 l 1090 433 q 1043 569 1090 528 q 926 611 996 611 q 825 585 872 611 q 749 507 778 558 q 721 381 721 456 l 721 0 l 610 0 l 610 433 q 563 569 610 528 q 446 611 515 611 q 352 587 400 611 q 272 510 304 563 q 240 371 240 457 l 240 0 l 129 0 m 665 -300 q 605 -277 628 -300 q 582 -217 582 -254 q 605 -156 582 -179 q 665 -133 628 -133 q 726 -156 703 -133 q 749 -217 749 -179 q 726 -277 749 -254 q 665 -300 703 -300 z "},"n":{"ha":860,"x_min":129,"x_max":738,"o":"m 129 0 l 129 694 l 226 694 l 233 586 q 332 680 269 651 q 467 708 394 708 q 603 680 542 708 q 701 593 664 651 q 738 444 738 535 l 738 0 l 626 0 l 626 406 q 577 566 626 521 q 456 611 528 611 q 356 588 406 611 q 273 511 306 564 q 240 369 240 458 l 240 0 l 129 0 z "},"ń":{"ha":860,"x_min":129,"x_max":738,"o":"m 129 0 l 129 694 l 226 694 l 233 586 q 332 680 269 651 q 467 708 394 708 q 603 680 542 708 q 701 593 664 651 q 738 444 738 535 l 738 0 l 626 0 l 626 406 q 577 566 626 521 q 456 611 528 611 q 356 588 406 611 q 273 511 306 564 q 240 369 240 458 l 240 0 l 129 0 m 479 1042 l 600 1042 l 464 810 l 374 810 l 479 1042 z "},"ň":{"ha":860,"x_min":129,"x_max":738,"o":"m 129 0 l 129 694 l 226 694 l 233 586 q 332 680 269 651 q 467 708 394 708 q 603 680 542 708 q 701 593 664 651 q 738 444 738 535 l 738 0 l 626 0 l 626 406 q 577 566 626 521 q 456 611 528 611 q 356 588 406 611 q 273 511 306 564 q 240 369 240 458 l 240 0 l 129 0 m 663 1042 l 504 810 l 379 810 l 221 1042 l 322 1042 l 442 882 l 561 1042 l 663 1042 z "},"ņ":{"ha":860,"x_min":129,"x_max":738,"o":"m 129 0 l 129 694 l 226 694 l 233 586 q 332 680 269 651 q 467 708 394 708 q 603 680 542 708 q 701 593 664 651 q 738 444 738 535 l 738 0 l 626 0 l 626 406 q 577 566 626 521 q 456 611 528 611 q 356 588 406 611 q 273 511 306 564 q 240 369 240 458 l 240 0 l 129 0 m 526 -106 l 436 -329 l 349 -329 l 410 -106 l 526 -106 z "},"ṅ":{"ha":860,"x_min":129,"x_max":738,"o":"m 129 0 l 129 694 l 226 694 l 233 586 q 332 680 269 651 q 467 708 394 708 q 603 680 542 708 q 701 593 664 651 q 738 444 738 535 l 738 0 l 626 0 l 626 406 q 577 566 626 521 q 456 611 528 611 q 356 588 406 611 q 273 511 306 564 q 240 369 240 458 l 240 0 l 129 0 m 442 994 q 502 972 479 994 q 525 911 525 949 q 502 851 525 874 q 442 828 479 828 q 381 851 404 828 q 358 911 358 874 q 381 972 358 949 q 442 994 404 994 z "},"ṇ":{"ha":860,"x_min":129,"x_max":738,"o":"m 129 0 l 129 694 l 226 694 l 233 586 q 332 680 269 651 q 467 708 394 708 q 603 680 542 708 q 701 593 664 651 q 738 444 738 535 l 738 0 l 626 0 l 626 406 q 577 566 626 521 q 456 611 528 611 q 356 588 406 611 q 273 511 306 564 q 240 369 240 458 l 240 0 l 129 0 m 475 -300 q 415 -277 438 -300 q 392 -217 392 -254 q 415 -156 392 -179 q 475 -133 438 -133 q 535 -156 513 -133 q 558 -217 558 -179 q 535 -277 558 -254 q 475 -300 513 -300 z "},"ŋ":{"ha":860,"x_min":129,"x_max":738,"o":"m 129 0 l 129 694 l 226 694 l 233 586 q 332 680 269 651 q 467 708 394 708 q 603 680 542 708 q 701 593 664 651 q 738 444 738 535 l 738 -71 q 704 -207 738 -157 q 622 -278 671 -257 q 526 -299 574 -299 q 447 -285 483 -299 q 388 -253 411 -272 l 411 -147 q 460 -178 431 -165 q 525 -190 489 -190 q 598 -161 569 -190 q 626 -60 626 -132 l 626 406 q 577 566 626 521 q 456 611 528 611 q 356 588 406 611 q 273 511 306 564 q 240 369 240 458 l 240 0 l 129 0 z "},"ǌ":{"ha":1229,"x_min":129,"x_max":1128,"o":"m 129 0 l 129 694 l 226 694 l 233 586 q 332 680 269 651 q 467 708 394 708 q 603 680 542 708 q 701 593 664 651 q 738 444 738 535 l 738 0 l 626 0 l 626 406 q 577 566 626 521 q 456 611 528 611 q 356 588 406 611 q 273 511 306 564 q 240 369 240 458 l 240 0 l 129 0 m 1044 828 q 984 851 1007 828 q 961 911 961 874 q 984 972 961 949 q 1044 994 1007 994 q 1105 972 1082 994 q 1128 911 1128 949 q 1105 851 1128 874 q 1044 828 1082 828 m 1100 694 l 1100 -71 q 1067 -207 1100 -157 q 985 -278 1033 -257 q 889 -299 936 -299 q 810 -285 846 -299 q 750 -253 774 -272 l 774 -147 q 822 -178 793 -165 q 888 -190 851 -190 q 960 -161 932 -190 q 989 -60 989 -132 l 989 694 l 1100 694 z "},"ṉ":{"ha":860,"x_min":129,"x_max":738,"o":"m 129 0 l 129 694 l 226 694 l 233 586 q 332 680 269 651 q 467 708 394 708 q 603 680 542 708 q 701 593 664 651 q 738 444 738 535 l 738 0 l 626 0 l 626 406 q 577 566 626 521 q 456 611 528 611 q 356 588 406 611 q 273 511 306 564 q 240 369 240 458 l 240 0 l 129 0 z "},"ñ":{"ha":860,"x_min":129,"x_max":738,"o":"m 129 0 l 129 694 l 226 694 l 233 586 q 332 680 269 651 q 467 708 394 708 q 603 680 542 708 q 701 593 664 651 q 738 444 738 535 l 738 0 l 626 0 l 626 406 q 577 566 626 521 q 456 611 528 611 q 356 588 406 611 q 273 511 306 564 q 240 369 240 458 l 240 0 l 129 0 m 692 996 q 536 810 676 810 q 470 824 497 810 q 424 857 443 839 q 385 890 404 875 q 344 904 367 904 q 299 878 314 904 q 276 808 283 853 l 189 808 q 234 947 196 900 q 346 994 272 994 q 410 980 383 994 q 458 947 438 965 q 496 915 478 929 q 535 900 514 900 q 582 926 567 900 q 604 996 597 951 l 692 996 z "},"o":{"ha":833,"x_min":81,"x_max":753,"o":"m 417 708 q 591 665 515 708 q 710 541 667 622 q 753 347 753 460 q 710 153 753 235 q 591 29 667 72 q 417 -14 515 -14 q 243 29 319 -14 q 124 153 167 72 q 81 347 81 235 q 124 541 81 460 q 243 665 167 622 q 417 708 319 708 m 417 613 q 251 542 311 613 q 192 347 192 471 q 251 153 192 224 q 417 82 311 82 q 582 153 522 82 q 642 347 642 224 q 582 542 642 471 q 417 613 522 613 z "},"ó":{"ha":833,"x_min":81,"x_max":753,"o":"m 417 708 q 591 665 515 708 q 710 541 667 622 q 753 347 753 460 q 710 153 753 235 q 591 29 667 72 q 417 -14 515 -14 q 243 29 319 -14 q 124 153 167 72 q 81 347 81 235 q 124 541 81 460 q 243 665 167 622 q 417 708 319 708 m 417 613 q 251 542 311 613 q 192 347 192 471 q 251 153 192 224 q 417 82 311 82 q 582 153 522 82 q 642 347 642 224 q 582 542 642 471 q 417 613 522 613 m 454 1042 l 575 1042 l 439 810 l 349 810 l 454 1042 z "},"ŏ":{"ha":833,"x_min":81,"x_max":753,"o":"m 417 708 q 591 665 515 708 q 710 541 667 622 q 753 347 753 460 q 710 153 753 235 q 591 29 667 72 q 417 -14 515 -14 q 243 29 319 -14 q 124 153 167 72 q 81 347 81 235 q 124 541 81 460 q 243 665 167 622 q 417 708 319 708 m 417 613 q 251 542 311 613 q 192 347 192 471 q 251 153 192 224 q 417 82 311 82 q 582 153 522 82 q 642 347 642 224 q 582 542 642 471 q 417 613 522 613 m 622 1007 q 565 858 622 915 q 417 801 508 801 q 268 858 325 801 q 211 1007 211 915 l 301 1007 q 332 922 303 958 q 417 885 361 885 q 502 922 474 885 q 532 1007 531 958 l 622 1007 z "},"ô":{"ha":833,"x_min":81,"x_max":753,"o":"m 417 708 q 591 665 515 708 q 710 541 667 622 q 753 347 753 460 q 710 153 753 235 q 591 29 667 72 q 417 -14 515 -14 q 243 29 319 -14 q 124 153 167 72 q 81 347 81 235 q 124 541 81 460 q 243 665 167 622 q 417 708 319 708 m 417 613 q 251 542 311 613 q 192 347 192 471 q 251 153 192 224 q 417 82 311 82 q 582 153 522 82 q 642 347 642 224 q 582 542 642 471 q 417 613 522 613 m 638 800 l 536 800 l 417 960 l 297 800 l 196 800 l 354 1032 l 479 1032 l 638 800 z "},"ố":{"ha":833,"x_min":81,"x_max":774,"o":"m 669 1161 l 774 1161 l 667 963 l 586 963 l 669 1161 m 638 800 l 536 800 l 417 960 l 297 800 l 196 800 l 354 1032 l 479 1032 l 638 800 m 417 708 q 591 665 515 708 q 710 541 667 622 q 753 347 753 460 q 710 153 753 235 q 591 29 667 72 q 417 -14 515 -14 q 243 29 319 -14 q 124 153 167 72 q 81 347 81 235 q 124 541 81 460 q 243 665 167 622 q 417 708 319 708 m 417 613 q 251 542 311 613 q 192 347 192 471 q 251 153 192 224 q 417 82 311 82 q 582 153 522 82 q 642 347 642 224 q 582 542 642 471 q 417 613 522 613 z "},"ộ":{"ha":833,"x_min":81,"x_max":753,"o":"m 417 708 q 591 665 515 708 q 710 541 667 622 q 753 347 753 460 q 710 153 753 235 q 591 29 667 72 q 417 -14 515 -14 q 243 29 319 -14 q 124 153 167 72 q 81 347 81 235 q 124 541 81 460 q 243 665 167 622 q 417 708 319 708 m 417 613 q 251 542 311 613 q 192 347 192 471 q 251 153 192 224 q 417 82 311 82 q 582 153 522 82 q 642 347 642 224 q 582 542 642 471 q 417 613 522 613 m 417 -300 q 356 -277 379 -300 q 333 -217 333 -254 q 356 -156 333 -179 q 417 -133 379 -133 q 477 -156 454 -133 q 500 -217 500 -179 q 477 -277 500 -254 q 417 -300 454 -300 m 638 800 l 536 800 l 417 960 l 297 800 l 196 800 l 354 1032 l 479 1032 l 638 800 z "},"ồ":{"ha":833,"x_min":81,"x_max":753,"o":"m 611 1161 l 694 963 l 614 963 l 507 1161 l 611 1161 m 638 800 l 536 800 l 417 960 l 297 800 l 196 800 l 354 1032 l 479 1032 l 638 800 m 417 708 q 591 665 515 708 q 710 541 667 622 q 753 347 753 460 q 710 153 753 235 q 591 29 667 72 q 417 -14 515 -14 q 243 29 319 -14 q 124 153 167 72 q 81 347 81 235 q 124 541 81 460 q 243 665 167 622 q 417 708 319 708 m 417 613 q 251 542 311 613 q 192 347 192 471 q 251 153 192 224 q 417 82 311 82 q 582 153 522 82 q 642 347 642 224 q 582 542 642 471 q 417 613 522 613 z "},"ổ":{"ha":833,"x_min":81,"x_max":765,"o":"m 642 935 l 603 979 q 657 1017 639 999 q 675 1067 675 1036 q 661 1102 675 1088 q 621 1117 647 1117 q 557 1075 581 1117 l 492 1119 q 549 1180 513 1158 q 638 1201 586 1201 q 731 1167 696 1201 q 765 1082 765 1132 q 734 994 765 1033 q 642 935 703 954 m 638 800 l 536 800 l 417 960 l 297 800 l 196 800 l 354 1032 l 479 1032 l 638 800 m 417 708 q 591 665 515 708 q 710 541 667 622 q 753 347 753 460 q 710 153 753 235 q 591 29 667 72 q 417 -14 515 -14 q 243 29 319 -14 q 124 153 167 72 q 81 347 81 235 q 124 541 81 460 q 243 665 167 622 q 417 708 319 708 m 417 613 q 251 542 311 613 q 192 347 192 471 q 251 153 192 224 q 417 82 311 82 q 582 153 522 82 q 642 347 642 224 q 582 542 642 471 q 417 613 522 613 z "},"ỗ":{"ha":833,"x_min":81,"x_max":753,"o":"m 658 1243 q 612 1112 651 1154 q 507 1069 572 1069 q 442 1083 468 1069 q 399 1113 417 1096 q 363 1142 381 1129 q 324 1156 346 1156 q 281 1135 296 1156 q 260 1072 267 1114 l 172 1072 q 325 1246 186 1246 q 388 1233 363 1246 q 433 1203 414 1219 q 468 1173 451 1186 q 506 1160 485 1160 q 549 1181 533 1160 q 571 1243 564 1201 l 658 1243 m 638 800 l 536 800 l 417 960 l 297 800 l 196 800 l 354 1032 l 479 1032 l 638 800 m 417 708 q 591 665 515 708 q 710 541 667 622 q 753 347 753 460 q 710 153 753 235 q 591 29 667 72 q 417 -14 515 -14 q 243 29 319 -14 q 124 153 167 72 q 81 347 81 235 q 124 541 81 460 q 243 665 167 622 q 417 708 319 708 m 417 613 q 251 542 311 613 q 192 347 192 471 q 251 153 192 224 q 417 82 311 82 q 582 153 522 82 q 642 347 642 224 q 582 542 642 471 q 417 613 522 613 z "},"ȍ":{"ha":833,"x_min":81,"x_max":753,"o":"m 417 708 q 591 665 515 708 q 710 541 667 622 q 753 347 753 460 q 710 153 753 235 q 591 29 667 72 q 417 -14 515 -14 q 243 29 319 -14 q 124 153 167 72 q 81 347 81 235 q 124 541 81 460 q 243 665 167 622 q 417 708 319 708 m 417 613 q 251 542 311 613 q 192 347 192 471 q 251 153 192 224 q 417 82 311 82 q 582 153 522 82 q 642 347 642 224 q 582 542 642 471 q 417 613 522 613 m 354 810 l 264 810 l 128 1042 l 249 1042 l 354 810 m 599 810 l 508 810 l 372 1042 l 493 1042 l 599 810 z "},"ö":{"ha":833,"x_min":81,"x_max":753,"o":"m 417 708 q 591 665 515 708 q 710 541 667 622 q 753 347 753 460 q 710 153 753 235 q 591 29 667 72 q 417 -14 515 -14 q 243 29 319 -14 q 124 153 167 72 q 81 347 81 235 q 124 541 81 460 q 243 665 167 622 q 417 708 319 708 m 417 613 q 251 542 311 613 q 192 347 192 471 q 251 153 192 224 q 417 82 311 82 q 582 153 522 82 q 642 347 642 224 q 582 542 642 471 q 417 613 522 613 m 282 967 q 340 945 318 967 q 361 888 361 924 q 340 831 361 853 q 282 808 318 808 q 225 831 247 808 q 203 888 203 853 q 225 945 203 924 q 282 967 247 967 m 551 967 q 609 945 588 967 q 631 888 631 924 q 609 831 631 853 q 551 808 588 808 q 494 831 517 808 q 472 888 472 853 q 494 945 472 924 q 551 967 517 967 z "},"ȫ":{"ha":833,"x_min":81,"x_max":753,"o":"m 417 708 q 591 665 515 708 q 710 541 667 622 q 753 347 753 460 q 710 153 753 235 q 591 29 667 72 q 417 -14 515 -14 q 243 29 319 -14 q 124 153 167 72 q 81 347 81 235 q 124 541 81 460 q 243 665 167 622 q 417 708 319 708 m 417 613 q 251 542 311 613 q 192 347 192 471 q 251 153 192 224 q 417 82 311 82 q 582 153 522 82 q 642 347 642 224 q 582 542 642 471 q 417 613 522 613 m 282 967 q 340 945 318 967 q 361 888 361 924 q 340 831 361 853 q 282 808 318 808 q 225 831 247 808 q 203 888 203 853 q 225 945 203 924 q 282 967 247 967 m 551 967 q 609 945 588 967 q 631 888 631 924 q 609 831 631 853 q 551 808 588 808 q 494 831 517 808 q 472 888 472 853 q 494 945 472 924 q 551 967 517 967 m 644 1156 l 644 1063 l 189 1063 l 189 1156 l 644 1156 z "},"ȱ":{"ha":833,"x_min":81,"x_max":753,"o":"m 417 708 q 591 665 515 708 q 710 541 667 622 q 753 347 753 460 q 710 153 753 235 q 591 29 667 72 q 417 -14 515 -14 q 243 29 319 -14 q 124 153 167 72 q 81 347 81 235 q 124 541 81 460 q 243 665 167 622 q 417 708 319 708 m 417 613 q 251 542 311 613 q 192 347 192 471 q 251 153 192 224 q 417 82 311 82 q 582 153 522 82 q 642 347 642 224 q 582 542 642 471 q 417 613 522 613 m 417 994 q 477 972 454 994 q 500 911 500 949 q 477 851 500 874 q 417 828 454 828 q 356 851 379 828 q 333 911 333 874 q 356 972 333 949 q 417 994 379 994 m 644 1183 l 644 1090 l 189 1090 l 189 1183 l 644 1183 z "},"ọ":{"ha":833,"x_min":81,"x_max":753,"o":"m 417 708 q 591 665 515 708 q 710 541 667 622 q 753 347 753 460 q 710 153 753 235 q 591 29 667 72 q 417 -14 515 -14 q 243 29 319 -14 q 124 153 167 72 q 81 347 81 235 q 124 541 81 460 q 243 665 167 622 q 417 708 319 708 m 417 613 q 251 542 311 613 q 192 347 192 471 q 251 153 192 224 q 417 82 311 82 q 582 153 522 82 q 642 347 642 224 q 582 542 642 471 q 417 613 522 613 m 417 -300 q 356 -277 379 -300 q 333 -217 333 -254 q 356 -156 333 -179 q 417 -133 379 -133 q 477 -156 454 -133 q 500 -217 500 -179 q 477 -277 500 -254 q 417 -300 454 -300 z "},"ò":{"ha":833,"x_min":81,"x_max":753,"o":"m 417 708 q 591 665 515 708 q 710 541 667 622 q 753 347 753 460 q 710 153 753 235 q 591 29 667 72 q 417 -14 515 -14 q 243 29 319 -14 q 124 153 167 72 q 81 347 81 235 q 124 541 81 460 q 243 665 167 622 q 417 708 319 708 m 417 613 q 251 542 311 613 q 192 347 192 471 q 251 153 192 224 q 417 82 311 82 q 582 153 522 82 q 642 347 642 224 q 582 542 642 471 q 417 613 522 613 m 369 1042 l 475 810 l 385 810 l 249 1042 l 369 1042 z "},"ỏ":{"ha":833,"x_min":81,"x_max":753,"o":"m 417 708 q 591 665 515 708 q 710 541 667 622 q 753 347 753 460 q 710 153 753 235 q 591 29 667 72 q 417 -14 515 -14 q 243 29 319 -14 q 124 153 167 72 q 81 347 81 235 q 124 541 81 460 q 243 665 167 622 q 417 708 319 708 m 417 613 q 251 542 311 613 q 192 347 192 471 q 251 153 192 224 q 417 82 311 82 q 582 153 522 82 q 642 347 642 224 q 582 542 642 471 q 417 613 522 613 m 401 763 l 363 817 q 424 856 404 836 q 444 906 444 875 q 429 945 444 929 q 386 961 414 961 q 319 914 347 961 l 256 958 q 313 1024 275 1003 q 403 1046 351 1046 q 499 1010 464 1046 q 535 921 535 974 q 501 830 535 871 q 401 763 468 789 z "},"ơ":{"ha":833,"x_min":81,"x_max":753,"o":"m 417 708 q 591 665 515 708 q 710 541 667 622 q 753 347 753 460 q 710 153 753 235 q 591 29 667 72 q 417 -14 515 -14 q 243 29 319 -14 q 124 153 167 72 q 81 347 81 235 q 124 541 81 460 q 243 665 167 622 q 417 708 319 708 m 417 613 q 251 542 311 613 q 192 347 192 471 q 251 153 192 224 q 417 82 311 82 q 582 153 522 82 q 642 347 642 224 q 582 542 642 471 q 417 613 522 613 m 519 613 l 519 694 q 613 733 579 694 q 647 858 647 771 l 743 858 q 683 674 743 735 q 519 613 622 613 z "},"ớ":{"ha":833,"x_min":81,"x_max":753,"o":"m 417 708 q 591 665 515 708 q 710 541 667 622 q 753 347 753 460 q 710 153 753 235 q 591 29 667 72 q 417 -14 515 -14 q 243 29 319 -14 q 124 153 167 72 q 81 347 81 235 q 124 541 81 460 q 243 665 167 622 q 417 708 319 708 m 417 613 q 251 542 311 613 q 192 347 192 471 q 251 153 192 224 q 417 82 311 82 q 582 153 522 82 q 642 347 642 224 q 582 542 642 471 q 417 613 522 613 m 519 613 l 519 694 q 613 733 579 694 q 647 858 647 771 l 743 858 q 683 674 743 735 q 519 613 622 613 m 454 1042 l 575 1042 l 439 810 l 349 810 l 454 1042 z "},"ợ":{"ha":833,"x_min":81,"x_max":753,"o":"m 417 708 q 591 665 515 708 q 710 541 667 622 q 753 347 753 460 q 710 153 753 235 q 591 29 667 72 q 417 -14 515 -14 q 243 29 319 -14 q 124 153 167 72 q 81 347 81 235 q 124 541 81 460 q 243 665 167 622 q 417 708 319 708 m 417 613 q 251 542 311 613 q 192 347 192 471 q 251 153 192 224 q 417 82 311 82 q 582 153 522 82 q 642 347 642 224 q 582 542 642 471 q 417 613 522 613 m 519 613 l 519 694 q 613 733 579 694 q 647 858 647 771 l 743 858 q 683 674 743 735 q 519 613 622 613 m 417 -300 q 356 -277 379 -300 q 333 -217 333 -254 q 356 -156 333 -179 q 417 -133 379 -133 q 477 -156 454 -133 q 500 -217 500 -179 q 477 -277 500 -254 q 417 -300 454 -300 z "},"ờ":{"ha":833,"x_min":81,"x_max":753,"o":"m 417 708 q 591 665 515 708 q 710 541 667 622 q 753 347 753 460 q 710 153 753 235 q 591 29 667 72 q 417 -14 515 -14 q 243 29 319 -14 q 124 153 167 72 q 81 347 81 235 q 124 541 81 460 q 243 665 167 622 q 417 708 319 708 m 417 613 q 251 542 311 613 q 192 347 192 471 q 251 153 192 224 q 417 82 311 82 q 582 153 522 82 q 642 347 642 224 q 582 542 642 471 q 417 613 522 613 m 519 613 l 519 694 q 613 733 579 694 q 647 858 647 771 l 743 858 q 683 674 743 735 q 519 613 622 613 m 369 1042 l 475 810 l 385 810 l 249 1042 l 369 1042 z "},"ở":{"ha":833,"x_min":81,"x_max":753,"o":"m 417 708 q 591 665 515 708 q 710 541 667 622 q 753 347 753 460 q 710 153 753 235 q 591 29 667 72 q 417 -14 515 -14 q 243 29 319 -14 q 124 153 167 72 q 81 347 81 235 q 124 541 81 460 q 243 665 167 622 q 417 708 319 708 m 417 613 q 251 542 311 613 q 192 347 192 471 q 251 153 192 224 q 417 82 311 82 q 582 153 522 82 q 642 347 642 224 q 582 542 642 471 q 417 613 522 613 m 519 613 l 519 694 q 613 733 579 694 q 647 858 647 771 l 743 858 q 683 674 743 735 q 519 613 622 613 m 401 763 l 363 817 q 424 856 404 836 q 444 906 444 875 q 429 945 444 929 q 386 961 414 961 q 319 914 347 961 l 256 958 q 313 1024 275 1003 q 403 1046 351 1046 q 499 1010 464 1046 q 535 921 535 974 q 501 830 535 871 q 401 763 468 789 z "},"ỡ":{"ha":833,"x_min":81,"x_max":753,"o":"m 417 708 q 591 665 515 708 q 710 541 667 622 q 753 347 753 460 q 710 153 753 235 q 591 29 667 72 q 417 -14 515 -14 q 243 29 319 -14 q 124 153 167 72 q 81 347 81 235 q 124 541 81 460 q 243 665 167 622 q 417 708 319 708 m 417 613 q 251 542 311 613 q 192 347 192 471 q 251 153 192 224 q 417 82 311 82 q 582 153 522 82 q 642 347 642 224 q 582 542 642 471 q 417 613 522 613 m 519 613 l 519 694 q 613 733 579 694 q 647 858 647 771 l 743 858 q 683 674 743 735 q 519 613 622 613 m 649 996 q 493 810 633 810 q 427 824 454 810 q 381 857 400 839 q 342 890 361 875 q 301 904 324 904 q 256 878 271 904 q 233 808 240 853 l 146 808 q 191 947 153 900 q 303 994 229 994 q 367 980 340 994 q 415 947 394 965 q 453 915 435 929 q 492 900 471 900 q 539 926 524 900 q 561 996 554 951 l 649 996 z "},"ő":{"ha":833,"x_min":81,"x_max":753,"o":"m 417 708 q 591 665 515 708 q 710 541 667 622 q 753 347 753 460 q 710 153 753 235 q 591 29 667 72 q 417 -14 515 -14 q 243 29 319 -14 q 124 153 167 72 q 81 347 81 235 q 124 541 81 460 q 243 665 167 622 q 417 708 319 708 m 417 613 q 251 542 311 613 q 192 347 192 471 q 251 153 192 224 q 417 82 311 82 q 582 153 522 82 q 642 347 642 224 q 582 542 642 471 q 417 613 522 613 m 465 810 l 571 1042 l 692 1042 l 556 810 l 465 810 m 221 810 l 326 1042 l 447 1042 l 311 810 l 221 810 z "},"ȏ":{"ha":833,"x_min":81,"x_max":753,"o":"m 417 708 q 591 665 515 708 q 710 541 667 622 q 753 347 753 460 q 710 153 753 235 q 591 29 667 72 q 417 -14 515 -14 q 243 29 319 -14 q 124 153 167 72 q 81 347 81 235 q 124 541 81 460 q 243 665 167 622 q 417 708 319 708 m 417 613 q 251 542 311 613 q 192 347 192 471 q 251 153 192 224 q 417 82 311 82 q 582 153 522 82 q 642 347 642 224 q 582 542 642 471 q 417 613 522 613 m 622 801 l 532 801 q 502 887 531 850 q 417 924 474 924 q 332 887 361 924 q 301 801 303 850 l 211 801 q 268 950 211 893 q 417 1007 325 1007 q 565 950 508 1007 q 622 801 622 893 z "},"ō":{"ha":833,"x_min":81,"x_max":753,"o":"m 417 708 q 591 665 515 708 q 710 541 667 622 q 753 347 753 460 q 710 153 753 235 q 591 29 667 72 q 417 -14 515 -14 q 243 29 319 -14 q 124 153 167 72 q 81 347 81 235 q 124 541 81 460 q 243 665 167 622 q 417 708 319 708 m 417 613 q 251 542 311 613 q 192 347 192 471 q 251 153 192 224 q 417 82 311 82 q 582 153 522 82 q 642 347 642 224 q 582 542 642 471 q 417 613 522 613 m 644 921 l 644 828 l 189 828 l 189 921 l 644 921 z "},"ṓ":{"ha":833,"x_min":81,"x_max":753,"o":"m 417 708 q 591 665 515 708 q 710 541 667 622 q 753 347 753 460 q 710 153 753 235 q 591 29 667 72 q 417 -14 515 -14 q 243 29 319 -14 q 124 153 167 72 q 81 347 81 235 q 124 541 81 460 q 243 665 167 622 q 417 708 319 708 m 417 613 q 251 542 311 613 q 192 347 192 471 q 251 153 192 224 q 417 82 311 82 q 582 153 522 82 q 642 347 642 224 q 582 542 642 471 q 417 613 522 613 m 644 921 l 644 828 l 189 828 l 189 921 l 644 921 m 449 1254 l 565 1254 l 446 1033 l 357 1033 l 449 1254 z "},"ṑ":{"ha":833,"x_min":81,"x_max":753,"o":"m 417 708 q 591 665 515 708 q 710 541 667 622 q 753 347 753 460 q 710 153 753 235 q 591 29 667 72 q 417 -14 515 -14 q 243 29 319 -14 q 124 153 167 72 q 81 347 81 235 q 124 541 81 460 q 243 665 167 622 q 417 708 319 708 m 417 613 q 251 542 311 613 q 192 347 192 471 q 251 153 192 224 q 417 82 311 82 q 582 153 522 82 q 642 347 642 224 q 582 542 642 471 q 417 613 522 613 m 644 921 l 644 828 l 189 828 l 189 921 l 644 921 m 385 1254 l 476 1033 l 388 1033 l 268 1254 l 385 1254 z "},"ǫ":{"ha":833,"x_min":81,"x_max":753,"o":"m 417 708 q 591 665 515 708 q 710 541 667 622 q 753 347 753 460 q 710 153 753 235 q 591 29 667 72 q 417 -14 515 -14 q 243 29 319 -14 q 124 153 167 72 q 81 347 81 235 q 124 541 81 460 q 243 665 167 622 q 417 708 319 708 m 417 613 q 251 542 311 613 q 192 347 192 471 q 251 153 192 224 q 417 82 311 82 q 582 153 522 82 q 642 347 642 224 q 582 542 642 471 q 417 613 522 613 m 471 -303 q 349 -263 392 -303 q 307 -160 307 -224 q 356 -36 307 -82 q 508 47 406 10 l 569 18 q 456 -37 493 -10 q 406 -91 418 -64 q 394 -147 394 -118 q 418 -203 394 -183 q 481 -222 442 -222 q 557 -207 522 -222 l 574 -281 q 528 -297 556 -290 q 471 -303 500 -303 z "},"ø":{"ha":833,"x_min":76,"x_max":757,"o":"m 417 708 q 591 665 515 708 q 710 541 667 622 q 753 347 753 460 q 710 153 753 235 q 591 29 667 72 q 417 -14 515 -14 q 243 29 319 -14 q 124 153 167 72 q 81 347 81 235 q 124 541 81 460 q 243 665 167 622 q 417 708 319 708 m 417 613 q 251 542 311 613 q 192 347 192 471 q 251 153 192 224 q 417 82 311 82 q 582 153 522 82 q 642 347 642 224 q 582 542 642 471 q 417 613 522 613 m 76 -42 l 664 736 l 757 736 l 169 -42 l 76 -42 z "},"ǿ":{"ha":833,"x_min":76,"x_max":757,"o":"m 417 708 q 591 665 515 708 q 710 541 667 622 q 753 347 753 460 q 710 153 753 235 q 591 29 667 72 q 417 -14 515 -14 q 243 29 319 -14 q 124 153 167 72 q 81 347 81 235 q 124 541 81 460 q 243 665 167 622 q 417 708 319 708 m 417 613 q 251 542 311 613 q 192 347 192 471 q 251 153 192 224 q 417 82 311 82 q 582 153 522 82 q 642 347 642 224 q 582 542 642 471 q 417 613 522 613 m 76 -42 l 664 736 l 757 736 l 169 -42 l 76 -42 m 454 1042 l 575 1042 l 439 810 l 349 810 l 454 1042 z "},"õ":{"ha":833,"x_min":81,"x_max":753,"o":"m 417 708 q 591 665 515 708 q 710 541 667 622 q 753 347 753 460 q 710 153 753 235 q 591 29 667 72 q 417 -14 515 -14 q 243 29 319 -14 q 124 153 167 72 q 81 347 81 235 q 124 541 81 460 q 243 665 167 622 q 417 708 319 708 m 417 613 q 251 542 311 613 q 192 347 192 471 q 251 153 192 224 q 417 82 311 82 q 582 153 522 82 q 642 347 642 224 q 582 542 642 471 q 417 613 522 613 m 667 996 q 511 810 651 810 q 445 824 472 810 q 399 857 418 839 q 360 890 379 875 q 319 904 342 904 q 274 878 289 904 q 251 808 258 853 l 164 808 q 209 947 171 900 q 321 994 247 994 q 385 980 358 994 q 433 947 413 965 q 471 915 453 929 q 510 900 489 900 q 557 926 542 900 q 579 996 572 951 l 667 996 z "},"ṍ":{"ha":833,"x_min":81,"x_max":753,"o":"m 417 708 q 591 665 515 708 q 710 541 667 622 q 753 347 753 460 q 710 153 753 235 q 591 29 667 72 q 417 -14 515 -14 q 243 29 319 -14 q 124 153 167 72 q 81 347 81 235 q 124 541 81 460 q 243 665 167 622 q 417 708 319 708 m 417 613 q 251 542 311 613 q 192 347 192 471 q 251 153 192 224 q 417 82 311 82 q 582 153 522 82 q 642 347 642 224 q 582 542 642 471 q 417 613 522 613 m 667 996 q 511 810 651 810 q 445 824 472 810 q 399 857 418 839 q 360 890 379 875 q 319 904 342 904 q 274 878 289 904 q 251 808 258 853 l 164 808 q 209 947 171 900 q 321 994 247 994 q 385 980 358 994 q 433 947 413 965 q 471 915 453 929 q 510 900 489 900 q 557 926 542 900 q 579 996 572 951 l 667 996 m 447 1306 l 564 1306 l 444 1085 l 356 1085 l 447 1306 z "},"ṏ":{"ha":833,"x_min":81,"x_max":753,"o":"m 417 708 q 591 665 515 708 q 710 541 667 622 q 753 347 753 460 q 710 153 753 235 q 591 29 667 72 q 417 -14 515 -14 q 243 29 319 -14 q 124 153 167 72 q 81 347 81 235 q 124 541 81 460 q 243 665 167 622 q 417 708 319 708 m 417 613 q 251 542 311 613 q 192 347 192 471 q 251 153 192 224 q 417 82 311 82 q 582 153 522 82 q 642 347 642 224 q 582 542 642 471 q 417 613 522 613 m 667 996 q 511 810 651 810 q 445 824 472 810 q 399 857 418 839 q 360 890 379 875 q 319 904 342 904 q 274 878 289 904 q 251 808 258 853 l 164 808 q 209 947 171 900 q 321 994 247 994 q 385 980 358 994 q 433 947 413 965 q 471 915 453 929 q 510 900 489 900 q 557 926 542 900 q 579 996 572 951 l 667 996 m 281 1242 q 338 1220 317 1242 q 360 1163 360 1199 q 338 1106 360 1128 q 281 1083 317 1083 q 224 1106 246 1083 q 201 1163 201 1128 q 224 1220 201 1199 q 281 1242 246 1242 m 550 1242 q 608 1220 586 1242 q 629 1163 629 1199 q 608 1106 629 1128 q 550 1083 586 1083 q 493 1106 515 1083 q 471 1163 471 1128 q 493 1220 471 1199 q 550 1242 515 1242 z "},"ȭ":{"ha":833,"x_min":81,"x_max":753,"o":"m 417 708 q 591 665 515 708 q 710 541 667 622 q 753 347 753 460 q 710 153 753 235 q 591 29 667 72 q 417 -14 515 -14 q 243 29 319 -14 q 124 153 167 72 q 81 347 81 235 q 124 541 81 460 q 243 665 167 622 q 417 708 319 708 m 417 613 q 251 542 311 613 q 192 347 192 471 q 251 153 192 224 q 417 82 311 82 q 582 153 522 82 q 642 347 642 224 q 582 542 642 471 q 417 613 522 613 m 667 996 q 511 810 651 810 q 445 824 472 810 q 399 857 418 839 q 360 890 379 875 q 319 904 342 904 q 274 878 289 904 q 251 808 258 853 l 164 808 q 209 947 171 900 q 321 994 247 994 q 385 980 358 994 q 433 947 413 965 q 471 915 453 929 q 510 900 489 900 q 557 926 542 900 q 579 996 572 951 l 667 996 m 643 1196 l 643 1103 l 188 1103 l 188 1196 l 643 1196 z "},"œ":{"ha":1363,"x_min":81,"x_max":1281,"o":"m 417 -14 q 243 29 319 -14 q 124 153 167 72 q 81 347 81 235 q 124 541 81 460 q 243 665 167 622 q 417 708 319 708 q 580 669 507 708 q 696 549 653 629 q 811 669 739 629 q 974 708 883 708 q 1140 667 1071 708 q 1244 553 1208 625 q 1281 393 1281 482 q 1279 350 1281 369 q 1275 315 1278 331 l 751 315 q 819 144 760 206 q 978 83 879 83 q 1102 113 1054 83 q 1179 192 1150 142 l 1267 140 q 1155 28 1228 69 q 981 -14 1082 -14 q 813 26 888 -14 q 696 144 739 65 q 581 26 653 65 q 417 -14 508 -14 m 417 82 q 582 153 522 82 q 642 347 642 224 q 582 542 642 471 q 417 613 522 613 q 251 542 311 613 q 192 347 192 471 q 251 153 192 224 q 417 82 311 82 m 971 611 q 827 559 883 611 q 756 414 771 507 l 1169 414 q 1112 560 1167 508 q 971 611 1057 611 z "},"p":{"ha":871,"x_min":129,"x_max":788,"o":"m 129 -292 l 129 694 l 226 694 l 233 572 q 328 671 265 633 q 474 708 392 708 q 630 665 558 708 q 744 542 701 622 q 788 347 788 461 q 744 153 788 235 q 628 29 700 72 q 469 -14 556 -14 q 332 20 392 -14 q 240 108 272 54 l 240 -292 l 129 -292 m 458 83 q 619 156 561 83 q 676 347 676 228 q 620 539 676 467 q 463 611 564 611 q 301 539 363 611 q 240 347 240 467 q 300 156 240 228 q 458 83 360 83 z "},"þ":{"ha":871,"x_min":129,"x_max":788,"o":"m 129 -292 l 129 1014 l 240 1014 l 240 586 q 334 674 274 640 q 471 708 394 708 q 629 665 557 708 q 744 542 701 622 q 788 347 788 461 q 744 153 788 235 q 628 29 700 72 q 469 -14 556 -14 q 332 20 392 -14 q 240 108 272 54 l 240 -292 l 129 -292 m 458 83 q 619 156 561 83 q 676 347 676 228 q 620 539 676 467 q 463 611 564 611 q 301 539 363 611 q 240 347 240 467 q 300 156 240 228 q 458 83 360 83 z "},"q":{"ha":871,"x_min":83,"x_max":742,"o":"m 631 -292 l 631 115 q 537 19 600 53 q 400 -14 474 -14 q 242 29 314 -14 q 126 153 169 72 q 83 347 83 235 q 129 543 83 463 q 250 666 175 624 q 411 708 325 708 q 547 673 485 708 q 638 575 610 638 l 644 694 l 742 694 l 742 -292 l 631 -292 m 411 83 q 570 156 510 83 q 631 351 631 229 q 572 544 631 476 q 414 611 513 611 q 253 539 311 611 q 194 347 194 467 q 251 156 194 228 q 411 83 308 83 z "},"r":{"ha":567,"x_min":129,"x_max":533,"o":"m 129 0 l 129 694 l 219 694 l 235 581 q 457 708 293 708 q 497 706 475 708 q 533 694 518 703 l 514 593 q 481 601 499 599 q 429 604 463 604 q 342 579 386 604 q 269 503 299 554 q 240 375 240 453 l 240 0 l 129 0 z "},"ŕ":{"ha":567,"x_min":129,"x_max":533,"o":"m 129 0 l 129 694 l 219 694 l 235 581 q 457 708 293 708 q 497 706 475 708 q 533 694 518 703 l 514 593 q 481 601 499 599 q 429 604 463 604 q 342 579 386 604 q 269 503 299 554 q 240 375 240 453 l 240 0 l 129 0 m 365 1042 l 486 1042 l 350 810 l 260 810 l 365 1042 z "},"ř":{"ha":567,"x_min":107,"x_max":549,"o":"m 129 0 l 129 694 l 219 694 l 235 581 q 457 708 293 708 q 497 706 475 708 q 533 694 518 703 l 514 593 q 481 601 499 599 q 429 604 463 604 q 342 579 386 604 q 269 503 299 554 q 240 375 240 453 l 240 0 l 129 0 m 549 1042 l 390 810 l 265 810 l 107 1042 l 208 1042 l 328 882 l 447 1042 l 549 1042 z "},"ŗ":{"ha":567,"x_min":58,"x_max":533,"o":"m 129 0 l 129 694 l 219 694 l 235 581 q 457 708 293 708 q 497 706 475 708 q 533 694 518 703 l 514 593 q 481 601 499 599 q 429 604 463 604 q 342 579 386 604 q 269 503 299 554 q 240 375 240 453 l 240 0 l 129 0 m 236 -106 l 146 -329 l 58 -329 l 119 -106 l 236 -106 z "},"ȑ":{"ha":567,"x_min":39,"x_max":533,"o":"m 129 0 l 129 694 l 219 694 l 235 581 q 457 708 293 708 q 497 706 475 708 q 533 694 518 703 l 514 593 q 481 601 499 599 q 429 604 463 604 q 342 579 386 604 q 269 503 299 554 q 240 375 240 453 l 240 0 l 129 0 m 265 810 l 175 810 l 39 1042 l 160 1042 l 265 810 m 510 810 l 419 810 l 283 1042 l 404 1042 l 510 810 z "},"ṛ":{"ha":567,"x_min":101,"x_max":533,"o":"m 129 0 l 129 694 l 219 694 l 235 581 q 457 708 293 708 q 497 706 475 708 q 533 694 518 703 l 514 593 q 481 601 499 599 q 429 604 463 604 q 342 579 386 604 q 269 503 299 554 q 240 375 240 453 l 240 0 l 129 0 m 185 -300 q 124 -277 147 -300 q 101 -217 101 -254 q 124 -156 101 -179 q 185 -133 147 -133 q 245 -156 222 -133 q 268 -217 268 -179 q 245 -277 268 -254 q 185 -300 222 -300 z "},"ȓ":{"ha":567,"x_min":122,"x_max":533,"o":"m 129 0 l 129 694 l 219 694 l 235 581 q 457 708 293 708 q 497 706 475 708 q 533 694 518 703 l 514 593 q 481 601 499 599 q 429 604 463 604 q 342 579 386 604 q 269 503 299 554 q 240 375 240 453 l 240 0 l 129 0 m 533 801 l 443 801 q 413 887 442 850 q 328 924 385 924 q 243 887 272 924 q 213 801 214 850 l 122 801 q 179 950 122 893 q 328 1007 236 1007 q 476 950 419 1007 q 533 801 533 893 z "},"ṟ":{"ha":567,"x_min":33,"x_max":533,"o":"m 129 0 l 129 694 l 219 694 l 235 581 q 457 708 293 708 q 497 706 475 708 q 533 694 518 703 l 514 593 q 481 601 499 599 q 429 604 463 604 q 342 579 386 604 q 269 503 299 554 q 240 375 240 453 l 240 0 l 129 0 z "},"s":{"ha":732,"x_min":61,"x_max":656,"o":"m 379 -14 q 192 29 278 -14 q 61 151 107 72 l 156 219 q 245 119 186 156 q 388 83 304 83 q 503 112 461 83 q 544 186 544 140 q 526 240 544 215 q 454 275 507 264 l 288 310 q 142 379 186 331 q 99 500 99 428 q 131 604 99 557 q 224 680 164 651 q 367 708 285 708 q 540 668 469 708 q 646 554 611 628 l 553 493 q 476 583 529 554 q 367 611 424 611 q 250 581 292 611 q 208 504 208 550 q 229 448 208 474 q 307 411 250 422 l 481 375 q 617 311 578 356 q 656 203 656 267 q 579 45 656 104 q 379 -14 503 -14 z "},"ś":{"ha":732,"x_min":61,"x_max":656,"o":"m 379 -14 q 192 29 278 -14 q 61 151 107 72 l 156 219 q 245 119 186 156 q 388 83 304 83 q 503 112 461 83 q 544 186 544 140 q 526 240 544 215 q 454 275 507 264 l 288 310 q 142 379 186 331 q 99 500 99 428 q 131 604 99 557 q 224 680 164 651 q 367 708 285 708 q 540 668 469 708 q 646 554 611 628 l 553 493 q 476 583 529 554 q 367 611 424 611 q 250 581 292 611 q 208 504 208 550 q 229 448 208 474 q 307 411 250 422 l 481 375 q 617 311 578 356 q 656 203 656 267 q 579 45 656 104 q 379 -14 503 -14 m 404 1042 l 525 1042 l 389 810 l 299 810 l 404 1042 z "},"ṥ":{"ha":732,"x_min":61,"x_max":656,"o":"m 379 -14 q 192 29 278 -14 q 61 151 107 72 l 156 219 q 245 119 186 156 q 388 83 304 83 q 503 112 461 83 q 544 186 544 140 q 526 240 544 215 q 454 275 507 264 l 288 310 q 142 379 186 331 q 99 500 99 428 q 131 604 99 557 q 224 680 164 651 q 367 708 285 708 q 540 668 469 708 q 646 554 611 628 l 553 493 q 476 583 529 554 q 367 611 424 611 q 250 581 292 611 q 208 504 208 550 q 229 448 208 474 q 307 411 250 422 l 481 375 q 617 311 578 356 q 656 203 656 267 q 579 45 656 104 q 379 -14 503 -14 m 404 1042 l 525 1042 l 389 810 l 299 810 l 404 1042 m 367 1283 q 427 1260 404 1283 q 450 1200 450 1238 q 427 1140 450 1163 q 367 1117 404 1117 q 306 1140 329 1117 q 283 1200 283 1163 q 306 1260 283 1238 q 367 1283 329 1283 z "},"š":{"ha":732,"x_min":61,"x_max":656,"o":"m 379 -14 q 192 29 278 -14 q 61 151 107 72 l 156 219 q 245 119 186 156 q 388 83 304 83 q 503 112 461 83 q 544 186 544 140 q 526 240 544 215 q 454 275 507 264 l 288 310 q 142 379 186 331 q 99 500 99 428 q 131 604 99 557 q 224 680 164 651 q 367 708 285 708 q 540 668 469 708 q 646 554 611 628 l 553 493 q 476 583 529 554 q 367 611 424 611 q 250 581 292 611 q 208 504 208 550 q 229 448 208 474 q 307 411 250 422 l 481 375 q 617 311 578 356 q 656 203 656 267 q 579 45 656 104 q 379 -14 503 -14 m 588 1042 l 429 810 l 304 810 l 146 1042 l 247 1042 l 367 882 l 486 1042 l 588 1042 z "}}}
